M48
;DRILL file {KiCad 5.0.2+dfsg1-1} date Sun 23 Aug 2020 11:53:29 AM CEST
;FORMAT={3:3/ absolute / metric / suppress leading zeros}
FMAT,2
METRIC,TZ
T1C0.400
T2C0.762
T3C0.900
T4C4.500
T5C0.700
%
G90
G05
T1
X91500Y-159000
X92000Y-76500
X92500Y-84000
X92500Y-114000
X92500Y-138000
X93500Y-126000
X94500Y-151000
X94500Y-157500
X95000Y-149500
X97500Y-105500
X97500Y-155500
X98000Y-83500
X98000Y-90000
X98000Y-131000
X98000Y-163000
X98500Y-73000
X98500Y-138000
X100000Y-110500
X100500Y-142000
X100500Y-145000
X100500Y-148000
X100500Y-151000
X100500Y-154000
X101000Y-79500
X101200Y-128000
X102000Y-141500
X102000Y-146500
X102200Y-116000
X102200Y-136000
X103000Y-115200
X103000Y-135200
X103000Y-152000
X103200Y-101000
X103500Y-158000
X103800Y-136000
X103940Y-117094
X104000Y-149200
X105000Y-72500
X105000Y-167500
X105200Y-86600
X106000Y-80000
X107000Y-125500
X108500Y-113000
X109500Y-85500
X109800Y-142400
X110400Y-149200
X110500Y-147500
X112200Y-143000
X113200Y-117600
X114200Y-115000
X114600Y-156400
X115000Y-135000
X115200Y-122000
X115200Y-116200
X115500Y-145000
X116000Y-118956
X117400Y-154000
X118000Y-73500
X118000Y-147500
X118000Y-166500
X118500Y-144500
X118500Y-151500
X118500Y-153000
X119500Y-75500
X119500Y-85500
X121500Y-149500
X121600Y-155000
X121770Y-139630
X121900Y-138000
X123000Y-79500
X124500Y-126500
X125402Y-119598
X125499Y-117978
X125500Y-121225
X126000Y-113000
X126925Y-118670
X127200Y-117000
X127500Y-157500
X128000Y-88000
X128000Y-106800
X128000Y-149500
X130000Y-122000
X131000Y-166500
X131500Y-150000
X132500Y-79500
X134500Y-96000
X135500Y-138000
X135500Y-108000
X135500Y-132000
X135525Y-114000
X135525Y-150000
X136500Y-84000
X136500Y-156000
X136500Y-120000
X137218Y-76506
X137450Y-116925
X137450Y-135000
X142500Y-159000
X143000Y-76500
X143500Y-84000
X143500Y-114000
X143500Y-138000
X144500Y-126000
X145500Y-151000
X145500Y-157500
X146000Y-149500
X148500Y-105500
X148500Y-155500
X149000Y-83500
X149000Y-90000
X149000Y-131000
X149000Y-163000
X149500Y-73000
X149500Y-138000
X151000Y-110500
X151500Y-142000
X151500Y-145000
X151500Y-148000
X151500Y-151000
X151500Y-154000
X152000Y-79500
X152200Y-128000
X153000Y-141500
X153000Y-146500
X153200Y-116000
X153200Y-136000
X154000Y-115200
X154000Y-135200
X154000Y-152000
X154200Y-101000
X154500Y-158000
X154800Y-136000
X154940Y-117094
X155000Y-149200
X156000Y-72500
X156000Y-167500
X156200Y-86600
X157000Y-80000
X158000Y-125500
X159500Y-113000
X160500Y-85500
X160800Y-142400
X161400Y-149200
X161500Y-147500
X163200Y-143000
X164200Y-117600
X165200Y-115000
X165600Y-156400
X166000Y-135000
X166200Y-122000
X166200Y-116200
X166500Y-145000
X167000Y-118956
X168400Y-154000
X169000Y-73500
X169000Y-147500
X169000Y-166500
X169500Y-144500
X169500Y-151500
X169500Y-153000
X170500Y-75500
X170500Y-85500
X172500Y-149500
X172600Y-155000
X172770Y-139630
X172900Y-138000
X174000Y-79500
X175500Y-126500
X176402Y-119598
X176499Y-117978
X176500Y-121225
X177000Y-113000
X177925Y-118670
X178200Y-117000
X178500Y-157500
X179000Y-88000
X179000Y-106800
X179000Y-149500
X181000Y-122000
X182000Y-166500
X182500Y-150000
X183500Y-79500
X185500Y-96000
X186500Y-138000
X186500Y-108000
X186500Y-132000
X186525Y-114000
X186525Y-150000
X187500Y-84000
X187500Y-156000
X187500Y-120000
X188218Y-76506
X188450Y-116925
X188450Y-135000
T2
X175200Y-76400
X177300Y-76400
X179400Y-76400
X124200Y-76400
X126300Y-76400
X128400Y-76400
X149000Y-113750
X149000Y-116250
X149000Y-118750
X149000Y-121250
X149000Y-123750
X149000Y-126250
X98000Y-113750
X98000Y-116250
X98000Y-118750
X98000Y-121250
X98000Y-123750
X98000Y-126250
T3
X122040Y-82600
X132200Y-82600
X173040Y-82600
X183200Y-82600
T4
X164945Y-148580
X113945Y-148580
T5
X139500Y-142000
X139500Y-143000
X139500Y-144000
X139500Y-145000
X139500Y-146000
X139500Y-147000
X139500Y-148000
X140500Y-142000
X140500Y-143000
X140500Y-144000
X140500Y-145000
X140500Y-146000
X140500Y-147000
X140500Y-148000
X139500Y-92000
X139500Y-93000
X139500Y-94000
X139500Y-95000
X139500Y-96000
X139500Y-97000
X139500Y-98000
X140500Y-92000
X140500Y-93000
X140500Y-94000
X140500Y-95000
X140500Y-96000
X140500Y-97000
X140500Y-98000
T2
X173100Y-76569G85X173100Y-76231
G05
X181500Y-76569G85X181500Y-76231
G05
X122100Y-76569G85X122100Y-76231
G05
X130500Y-76569G85X130500Y-76231
G05
T0
M30
