G04 #@! TF.GenerationSoftware,KiCad,Pcbnew,5.0.2+dfsg1-1*
G04 #@! TF.CreationDate,2020-08-14T01:20:14+02:00*
G04 #@! TF.ProjectId,badge,62616467-652e-46b6-9963-61645f706362,rev?*
G04 #@! TF.SameCoordinates,Original*
G04 #@! TF.FileFunction,Legend,Bot*
G04 #@! TF.FilePolarity,Positive*
%FSLAX46Y46*%
G04 Gerber Fmt 4.6, Leading zero omitted, Abs format (unit mm)*
G04 Created by KiCad (PCBNEW 5.0.2+dfsg1-1) date Fri 14 Aug 2020 01:20:14 AM CEST*
%MOMM*%
%LPD*%
G01*
G04 APERTURE LIST*
%ADD10C,0.150000*%
G04 APERTURE END LIST*
D10*
G04 #@! TO.C,U6*
X105945000Y-132080000D02*
X105945000Y-163580000D01*
X123945000Y-132080000D02*
X105945000Y-132080000D01*
X123945000Y-163580000D02*
X123945000Y-132080000D01*
X105945000Y-163580000D02*
X123945000Y-163580000D01*
X156945000Y-163580000D02*
X174945000Y-163580000D01*
X174945000Y-163580000D02*
X174945000Y-132080000D01*
X174945000Y-132080000D02*
X156945000Y-132080000D01*
X156945000Y-132080000D02*
X156945000Y-163580000D01*
X115706904Y-142532380D02*
X115706904Y-143341904D01*
X115659285Y-143437142D01*
X115611666Y-143484761D01*
X115516428Y-143532380D01*
X115325952Y-143532380D01*
X115230714Y-143484761D01*
X115183095Y-143437142D01*
X115135476Y-143341904D01*
X115135476Y-142532380D01*
X114230714Y-142532380D02*
X114421190Y-142532380D01*
X114516428Y-142580000D01*
X114564047Y-142627619D01*
X114659285Y-142770476D01*
X114706904Y-142960952D01*
X114706904Y-143341904D01*
X114659285Y-143437142D01*
X114611666Y-143484761D01*
X114516428Y-143532380D01*
X114325952Y-143532380D01*
X114230714Y-143484761D01*
X114183095Y-143437142D01*
X114135476Y-143341904D01*
X114135476Y-143103809D01*
X114183095Y-143008571D01*
X114230714Y-142960952D01*
X114325952Y-142913333D01*
X114516428Y-142913333D01*
X114611666Y-142960952D01*
X114659285Y-143008571D01*
X114706904Y-143103809D01*
X166706904Y-142532380D02*
X166706904Y-143341904D01*
X166659285Y-143437142D01*
X166611666Y-143484761D01*
X166516428Y-143532380D01*
X166325952Y-143532380D01*
X166230714Y-143484761D01*
X166183095Y-143437142D01*
X166135476Y-143341904D01*
X166135476Y-142532380D01*
X165230714Y-142532380D02*
X165421190Y-142532380D01*
X165516428Y-142580000D01*
X165564047Y-142627619D01*
X165659285Y-142770476D01*
X165706904Y-142960952D01*
X165706904Y-143341904D01*
X165659285Y-143437142D01*
X165611666Y-143484761D01*
X165516428Y-143532380D01*
X165325952Y-143532380D01*
X165230714Y-143484761D01*
X165183095Y-143437142D01*
X165135476Y-143341904D01*
X165135476Y-143103809D01*
X165183095Y-143008571D01*
X165230714Y-142960952D01*
X165325952Y-142913333D01*
X165516428Y-142913333D01*
X165611666Y-142960952D01*
X165659285Y-143008571D01*
X165706904Y-143103809D01*
G04 #@! TD*
M02*
