M48
;DRILL file {KiCad 5.0.2+dfsg1-1} date Fri 14 Aug 2020 01:19:53 AM CEST
;FORMAT={-:-/ absolute / inch / decimal}
FMAT,2
INCH,TZ
T1C0.0157
T2C0.0300
T3C0.0354
T4C0.1772
%
G90
G05
T1
X3.6024Y-6.2598
X3.622Y-3.0118
X3.6417Y-3.3071
X3.6417Y-4.4882
X3.6417Y-5.4331
X3.6811Y-4.9606
X3.7205Y-5.9449
X3.7205Y-6.2008
X3.7402Y-5.8858
X3.8386Y-4.1535
X3.8386Y-6.122
X3.8583Y-3.2874
X3.8583Y-3.5433
X3.8583Y-5.1575
X3.8583Y-6.4173
X3.878Y-2.874
X3.878Y-5.4331
X3.937Y-4.3504
X3.9567Y-4.685
X3.9567Y-5.5906
X3.9567Y-5.7087
X3.9567Y-5.8268
X3.9567Y-5.9449
X3.9567Y-6.063
X3.9764Y-3.1299
X3.9843Y-5.0394
X3.9921Y-4.9764
X3.9931Y-4.6063
X4.0157Y-5.5709
X4.0157Y-5.7677
X4.0236Y-4.5669
X4.0236Y-5.3543
X4.0551Y-4.5354
X4.0551Y-5.3228
X4.0551Y-5.9843
X4.063Y-3.9764
X4.0748Y-6.2205
X4.0866Y-5.3543
X4.0945Y-5.874
X4.1339Y-2.8543
X4.1339Y-6.5945
X4.1417Y-3.4094
X4.1732Y-3.1496
X4.2126Y-4.9409
X4.2717Y-4.4488
X4.311Y-3.3661
X4.3228Y-5.6063
X4.3465Y-5.874
X4.3504Y-5.8071
X4.3701Y-5.3346
X4.4173Y-5.6299
X4.4567Y-4.6299
X4.4961Y-4.5276
X4.5118Y-6.1575
X4.5276Y-5.2362
X4.5354Y-4.8031
X4.5354Y-4.5748
X4.5472Y-5.7087
X4.5669Y-4.6833
X4.622Y-6.063
X4.6457Y-2.8937
X4.6457Y-5.3346
X4.6457Y-5.8071
X4.6457Y-6.5551
X4.6654Y-5.689
X4.6654Y-5.9646
X4.6654Y-6.0236
X4.7047Y-2.9724
X4.7047Y-3.3661
X4.7835Y-5.8858
X4.7874Y-6.1024
X4.7941Y-5.4972
X4.7992Y-5.4331
X4.8425Y-3.1299
X4.9016Y-4.9803
X4.9371Y-4.7086
X4.9409Y-4.6448
X4.9409Y-4.7726
X4.9606Y-4.4488
X4.997Y-4.6721
X5.0079Y-4.6063
X5.0197Y-6.2008
X5.0394Y-3.4646
X5.0394Y-4.2047
X5.0394Y-5.8858
X5.1181Y-4.8031
X5.1575Y-6.5551
X5.1772Y-5.9055
X5.2165Y-3.1299
X5.2953Y-3.7795
X5.3346Y-5.4331
X5.3346Y-4.252
X5.3346Y-5.1969
X5.3356Y-4.4882
X5.3356Y-5.9055
X5.374Y-3.3071
X5.374Y-6.1417
X5.374Y-4.7244
X5.4023Y-3.012
X5.4114Y-4.6033
X5.4114Y-5.315
X5.6102Y-6.2598
X5.6299Y-3.0118
X5.6496Y-3.3071
X5.6496Y-4.4882
X5.6496Y-5.4331
X5.689Y-4.9606
X5.7283Y-5.9449
X5.7283Y-6.2008
X5.748Y-5.8858
X5.8465Y-4.1535
X5.8465Y-6.122
X5.8661Y-3.2874
X5.8661Y-3.5433
X5.8661Y-5.1575
X5.8661Y-6.4173
X5.8858Y-2.874
X5.8858Y-5.4331
X5.9449Y-4.3504
X5.9646Y-4.685
X5.9646Y-5.5906
X5.9646Y-5.7087
X5.9646Y-5.8268
X5.9646Y-5.9449
X5.9646Y-6.063
X5.9843Y-3.1299
X5.9921Y-5.0394
X6.Y-4.9764
X6.001Y-4.6063
X6.0236Y-5.5709
X6.0236Y-5.7677
X6.0315Y-4.5669
X6.0315Y-5.3543
X6.063Y-4.5354
X6.063Y-5.3228
X6.063Y-5.9843
X6.0709Y-3.9764
X6.0827Y-6.2205
X6.0945Y-5.3543
X6.1024Y-5.874
X6.1417Y-2.8543
X6.1417Y-6.5945
X6.1496Y-3.4094
X6.1811Y-3.1496
X6.2205Y-4.9409
X6.2795Y-4.4488
X6.3189Y-3.3661
X6.3307Y-5.6063
X6.3543Y-5.874
X6.3583Y-5.8071
X6.378Y-5.3346
X6.4252Y-5.6299
X6.4646Y-4.6299
X6.5039Y-4.5276
X6.5197Y-6.1575
X6.5354Y-5.2362
X6.5433Y-4.8031
X6.5433Y-4.5748
X6.5551Y-5.7087
X6.5748Y-4.6833
X6.6299Y-6.063
X6.6535Y-2.8937
X6.6535Y-5.3346
X6.6535Y-5.8071
X6.6535Y-6.5551
X6.6732Y-5.689
X6.6732Y-5.9646
X6.6732Y-6.0236
X6.7126Y-2.9724
X6.7126Y-3.3661
X6.7913Y-5.8858
X6.7953Y-6.1024
X6.802Y-5.4972
X6.8071Y-5.4331
X6.8504Y-3.1299
X6.9094Y-4.9803
X6.945Y-4.7086
X6.9488Y-4.6448
X6.9488Y-4.7726
X6.9685Y-4.4488
X7.0049Y-4.6721
X7.0157Y-4.6063
X7.0276Y-6.2008
X7.0472Y-3.4646
X7.0472Y-4.2047
X7.0472Y-5.8858
X7.126Y-4.8031
X7.1654Y-6.5551
X7.185Y-5.9055
X7.2244Y-3.1299
X7.3031Y-3.7795
X7.3425Y-5.4331
X7.3425Y-4.252
X7.3425Y-5.1969
X7.3435Y-4.4882
X7.3435Y-5.9055
X7.3819Y-3.3071
X7.3819Y-6.1417
X7.3819Y-4.7244
X7.4102Y-3.012
X7.4193Y-4.6033
X7.4193Y-5.315
T2
X6.8976Y-3.0079
X6.9803Y-3.0079
X7.063Y-3.0079
X4.8898Y-3.0079
X4.9724Y-3.0079
X5.0551Y-3.0079
X3.8583Y-4.4783
X3.8583Y-4.5768
X3.8583Y-4.6752
X3.8583Y-4.7736
X3.8583Y-4.872
X3.8583Y-4.9705
X5.8661Y-4.4783
X5.8661Y-4.5768
X5.8661Y-4.6752
X5.8661Y-4.7736
X5.8661Y-4.872
X5.8661Y-4.9705
T3
X4.8047Y-3.252
X5.2047Y-3.252
X6.8126Y-3.252
X7.2126Y-3.252
T4
X6.4939Y-5.8496
X4.486Y-5.8496
T2
X6.815Y-3.0145G85X6.815Y-3.0012
G05
X7.1457Y-3.0145G85X7.1457Y-3.0012
G05
X4.8071Y-3.0145G85X4.8071Y-3.0012
G05
X5.1378Y-3.0145G85X5.1378Y-3.0012
G05
T0
M30
