G04 #@! TF.GenerationSoftware,KiCad,Pcbnew,5.0.2+dfsg1-1*
G04 #@! TF.CreationDate,2020-08-14T01:20:14+02:00*
G04 #@! TF.ProjectId,badge,62616467-652e-46b6-9963-61645f706362,rev?*
G04 #@! TF.SameCoordinates,Original*
G04 #@! TF.FileFunction,Profile,NP*
%FSLAX46Y46*%
G04 Gerber Fmt 4.6, Leading zero omitted, Abs format (unit mm)*
G04 Created by KiCad (PCBNEW 5.0.2+dfsg1-1) date Fri 14 Aug 2020 01:20:14 AM CEST*
%MOMM*%
%LPD*%
G01*
G04 APERTURE LIST*
%ADD10C,0.150000*%
G04 APERTURE END LIST*
D10*
X90000000Y-80000000D02*
G75*
G02X100000000Y-70000000I10000000J0D01*
G01*
X129000000Y-70000000D02*
G75*
G02X139000000Y-80000000I0J-10000000D01*
G01*
X100000000Y-170000000D02*
G75*
G02X90000000Y-160000000I0J10000000D01*
G01*
X139000000Y-160000000D02*
G75*
G02X129000000Y-170000000I-10000000J0D01*
G01*
X139000000Y-80000000D02*
X139000000Y-90000000D01*
X100000000Y-70000000D02*
X129000000Y-70000000D01*
X90000000Y-160000000D02*
X90000000Y-80000000D01*
X100000000Y-170000000D02*
X129000000Y-170000000D01*
X139000000Y-150000000D02*
X139000000Y-160000000D01*
X139000000Y-140000000D02*
X139000000Y-100000000D01*
X120156854Y-80500000D02*
G75*
G03X120156854Y-80500000I-5656854J0D01*
G01*
X131000000Y-108500000D02*
X131000000Y-131500000D01*
X133000000Y-131500000D02*
X133000000Y-108500000D01*
X131000000Y-108500000D02*
G75*
G02X133000000Y-108500000I1000000J0D01*
G01*
X133000000Y-131500000D02*
G75*
G02X131000000Y-131500000I-1000000J0D01*
G01*
X184000000Y-131500000D02*
G75*
G02X182000000Y-131500000I-1000000J0D01*
G01*
X182000000Y-108500000D02*
G75*
G02X184000000Y-108500000I1000000J0D01*
G01*
X184000000Y-131500000D02*
X184000000Y-108500000D01*
X182000000Y-108500000D02*
X182000000Y-131500000D01*
X171156854Y-80500000D02*
G75*
G03X171156854Y-80500000I-5656854J0D01*
G01*
X141000000Y-140000000D02*
X141000000Y-100000000D01*
X141000000Y-150000000D02*
X141000000Y-160000000D01*
X151000000Y-170000000D02*
X180000000Y-170000000D01*
X190000000Y-160000000D02*
X190000000Y-80000000D01*
X151000000Y-70000000D02*
X180000000Y-70000000D01*
X141000000Y-80000000D02*
X141000000Y-90000000D01*
X190000000Y-160000000D02*
G75*
G02X180000000Y-170000000I-10000000J0D01*
G01*
X151000000Y-170000000D02*
G75*
G02X141000000Y-160000000I0J10000000D01*
G01*
X180000000Y-70000000D02*
G75*
G02X190000000Y-80000000I0J-10000000D01*
G01*
X141000000Y-80000000D02*
G75*
G02X151000000Y-70000000I10000000J0D01*
G01*
X139000000Y-150000000D02*
G75*
G02X141000000Y-150000000I1000000J0D01*
G01*
X141000000Y-140000000D02*
G75*
G02X139000000Y-140000000I-1000000J0D01*
G01*
X139000000Y-100000000D02*
G75*
G02X141000000Y-100000000I1000000J0D01*
G01*
X141000000Y-90000000D02*
G75*
G02X139000000Y-90000000I-1000000J0D01*
G01*
M02*
