G04 #@! TF.GenerationSoftware,KiCad,Pcbnew,5.0.2+dfsg1-1*
G04 #@! TF.CreationDate,2020-08-23T11:53:46+02:00*
G04 #@! TF.ProjectId,badge,62616467-652e-46b6-9963-61645f706362,rev?*
G04 #@! TF.SameCoordinates,Original*
G04 #@! TF.FileFunction,Legend,Top*
G04 #@! TF.FilePolarity,Positive*
%FSLAX46Y46*%
G04 Gerber Fmt 4.6, Leading zero omitted, Abs format (unit mm)*
G04 Created by KiCad (PCBNEW 5.0.2+dfsg1-1) date Sun 23 Aug 2020 11:53:46 AM CEST*
%MOMM*%
%LPD*%
G01*
G04 APERTURE LIST*
%ADD10C,0.200000*%
%ADD11C,0.120000*%
%ADD12C,0.150000*%
G04 APERTURE END LIST*
D10*
G04 #@! TO.C,U3*
X118000000Y-90000000D02*
X130000000Y-90000000D01*
X130000000Y-90000000D02*
X130000000Y-102000000D01*
X130000000Y-102000000D02*
X118000000Y-102000000D01*
X118000000Y-102000000D02*
X118000000Y-90000000D01*
G04 #@! TO.C,U5*
X99000000Y-90000000D02*
X111000000Y-90000000D01*
X111000000Y-90000000D02*
X111000000Y-102000000D01*
X111000000Y-102000000D02*
X99000000Y-102000000D01*
X99000000Y-102000000D02*
X99000000Y-90000000D01*
D11*
G04 #@! TO.C,C2*
X99110000Y-79197936D02*
X99110000Y-80402064D01*
X97290000Y-79197936D02*
X97290000Y-80402064D01*
G04 #@! TO.C,C1*
X100640000Y-162602064D02*
X100640000Y-161397936D01*
X103360000Y-162602064D02*
X103360000Y-161397936D01*
G04 #@! TO.C,C3*
X97400000Y-87985000D02*
X101460000Y-87985000D01*
X101460000Y-87985000D02*
X101460000Y-84815000D01*
X101460000Y-84815000D02*
X97400000Y-84815000D01*
D10*
G04 #@! TO.C,U4*
X109500000Y-143000000D02*
X119500000Y-143000000D01*
X119500000Y-143000000D02*
X119500000Y-153000000D01*
X119500000Y-153000000D02*
X109500000Y-153000000D01*
X109500000Y-153000000D02*
X109500000Y-143000000D01*
D11*
G04 #@! TO.C,C5*
X126090000Y-144589564D02*
X126090000Y-143385436D01*
X127910000Y-144589564D02*
X127910000Y-143385436D01*
G04 #@! TO.C,C4*
X126590000Y-162602064D02*
X126590000Y-161397936D01*
X128410000Y-162602064D02*
X128410000Y-161397936D01*
D10*
G04 #@! TO.C,U9*
X101500000Y-107000000D02*
X131000000Y-107000000D01*
X131000000Y-107000000D02*
X131000000Y-133000000D01*
X131000000Y-133000000D02*
X101500000Y-133000000D01*
X101500000Y-133000000D02*
X101500000Y-107000000D01*
X114500000Y-119500000D02*
X114500000Y-120500000D01*
X114000000Y-120000000D02*
X115000000Y-120000000D01*
D11*
G04 #@! TO.C,D3*
X96931917Y-165334306D02*
X94061064Y-162463452D01*
X94061064Y-162463452D02*
X92455931Y-164068585D01*
X92455931Y-164068585D02*
X95326785Y-166939438D01*
G04 #@! TO.C,D1*
X94135000Y-154600000D02*
X94135000Y-150540000D01*
X94135000Y-150540000D02*
X91865000Y-150540000D01*
X91865000Y-150540000D02*
X91865000Y-154600000D01*
G04 #@! TO.C,D5*
X94135000Y-160600000D02*
X94135000Y-156540000D01*
X94135000Y-156540000D02*
X91865000Y-156540000D01*
X91865000Y-156540000D02*
X91865000Y-160600000D01*
G04 #@! TO.C,D8*
X134328805Y-163066063D02*
X131457951Y-165936916D01*
X131457951Y-165936916D02*
X133063084Y-167542049D01*
X133063084Y-167542049D02*
X135933937Y-164671195D01*
G04 #@! TO.C,D6*
X94135000Y-112600000D02*
X94135000Y-108540000D01*
X94135000Y-108540000D02*
X91865000Y-108540000D01*
X91865000Y-108540000D02*
X91865000Y-112600000D01*
G04 #@! TO.C,D12*
X94135000Y-88600000D02*
X94135000Y-84540000D01*
X94135000Y-84540000D02*
X91865000Y-84540000D01*
X91865000Y-84540000D02*
X91865000Y-88600000D01*
G04 #@! TO.C,D10*
X94671195Y-76933937D02*
X97542049Y-74063084D01*
X97542049Y-74063084D02*
X95936916Y-72457951D01*
X95936916Y-72457951D02*
X93066063Y-75328805D01*
G04 #@! TO.C,D11*
X129087500Y-165865000D02*
X125027500Y-165865000D01*
X125027500Y-165865000D02*
X125027500Y-168135000D01*
X125027500Y-168135000D02*
X129087500Y-168135000D01*
G04 #@! TO.C,D9*
X94135000Y-94600000D02*
X94135000Y-90540000D01*
X94135000Y-90540000D02*
X91865000Y-90540000D01*
X91865000Y-90540000D02*
X91865000Y-94600000D01*
G04 #@! TO.C,D4*
X94135000Y-118600000D02*
X94135000Y-114540000D01*
X94135000Y-114540000D02*
X91865000Y-114540000D01*
X91865000Y-114540000D02*
X91865000Y-118600000D01*
G04 #@! TO.C,D2*
X94135000Y-148600000D02*
X94135000Y-144540000D01*
X94135000Y-144540000D02*
X91865000Y-144540000D01*
X91865000Y-144540000D02*
X91865000Y-148600000D01*
G04 #@! TO.C,D16*
X94135000Y-142600000D02*
X94135000Y-138540000D01*
X94135000Y-138540000D02*
X91865000Y-138540000D01*
X91865000Y-138540000D02*
X91865000Y-142600000D01*
G04 #@! TO.C,D24*
X109600000Y-165865000D02*
X105540000Y-165865000D01*
X105540000Y-165865000D02*
X105540000Y-168135000D01*
X105540000Y-168135000D02*
X109600000Y-168135000D01*
G04 #@! TO.C,D21*
X134865000Y-115362500D02*
X134865000Y-119422500D01*
X134865000Y-119422500D02*
X137135000Y-119422500D01*
X137135000Y-119422500D02*
X137135000Y-115362500D01*
G04 #@! TO.C,D15*
X134865000Y-151400000D02*
X134865000Y-155460000D01*
X134865000Y-155460000D02*
X137135000Y-155460000D01*
X137135000Y-155460000D02*
X137135000Y-151400000D01*
G04 #@! TO.C,D7*
X94135000Y-82600000D02*
X94135000Y-78540000D01*
X94135000Y-78540000D02*
X91865000Y-78540000D01*
X91865000Y-78540000D02*
X91865000Y-82600000D01*
G04 #@! TO.C,D22*
X134865000Y-103362500D02*
X134865000Y-107422500D01*
X134865000Y-107422500D02*
X137135000Y-107422500D01*
X137135000Y-107422500D02*
X137135000Y-103362500D01*
G04 #@! TO.C,D19*
X134865000Y-157400000D02*
X134865000Y-161460000D01*
X134865000Y-161460000D02*
X137135000Y-161460000D01*
X137135000Y-161460000D02*
X137135000Y-157400000D01*
G04 #@! TO.C,D25*
X94135000Y-106600000D02*
X94135000Y-102540000D01*
X94135000Y-102540000D02*
X91865000Y-102540000D01*
X91865000Y-102540000D02*
X91865000Y-106600000D01*
G04 #@! TO.C,D18*
X132066063Y-74671195D02*
X134936916Y-77542049D01*
X134936916Y-77542049D02*
X136542049Y-75936916D01*
X136542049Y-75936916D02*
X133671195Y-73066063D01*
G04 #@! TO.C,D27*
X134865000Y-109362500D02*
X134865000Y-113422500D01*
X134865000Y-113422500D02*
X137135000Y-113422500D01*
X137135000Y-113422500D02*
X137135000Y-109362500D01*
G04 #@! TO.C,D13*
X134865000Y-79362500D02*
X134865000Y-83422500D01*
X134865000Y-83422500D02*
X137135000Y-83422500D01*
X137135000Y-83422500D02*
X137135000Y-79362500D01*
G04 #@! TO.C,D26*
X134865000Y-121362500D02*
X134865000Y-125422500D01*
X134865000Y-125422500D02*
X137135000Y-125422500D01*
X137135000Y-125422500D02*
X137135000Y-121362500D01*
G04 #@! TO.C,D20*
X94135000Y-136600000D02*
X94135000Y-132540000D01*
X94135000Y-132540000D02*
X91865000Y-132540000D01*
X91865000Y-132540000D02*
X91865000Y-136600000D01*
G04 #@! TO.C,D32*
X134865000Y-127362500D02*
X134865000Y-131422500D01*
X134865000Y-131422500D02*
X137135000Y-131422500D01*
X137135000Y-131422500D02*
X137135000Y-127362500D01*
G04 #@! TO.C,D17*
X134865000Y-85362500D02*
X134865000Y-89422500D01*
X134865000Y-89422500D02*
X137135000Y-89422500D01*
X137135000Y-89422500D02*
X137135000Y-85362500D01*
G04 #@! TO.C,D34*
X112887500Y-74135000D02*
X116947500Y-74135000D01*
X116947500Y-74135000D02*
X116947500Y-71865000D01*
X116947500Y-71865000D02*
X112887500Y-71865000D01*
G04 #@! TO.C,D36*
X94135000Y-130600000D02*
X94135000Y-126540000D01*
X94135000Y-126540000D02*
X91865000Y-126540000D01*
X91865000Y-126540000D02*
X91865000Y-130600000D01*
G04 #@! TO.C,D33*
X134865000Y-91362500D02*
X134865000Y-95422500D01*
X134865000Y-95422500D02*
X137135000Y-95422500D01*
X137135000Y-95422500D02*
X137135000Y-91362500D01*
G04 #@! TO.C,D14*
X125887500Y-74135000D02*
X129947500Y-74135000D01*
X129947500Y-74135000D02*
X129947500Y-71865000D01*
X129947500Y-71865000D02*
X125887500Y-71865000D01*
G04 #@! TO.C,D29*
X103112500Y-165865000D02*
X99052500Y-165865000D01*
X99052500Y-165865000D02*
X99052500Y-168135000D01*
X99052500Y-168135000D02*
X103112500Y-168135000D01*
G04 #@! TO.C,D30*
X94135000Y-100600000D02*
X94135000Y-96540000D01*
X94135000Y-96540000D02*
X91865000Y-96540000D01*
X91865000Y-96540000D02*
X91865000Y-100600000D01*
G04 #@! TO.C,D23*
X99912500Y-74135000D02*
X103972500Y-74135000D01*
X103972500Y-74135000D02*
X103972500Y-71865000D01*
X103972500Y-71865000D02*
X99912500Y-71865000D01*
G04 #@! TO.C,D39*
X134865000Y-97362500D02*
X134865000Y-101422500D01*
X134865000Y-101422500D02*
X137135000Y-101422500D01*
X137135000Y-101422500D02*
X137135000Y-97362500D01*
G04 #@! TO.C,D41*
X116087500Y-165865000D02*
X112027500Y-165865000D01*
X112027500Y-165865000D02*
X112027500Y-168135000D01*
X112027500Y-168135000D02*
X116087500Y-168135000D01*
G04 #@! TO.C,D37*
X134865000Y-145362500D02*
X134865000Y-149422500D01*
X134865000Y-149422500D02*
X137135000Y-149422500D01*
X137135000Y-149422500D02*
X137135000Y-145362500D01*
G04 #@! TO.C,D35*
X122600000Y-165865000D02*
X118540000Y-165865000D01*
X118540000Y-165865000D02*
X118540000Y-168135000D01*
X118540000Y-168135000D02*
X122600000Y-168135000D01*
G04 #@! TO.C,D31*
X134865000Y-139362500D02*
X134865000Y-143422500D01*
X134865000Y-143422500D02*
X137135000Y-143422500D01*
X137135000Y-143422500D02*
X137135000Y-139362500D01*
G04 #@! TO.C,D38*
X134865000Y-133362500D02*
X134865000Y-137422500D01*
X134865000Y-137422500D02*
X137135000Y-137422500D01*
X137135000Y-137422500D02*
X137135000Y-133362500D01*
G04 #@! TO.C,R2*
X133100000Y-141359000D02*
X129040000Y-141359000D01*
X129040000Y-141359000D02*
X129040000Y-143629000D01*
X129040000Y-143629000D02*
X133100000Y-143629000D01*
G04 #@! TO.C,Q3*
X112740000Y-136470000D02*
X112740000Y-137400000D01*
X112740000Y-139630000D02*
X112740000Y-138700000D01*
X112740000Y-139630000D02*
X114900000Y-139630000D01*
X112740000Y-136470000D02*
X114200000Y-136470000D01*
G04 #@! TO.C,D40*
X119400000Y-74135000D02*
X123460000Y-74135000D01*
X123460000Y-74135000D02*
X123460000Y-71865000D01*
X123460000Y-71865000D02*
X119400000Y-71865000D01*
G04 #@! TO.C,D42*
X94135000Y-124600000D02*
X94135000Y-120540000D01*
X94135000Y-120540000D02*
X91865000Y-120540000D01*
X91865000Y-120540000D02*
X91865000Y-124600000D01*
G04 #@! TO.C,R4*
X129900000Y-146635000D02*
X133960000Y-146635000D01*
X133960000Y-146635000D02*
X133960000Y-144365000D01*
X133960000Y-144365000D02*
X129900000Y-144365000D01*
G04 #@! TO.C,R5*
X129887500Y-161635000D02*
X133947500Y-161635000D01*
X133947500Y-161635000D02*
X133947500Y-159365000D01*
X133947500Y-159365000D02*
X129887500Y-159365000D01*
G04 #@! TO.C,R8*
X129900000Y-152635000D02*
X133960000Y-152635000D01*
X133960000Y-152635000D02*
X133960000Y-150365000D01*
X133960000Y-150365000D02*
X129900000Y-150365000D01*
G04 #@! TO.C,R6*
X129900000Y-158635000D02*
X133960000Y-158635000D01*
X133960000Y-158635000D02*
X133960000Y-156365000D01*
X133960000Y-156365000D02*
X129900000Y-156365000D01*
G04 #@! TO.C,D28*
X106400000Y-74135000D02*
X110460000Y-74135000D01*
X110460000Y-74135000D02*
X110460000Y-71865000D01*
X110460000Y-71865000D02*
X106400000Y-71865000D01*
G04 #@! TO.C,R3*
X129912500Y-149635000D02*
X133972500Y-149635000D01*
X133972500Y-149635000D02*
X133972500Y-147365000D01*
X133972500Y-147365000D02*
X129912500Y-147365000D01*
G04 #@! TO.C,R10*
X95900000Y-161135000D02*
X99960000Y-161135000D01*
X99960000Y-161135000D02*
X99960000Y-158865000D01*
X99960000Y-158865000D02*
X95900000Y-158865000D01*
G04 #@! TO.C,R7*
X129900000Y-155635000D02*
X133960000Y-155635000D01*
X133960000Y-155635000D02*
X133960000Y-153365000D01*
X133960000Y-153365000D02*
X129900000Y-153365000D01*
G04 #@! TO.C,R9*
X95912500Y-152135000D02*
X99972500Y-152135000D01*
X99972500Y-152135000D02*
X99972500Y-149865000D01*
X99972500Y-149865000D02*
X95912500Y-149865000D01*
G04 #@! TO.C,R12*
X95900000Y-158135000D02*
X99960000Y-158135000D01*
X99960000Y-158135000D02*
X99960000Y-155865000D01*
X99960000Y-155865000D02*
X95900000Y-155865000D01*
G04 #@! TO.C,R11*
X95900000Y-146135000D02*
X99960000Y-146135000D01*
X99960000Y-146135000D02*
X99960000Y-143865000D01*
X99960000Y-143865000D02*
X95900000Y-143865000D01*
G04 #@! TO.C,R14*
X95900000Y-155135000D02*
X99960000Y-155135000D01*
X99960000Y-155135000D02*
X99960000Y-152865000D01*
X99960000Y-152865000D02*
X95900000Y-152865000D01*
G04 #@! TO.C,R13*
X95900000Y-143135000D02*
X99960000Y-143135000D01*
X99960000Y-143135000D02*
X99960000Y-140865000D01*
X99960000Y-140865000D02*
X95900000Y-140865000D01*
G04 #@! TO.C,R17*
X110600000Y-137865000D02*
X106540000Y-137865000D01*
X106540000Y-137865000D02*
X106540000Y-140135000D01*
X106540000Y-140135000D02*
X110600000Y-140135000D01*
G04 #@! TO.C,R15*
X95900000Y-149135000D02*
X99960000Y-149135000D01*
X99960000Y-149135000D02*
X99960000Y-146865000D01*
X99960000Y-146865000D02*
X95900000Y-146865000D01*
G04 #@! TO.C,R16*
X119612500Y-137865000D02*
X115552500Y-137865000D01*
X115552500Y-137865000D02*
X115552500Y-140135000D01*
X115552500Y-140135000D02*
X119612500Y-140135000D01*
G04 #@! TO.C,U2*
X107410000Y-77890000D02*
X106150000Y-77890000D01*
X100590000Y-77890000D02*
X101850000Y-77890000D01*
X107410000Y-81650000D02*
X107410000Y-77890000D01*
X100590000Y-83900000D02*
X100590000Y-77890000D01*
D10*
G04 #@! TO.C,U3*
X169000000Y-102000000D02*
X169000000Y-90000000D01*
X181000000Y-102000000D02*
X169000000Y-102000000D01*
X181000000Y-90000000D02*
X181000000Y-102000000D01*
X169000000Y-90000000D02*
X181000000Y-90000000D01*
G04 #@! TO.C,U5*
X150000000Y-102000000D02*
X150000000Y-90000000D01*
X162000000Y-102000000D02*
X150000000Y-102000000D01*
X162000000Y-90000000D02*
X162000000Y-102000000D01*
X150000000Y-90000000D02*
X162000000Y-90000000D01*
G04 #@! TO.C,U4*
X160500000Y-153000000D02*
X160500000Y-143000000D01*
X170500000Y-153000000D02*
X160500000Y-153000000D01*
X170500000Y-143000000D02*
X170500000Y-153000000D01*
X160500000Y-143000000D02*
X170500000Y-143000000D01*
G04 #@! TO.C,U9*
X165000000Y-120000000D02*
X166000000Y-120000000D01*
X165500000Y-119500000D02*
X165500000Y-120500000D01*
X152500000Y-133000000D02*
X152500000Y-107000000D01*
X182000000Y-133000000D02*
X152500000Y-133000000D01*
X182000000Y-107000000D02*
X182000000Y-133000000D01*
X152500000Y-107000000D02*
X182000000Y-107000000D01*
D11*
G04 #@! TO.C,C1*
X154360000Y-162602064D02*
X154360000Y-161397936D01*
X151640000Y-162602064D02*
X151640000Y-161397936D01*
G04 #@! TO.C,C3*
X152460000Y-84815000D02*
X148400000Y-84815000D01*
X152460000Y-87985000D02*
X152460000Y-84815000D01*
X148400000Y-87985000D02*
X152460000Y-87985000D01*
G04 #@! TO.C,C2*
X148290000Y-79197936D02*
X148290000Y-80402064D01*
X150110000Y-79197936D02*
X150110000Y-80402064D01*
G04 #@! TO.C,C4*
X179410000Y-162602064D02*
X179410000Y-161397936D01*
X177590000Y-162602064D02*
X177590000Y-161397936D01*
G04 #@! TO.C,C5*
X178910000Y-144589564D02*
X178910000Y-143385436D01*
X177090000Y-144589564D02*
X177090000Y-143385436D01*
G04 #@! TO.C,D1*
X142865000Y-150540000D02*
X142865000Y-154600000D01*
X145135000Y-150540000D02*
X142865000Y-150540000D01*
X145135000Y-154600000D02*
X145135000Y-150540000D01*
G04 #@! TO.C,D2*
X142865000Y-144540000D02*
X142865000Y-148600000D01*
X145135000Y-144540000D02*
X142865000Y-144540000D01*
X145135000Y-148600000D02*
X145135000Y-144540000D01*
G04 #@! TO.C,D3*
X143455931Y-164068585D02*
X146326785Y-166939438D01*
X145061064Y-162463452D02*
X143455931Y-164068585D01*
X147931917Y-165334306D02*
X145061064Y-162463452D01*
G04 #@! TO.C,D4*
X142865000Y-114540000D02*
X142865000Y-118600000D01*
X145135000Y-114540000D02*
X142865000Y-114540000D01*
X145135000Y-118600000D02*
X145135000Y-114540000D01*
G04 #@! TO.C,D5*
X142865000Y-156540000D02*
X142865000Y-160600000D01*
X145135000Y-156540000D02*
X142865000Y-156540000D01*
X145135000Y-160600000D02*
X145135000Y-156540000D01*
G04 #@! TO.C,D6*
X142865000Y-108540000D02*
X142865000Y-112600000D01*
X145135000Y-108540000D02*
X142865000Y-108540000D01*
X145135000Y-112600000D02*
X145135000Y-108540000D01*
G04 #@! TO.C,D7*
X142865000Y-78540000D02*
X142865000Y-82600000D01*
X145135000Y-78540000D02*
X142865000Y-78540000D01*
X145135000Y-82600000D02*
X145135000Y-78540000D01*
G04 #@! TO.C,D8*
X184063084Y-167542049D02*
X186933937Y-164671195D01*
X182457951Y-165936916D02*
X184063084Y-167542049D01*
X185328805Y-163066063D02*
X182457951Y-165936916D01*
G04 #@! TO.C,D9*
X142865000Y-90540000D02*
X142865000Y-94600000D01*
X145135000Y-90540000D02*
X142865000Y-90540000D01*
X145135000Y-94600000D02*
X145135000Y-90540000D01*
G04 #@! TO.C,D10*
X146936916Y-72457951D02*
X144066063Y-75328805D01*
X148542049Y-74063084D02*
X146936916Y-72457951D01*
X145671195Y-76933937D02*
X148542049Y-74063084D01*
G04 #@! TO.C,D11*
X176027500Y-168135000D02*
X180087500Y-168135000D01*
X176027500Y-165865000D02*
X176027500Y-168135000D01*
X180087500Y-165865000D02*
X176027500Y-165865000D01*
G04 #@! TO.C,D12*
X142865000Y-84540000D02*
X142865000Y-88600000D01*
X145135000Y-84540000D02*
X142865000Y-84540000D01*
X145135000Y-88600000D02*
X145135000Y-84540000D01*
G04 #@! TO.C,D13*
X188135000Y-83422500D02*
X188135000Y-79362500D01*
X185865000Y-83422500D02*
X188135000Y-83422500D01*
X185865000Y-79362500D02*
X185865000Y-83422500D01*
G04 #@! TO.C,D14*
X180947500Y-71865000D02*
X176887500Y-71865000D01*
X180947500Y-74135000D02*
X180947500Y-71865000D01*
X176887500Y-74135000D02*
X180947500Y-74135000D01*
G04 #@! TO.C,D15*
X188135000Y-155460000D02*
X188135000Y-151400000D01*
X185865000Y-155460000D02*
X188135000Y-155460000D01*
X185865000Y-151400000D02*
X185865000Y-155460000D01*
G04 #@! TO.C,D16*
X142865000Y-138540000D02*
X142865000Y-142600000D01*
X145135000Y-138540000D02*
X142865000Y-138540000D01*
X145135000Y-142600000D02*
X145135000Y-138540000D01*
G04 #@! TO.C,D17*
X188135000Y-89422500D02*
X188135000Y-85362500D01*
X185865000Y-89422500D02*
X188135000Y-89422500D01*
X185865000Y-85362500D02*
X185865000Y-89422500D01*
G04 #@! TO.C,D18*
X187542049Y-75936916D02*
X184671195Y-73066063D01*
X185936916Y-77542049D02*
X187542049Y-75936916D01*
X183066063Y-74671195D02*
X185936916Y-77542049D01*
G04 #@! TO.C,D19*
X188135000Y-161460000D02*
X188135000Y-157400000D01*
X185865000Y-161460000D02*
X188135000Y-161460000D01*
X185865000Y-157400000D02*
X185865000Y-161460000D01*
G04 #@! TO.C,D20*
X142865000Y-132540000D02*
X142865000Y-136600000D01*
X145135000Y-132540000D02*
X142865000Y-132540000D01*
X145135000Y-136600000D02*
X145135000Y-132540000D01*
G04 #@! TO.C,D21*
X188135000Y-119422500D02*
X188135000Y-115362500D01*
X185865000Y-119422500D02*
X188135000Y-119422500D01*
X185865000Y-115362500D02*
X185865000Y-119422500D01*
G04 #@! TO.C,D22*
X188135000Y-107422500D02*
X188135000Y-103362500D01*
X185865000Y-107422500D02*
X188135000Y-107422500D01*
X185865000Y-103362500D02*
X185865000Y-107422500D01*
G04 #@! TO.C,D23*
X154972500Y-71865000D02*
X150912500Y-71865000D01*
X154972500Y-74135000D02*
X154972500Y-71865000D01*
X150912500Y-74135000D02*
X154972500Y-74135000D01*
G04 #@! TO.C,D24*
X156540000Y-168135000D02*
X160600000Y-168135000D01*
X156540000Y-165865000D02*
X156540000Y-168135000D01*
X160600000Y-165865000D02*
X156540000Y-165865000D01*
G04 #@! TO.C,D25*
X142865000Y-102540000D02*
X142865000Y-106600000D01*
X145135000Y-102540000D02*
X142865000Y-102540000D01*
X145135000Y-106600000D02*
X145135000Y-102540000D01*
G04 #@! TO.C,D26*
X188135000Y-125422500D02*
X188135000Y-121362500D01*
X185865000Y-125422500D02*
X188135000Y-125422500D01*
X185865000Y-121362500D02*
X185865000Y-125422500D01*
G04 #@! TO.C,D27*
X188135000Y-113422500D02*
X188135000Y-109362500D01*
X185865000Y-113422500D02*
X188135000Y-113422500D01*
X185865000Y-109362500D02*
X185865000Y-113422500D01*
G04 #@! TO.C,D28*
X161460000Y-71865000D02*
X157400000Y-71865000D01*
X161460000Y-74135000D02*
X161460000Y-71865000D01*
X157400000Y-74135000D02*
X161460000Y-74135000D01*
G04 #@! TO.C,D29*
X150052500Y-168135000D02*
X154112500Y-168135000D01*
X150052500Y-165865000D02*
X150052500Y-168135000D01*
X154112500Y-165865000D02*
X150052500Y-165865000D01*
G04 #@! TO.C,D30*
X142865000Y-96540000D02*
X142865000Y-100600000D01*
X145135000Y-96540000D02*
X142865000Y-96540000D01*
X145135000Y-100600000D02*
X145135000Y-96540000D01*
G04 #@! TO.C,D31*
X188135000Y-143422500D02*
X188135000Y-139362500D01*
X185865000Y-143422500D02*
X188135000Y-143422500D01*
X185865000Y-139362500D02*
X185865000Y-143422500D01*
G04 #@! TO.C,D32*
X188135000Y-131422500D02*
X188135000Y-127362500D01*
X185865000Y-131422500D02*
X188135000Y-131422500D01*
X185865000Y-127362500D02*
X185865000Y-131422500D01*
G04 #@! TO.C,D33*
X188135000Y-95422500D02*
X188135000Y-91362500D01*
X185865000Y-95422500D02*
X188135000Y-95422500D01*
X185865000Y-91362500D02*
X185865000Y-95422500D01*
G04 #@! TO.C,D34*
X167947500Y-71865000D02*
X163887500Y-71865000D01*
X167947500Y-74135000D02*
X167947500Y-71865000D01*
X163887500Y-74135000D02*
X167947500Y-74135000D01*
G04 #@! TO.C,D35*
X169540000Y-168135000D02*
X173600000Y-168135000D01*
X169540000Y-165865000D02*
X169540000Y-168135000D01*
X173600000Y-165865000D02*
X169540000Y-165865000D01*
G04 #@! TO.C,D36*
X142865000Y-126540000D02*
X142865000Y-130600000D01*
X145135000Y-126540000D02*
X142865000Y-126540000D01*
X145135000Y-130600000D02*
X145135000Y-126540000D01*
G04 #@! TO.C,D37*
X188135000Y-149422500D02*
X188135000Y-145362500D01*
X185865000Y-149422500D02*
X188135000Y-149422500D01*
X185865000Y-145362500D02*
X185865000Y-149422500D01*
G04 #@! TO.C,D38*
X188135000Y-137422500D02*
X188135000Y-133362500D01*
X185865000Y-137422500D02*
X188135000Y-137422500D01*
X185865000Y-133362500D02*
X185865000Y-137422500D01*
G04 #@! TO.C,D39*
X188135000Y-101422500D02*
X188135000Y-97362500D01*
X185865000Y-101422500D02*
X188135000Y-101422500D01*
X185865000Y-97362500D02*
X185865000Y-101422500D01*
G04 #@! TO.C,D40*
X174460000Y-71865000D02*
X170400000Y-71865000D01*
X174460000Y-74135000D02*
X174460000Y-71865000D01*
X170400000Y-74135000D02*
X174460000Y-74135000D01*
G04 #@! TO.C,D41*
X163027500Y-168135000D02*
X167087500Y-168135000D01*
X163027500Y-165865000D02*
X163027500Y-168135000D01*
X167087500Y-165865000D02*
X163027500Y-165865000D01*
G04 #@! TO.C,D42*
X142865000Y-120540000D02*
X142865000Y-124600000D01*
X145135000Y-120540000D02*
X142865000Y-120540000D01*
X145135000Y-124600000D02*
X145135000Y-120540000D01*
G04 #@! TO.C,Q3*
X163740000Y-136470000D02*
X165200000Y-136470000D01*
X163740000Y-139630000D02*
X165900000Y-139630000D01*
X163740000Y-139630000D02*
X163740000Y-138700000D01*
X163740000Y-136470000D02*
X163740000Y-137400000D01*
G04 #@! TO.C,R2*
X180040000Y-143629000D02*
X184100000Y-143629000D01*
X180040000Y-141359000D02*
X180040000Y-143629000D01*
X184100000Y-141359000D02*
X180040000Y-141359000D01*
G04 #@! TO.C,R3*
X184972500Y-147365000D02*
X180912500Y-147365000D01*
X184972500Y-149635000D02*
X184972500Y-147365000D01*
X180912500Y-149635000D02*
X184972500Y-149635000D01*
G04 #@! TO.C,R4*
X184960000Y-144365000D02*
X180900000Y-144365000D01*
X184960000Y-146635000D02*
X184960000Y-144365000D01*
X180900000Y-146635000D02*
X184960000Y-146635000D01*
G04 #@! TO.C,R5*
X184947500Y-159365000D02*
X180887500Y-159365000D01*
X184947500Y-161635000D02*
X184947500Y-159365000D01*
X180887500Y-161635000D02*
X184947500Y-161635000D01*
G04 #@! TO.C,R6*
X184960000Y-156365000D02*
X180900000Y-156365000D01*
X184960000Y-158635000D02*
X184960000Y-156365000D01*
X180900000Y-158635000D02*
X184960000Y-158635000D01*
G04 #@! TO.C,R7*
X184960000Y-153365000D02*
X180900000Y-153365000D01*
X184960000Y-155635000D02*
X184960000Y-153365000D01*
X180900000Y-155635000D02*
X184960000Y-155635000D01*
G04 #@! TO.C,R8*
X184960000Y-150365000D02*
X180900000Y-150365000D01*
X184960000Y-152635000D02*
X184960000Y-150365000D01*
X180900000Y-152635000D02*
X184960000Y-152635000D01*
G04 #@! TO.C,R9*
X150972500Y-149865000D02*
X146912500Y-149865000D01*
X150972500Y-152135000D02*
X150972500Y-149865000D01*
X146912500Y-152135000D02*
X150972500Y-152135000D01*
G04 #@! TO.C,R10*
X150960000Y-158865000D02*
X146900000Y-158865000D01*
X150960000Y-161135000D02*
X150960000Y-158865000D01*
X146900000Y-161135000D02*
X150960000Y-161135000D01*
G04 #@! TO.C,R11*
X150960000Y-143865000D02*
X146900000Y-143865000D01*
X150960000Y-146135000D02*
X150960000Y-143865000D01*
X146900000Y-146135000D02*
X150960000Y-146135000D01*
G04 #@! TO.C,R12*
X150960000Y-155865000D02*
X146900000Y-155865000D01*
X150960000Y-158135000D02*
X150960000Y-155865000D01*
X146900000Y-158135000D02*
X150960000Y-158135000D01*
G04 #@! TO.C,R13*
X150960000Y-140865000D02*
X146900000Y-140865000D01*
X150960000Y-143135000D02*
X150960000Y-140865000D01*
X146900000Y-143135000D02*
X150960000Y-143135000D01*
G04 #@! TO.C,R14*
X150960000Y-152865000D02*
X146900000Y-152865000D01*
X150960000Y-155135000D02*
X150960000Y-152865000D01*
X146900000Y-155135000D02*
X150960000Y-155135000D01*
G04 #@! TO.C,R15*
X150960000Y-146865000D02*
X146900000Y-146865000D01*
X150960000Y-149135000D02*
X150960000Y-146865000D01*
X146900000Y-149135000D02*
X150960000Y-149135000D01*
G04 #@! TO.C,R16*
X166552500Y-140135000D02*
X170612500Y-140135000D01*
X166552500Y-137865000D02*
X166552500Y-140135000D01*
X170612500Y-137865000D02*
X166552500Y-137865000D01*
G04 #@! TO.C,R17*
X157540000Y-140135000D02*
X161600000Y-140135000D01*
X157540000Y-137865000D02*
X157540000Y-140135000D01*
X161600000Y-137865000D02*
X157540000Y-137865000D01*
G04 #@! TO.C,U2*
X151590000Y-83900000D02*
X151590000Y-77890000D01*
X158410000Y-81650000D02*
X158410000Y-77890000D01*
X151590000Y-77890000D02*
X152850000Y-77890000D01*
X158410000Y-77890000D02*
X157150000Y-77890000D01*
G04 #@! TO.C,U7*
D12*
X111852380Y-119861904D02*
X112661904Y-119861904D01*
X112757142Y-119814285D01*
X112804761Y-119766666D01*
X112852380Y-119671428D01*
X112852380Y-119480952D01*
X112804761Y-119385714D01*
X112757142Y-119338095D01*
X112661904Y-119290476D01*
X111852380Y-119290476D01*
X111852380Y-118909523D02*
X111852380Y-118242857D01*
X112852380Y-118671428D01*
G04 #@! TO.C,U3*
X123238095Y-95952380D02*
X123238095Y-96761904D01*
X123285714Y-96857142D01*
X123333333Y-96904761D01*
X123428571Y-96952380D01*
X123619047Y-96952380D01*
X123714285Y-96904761D01*
X123761904Y-96857142D01*
X123809523Y-96761904D01*
X123809523Y-95952380D01*
X124190476Y-95952380D02*
X124809523Y-95952380D01*
X124476190Y-96333333D01*
X124619047Y-96333333D01*
X124714285Y-96380952D01*
X124761904Y-96428571D01*
X124809523Y-96523809D01*
X124809523Y-96761904D01*
X124761904Y-96857142D01*
X124714285Y-96904761D01*
X124619047Y-96952380D01*
X124333333Y-96952380D01*
X124238095Y-96904761D01*
X124190476Y-96857142D01*
G04 #@! TO.C,U5*
X104238095Y-95952380D02*
X104238095Y-96761904D01*
X104285714Y-96857142D01*
X104333333Y-96904761D01*
X104428571Y-96952380D01*
X104619047Y-96952380D01*
X104714285Y-96904761D01*
X104761904Y-96857142D01*
X104809523Y-96761904D01*
X104809523Y-95952380D01*
X105761904Y-95952380D02*
X105285714Y-95952380D01*
X105238095Y-96428571D01*
X105285714Y-96380952D01*
X105380952Y-96333333D01*
X105619047Y-96333333D01*
X105714285Y-96380952D01*
X105761904Y-96428571D01*
X105809523Y-96523809D01*
X105809523Y-96761904D01*
X105761904Y-96857142D01*
X105714285Y-96904761D01*
X105619047Y-96952380D01*
X105380952Y-96952380D01*
X105285714Y-96904761D01*
X105238095Y-96857142D01*
G04 #@! TO.C,C2*
X100377142Y-79966666D02*
X100424761Y-80014285D01*
X100472380Y-80157142D01*
X100472380Y-80252380D01*
X100424761Y-80395238D01*
X100329523Y-80490476D01*
X100234285Y-80538095D01*
X100043809Y-80585714D01*
X99900952Y-80585714D01*
X99710476Y-80538095D01*
X99615238Y-80490476D01*
X99520000Y-80395238D01*
X99472380Y-80252380D01*
X99472380Y-80157142D01*
X99520000Y-80014285D01*
X99567619Y-79966666D01*
X99567619Y-79585714D02*
X99520000Y-79538095D01*
X99472380Y-79442857D01*
X99472380Y-79204761D01*
X99520000Y-79109523D01*
X99567619Y-79061904D01*
X99662857Y-79014285D01*
X99758095Y-79014285D01*
X99900952Y-79061904D01*
X100472380Y-79633333D01*
X100472380Y-79014285D01*
G04 #@! TO.C,j1*
X98285714Y-120476190D02*
X99142857Y-120476190D01*
X99238095Y-120523809D01*
X99285714Y-120619047D01*
X99285714Y-120666666D01*
X97952380Y-120476190D02*
X98000000Y-120523809D01*
X98047619Y-120476190D01*
X98000000Y-120428571D01*
X97952380Y-120476190D01*
X98047619Y-120476190D01*
X98952380Y-119476190D02*
X98952380Y-120047619D01*
X98952380Y-119761904D02*
X97952380Y-119761904D01*
X98095238Y-119857142D01*
X98190476Y-119952380D01*
X98238095Y-120047619D01*
G04 #@! TO.C,U1*
X125538095Y-75352380D02*
X125538095Y-76161904D01*
X125585714Y-76257142D01*
X125633333Y-76304761D01*
X125728571Y-76352380D01*
X125919047Y-76352380D01*
X126014285Y-76304761D01*
X126061904Y-76257142D01*
X126109523Y-76161904D01*
X126109523Y-75352380D01*
X127109523Y-76352380D02*
X126538095Y-76352380D01*
X126823809Y-76352380D02*
X126823809Y-75352380D01*
X126728571Y-75495238D01*
X126633333Y-75590476D01*
X126538095Y-75638095D01*
G04 #@! TO.C,B1*
X127548571Y-83004761D02*
X127596190Y-82861904D01*
X127643809Y-82814285D01*
X127739047Y-82766666D01*
X127881904Y-82766666D01*
X127977142Y-82814285D01*
X128024761Y-82861904D01*
X128072380Y-82957142D01*
X128072380Y-83338095D01*
X127072380Y-83338095D01*
X127072380Y-83004761D01*
X127120000Y-82909523D01*
X127167619Y-82861904D01*
X127262857Y-82814285D01*
X127358095Y-82814285D01*
X127453333Y-82861904D01*
X127500952Y-82909523D01*
X127548571Y-83004761D01*
X127548571Y-83338095D01*
X128072380Y-81814285D02*
X128072380Y-82385714D01*
X128072380Y-82100000D02*
X127072380Y-82100000D01*
X127215238Y-82195238D01*
X127310476Y-82290476D01*
X127358095Y-82385714D01*
G04 #@! TO.C,C1*
X100077142Y-162166666D02*
X100124761Y-162214285D01*
X100172380Y-162357142D01*
X100172380Y-162452380D01*
X100124761Y-162595238D01*
X100029523Y-162690476D01*
X99934285Y-162738095D01*
X99743809Y-162785714D01*
X99600952Y-162785714D01*
X99410476Y-162738095D01*
X99315238Y-162690476D01*
X99220000Y-162595238D01*
X99172380Y-162452380D01*
X99172380Y-162357142D01*
X99220000Y-162214285D01*
X99267619Y-162166666D01*
X100172380Y-161214285D02*
X100172380Y-161785714D01*
X100172380Y-161500000D02*
X99172380Y-161500000D01*
X99315238Y-161595238D01*
X99410476Y-161690476D01*
X99458095Y-161785714D01*
G04 #@! TO.C,C3*
X98833333Y-89037142D02*
X98785714Y-89084761D01*
X98642857Y-89132380D01*
X98547619Y-89132380D01*
X98404761Y-89084761D01*
X98309523Y-88989523D01*
X98261904Y-88894285D01*
X98214285Y-88703809D01*
X98214285Y-88560952D01*
X98261904Y-88370476D01*
X98309523Y-88275238D01*
X98404761Y-88180000D01*
X98547619Y-88132380D01*
X98642857Y-88132380D01*
X98785714Y-88180000D01*
X98833333Y-88227619D01*
X99166666Y-88132380D02*
X99785714Y-88132380D01*
X99452380Y-88513333D01*
X99595238Y-88513333D01*
X99690476Y-88560952D01*
X99738095Y-88608571D01*
X99785714Y-88703809D01*
X99785714Y-88941904D01*
X99738095Y-89037142D01*
X99690476Y-89084761D01*
X99595238Y-89132380D01*
X99309523Y-89132380D01*
X99214285Y-89084761D01*
X99166666Y-89037142D01*
G04 #@! TO.C,U4*
X113738095Y-147952380D02*
X113738095Y-148761904D01*
X113785714Y-148857142D01*
X113833333Y-148904761D01*
X113928571Y-148952380D01*
X114119047Y-148952380D01*
X114214285Y-148904761D01*
X114261904Y-148857142D01*
X114309523Y-148761904D01*
X114309523Y-147952380D01*
X115214285Y-148285714D02*
X115214285Y-148952380D01*
X114976190Y-147904761D02*
X114738095Y-148619047D01*
X115357142Y-148619047D01*
G04 #@! TO.C,C5*
X125537142Y-144154166D02*
X125584761Y-144201785D01*
X125632380Y-144344642D01*
X125632380Y-144439880D01*
X125584761Y-144582738D01*
X125489523Y-144677976D01*
X125394285Y-144725595D01*
X125203809Y-144773214D01*
X125060952Y-144773214D01*
X124870476Y-144725595D01*
X124775238Y-144677976D01*
X124680000Y-144582738D01*
X124632380Y-144439880D01*
X124632380Y-144344642D01*
X124680000Y-144201785D01*
X124727619Y-144154166D01*
X124632380Y-143249404D02*
X124632380Y-143725595D01*
X125108571Y-143773214D01*
X125060952Y-143725595D01*
X125013333Y-143630357D01*
X125013333Y-143392261D01*
X125060952Y-143297023D01*
X125108571Y-143249404D01*
X125203809Y-143201785D01*
X125441904Y-143201785D01*
X125537142Y-143249404D01*
X125584761Y-143297023D01*
X125632380Y-143392261D01*
X125632380Y-143630357D01*
X125584761Y-143725595D01*
X125537142Y-143773214D01*
G04 #@! TO.C,U8*
X107352380Y-119861904D02*
X108161904Y-119861904D01*
X108257142Y-119814285D01*
X108304761Y-119766666D01*
X108352380Y-119671428D01*
X108352380Y-119480952D01*
X108304761Y-119385714D01*
X108257142Y-119338095D01*
X108161904Y-119290476D01*
X107352380Y-119290476D01*
X107780952Y-118671428D02*
X107733333Y-118766666D01*
X107685714Y-118814285D01*
X107590476Y-118861904D01*
X107542857Y-118861904D01*
X107447619Y-118814285D01*
X107400000Y-118766666D01*
X107352380Y-118671428D01*
X107352380Y-118480952D01*
X107400000Y-118385714D01*
X107447619Y-118338095D01*
X107542857Y-118290476D01*
X107590476Y-118290476D01*
X107685714Y-118338095D01*
X107733333Y-118385714D01*
X107780952Y-118480952D01*
X107780952Y-118671428D01*
X107828571Y-118766666D01*
X107876190Y-118814285D01*
X107971428Y-118861904D01*
X108161904Y-118861904D01*
X108257142Y-118814285D01*
X108304761Y-118766666D01*
X108352380Y-118671428D01*
X108352380Y-118480952D01*
X108304761Y-118385714D01*
X108257142Y-118338095D01*
X108161904Y-118290476D01*
X107971428Y-118290476D01*
X107876190Y-118338095D01*
X107828571Y-118385714D01*
X107780952Y-118480952D01*
G04 #@! TO.C,C4*
X126037142Y-162166666D02*
X126084761Y-162214285D01*
X126132380Y-162357142D01*
X126132380Y-162452380D01*
X126084761Y-162595238D01*
X125989523Y-162690476D01*
X125894285Y-162738095D01*
X125703809Y-162785714D01*
X125560952Y-162785714D01*
X125370476Y-162738095D01*
X125275238Y-162690476D01*
X125180000Y-162595238D01*
X125132380Y-162452380D01*
X125132380Y-162357142D01*
X125180000Y-162214285D01*
X125227619Y-162166666D01*
X125465714Y-161309523D02*
X126132380Y-161309523D01*
X125084761Y-161547619D02*
X125799047Y-161785714D01*
X125799047Y-161166666D01*
G04 #@! TO.C,U9*
X119305670Y-114614703D02*
X120115194Y-114614703D01*
X120210432Y-114567084D01*
X120258051Y-114519465D01*
X120305670Y-114424227D01*
X120305670Y-114233751D01*
X120258051Y-114138513D01*
X120210432Y-114090894D01*
X120115194Y-114043275D01*
X119305670Y-114043275D01*
X120305670Y-113519465D02*
X120305670Y-113328989D01*
X120258051Y-113233751D01*
X120210432Y-113186132D01*
X120067575Y-113090894D01*
X119877099Y-113043275D01*
X119496147Y-113043275D01*
X119400909Y-113090894D01*
X119353290Y-113138513D01*
X119305670Y-113233751D01*
X119305670Y-113424227D01*
X119353290Y-113519465D01*
X119400909Y-113567084D01*
X119496147Y-113614703D01*
X119734242Y-113614703D01*
X119829480Y-113567084D01*
X119877099Y-113519465D01*
X119924718Y-113424227D01*
X119924718Y-113233751D01*
X119877099Y-113138513D01*
X119829480Y-113090894D01*
X119734242Y-113043275D01*
G04 #@! TO.C,D3*
X95443120Y-163516536D02*
X96150226Y-162809429D01*
X96318585Y-162977788D01*
X96385929Y-163112475D01*
X96385929Y-163247162D01*
X96352257Y-163348177D01*
X96251242Y-163516536D01*
X96150226Y-163617551D01*
X95981868Y-163718567D01*
X95880852Y-163752238D01*
X95746165Y-163752238D01*
X95611478Y-163684895D01*
X95443120Y-163516536D01*
X96789990Y-163449192D02*
X97227723Y-163886925D01*
X96722646Y-163920597D01*
X96823662Y-164021612D01*
X96857333Y-164122628D01*
X96857333Y-164189971D01*
X96823662Y-164290986D01*
X96655303Y-164459345D01*
X96554288Y-164493017D01*
X96486944Y-164493017D01*
X96385929Y-164459345D01*
X96183898Y-164257315D01*
X96150226Y-164156299D01*
X96150226Y-164088956D01*
G04 #@! TO.C,D1*
X95272380Y-153738095D02*
X94272380Y-153738095D01*
X94272380Y-153500000D01*
X94320000Y-153357142D01*
X94415238Y-153261904D01*
X94510476Y-153214285D01*
X94700952Y-153166666D01*
X94843809Y-153166666D01*
X95034285Y-153214285D01*
X95129523Y-153261904D01*
X95224761Y-153357142D01*
X95272380Y-153500000D01*
X95272380Y-153738095D01*
X95272380Y-152214285D02*
X95272380Y-152785714D01*
X95272380Y-152500000D02*
X94272380Y-152500000D01*
X94415238Y-152595238D01*
X94510476Y-152690476D01*
X94558095Y-152785714D01*
G04 #@! TO.C,D5*
X95272380Y-159738095D02*
X94272380Y-159738095D01*
X94272380Y-159500000D01*
X94320000Y-159357142D01*
X94415238Y-159261904D01*
X94510476Y-159214285D01*
X94700952Y-159166666D01*
X94843809Y-159166666D01*
X95034285Y-159214285D01*
X95129523Y-159261904D01*
X95224761Y-159357142D01*
X95272380Y-159500000D01*
X95272380Y-159738095D01*
X94272380Y-158261904D02*
X94272380Y-158738095D01*
X94748571Y-158785714D01*
X94700952Y-158738095D01*
X94653333Y-158642857D01*
X94653333Y-158404761D01*
X94700952Y-158309523D01*
X94748571Y-158261904D01*
X94843809Y-158214285D01*
X95081904Y-158214285D01*
X95177142Y-158261904D01*
X95224761Y-158309523D01*
X95272380Y-158404761D01*
X95272380Y-158642857D01*
X95224761Y-158738095D01*
X95177142Y-158785714D01*
G04 #@! TO.C,D8*
X132511035Y-164554859D02*
X131803928Y-163847753D01*
X131972287Y-163679394D01*
X132106974Y-163612050D01*
X132241661Y-163612050D01*
X132342676Y-163645722D01*
X132511035Y-163746737D01*
X132612050Y-163847753D01*
X132713065Y-164016111D01*
X132746737Y-164117127D01*
X132746737Y-164251814D01*
X132679394Y-164386501D01*
X132511035Y-164554859D01*
X132915096Y-163342676D02*
X132814081Y-163376348D01*
X132746737Y-163376348D01*
X132645722Y-163342676D01*
X132612050Y-163309004D01*
X132578378Y-163207989D01*
X132578378Y-163140646D01*
X132612050Y-163039630D01*
X132746737Y-162904943D01*
X132847753Y-162871272D01*
X132915096Y-162871272D01*
X133016111Y-162904943D01*
X133049783Y-162938615D01*
X133083455Y-163039630D01*
X133083455Y-163106974D01*
X133049783Y-163207989D01*
X132915096Y-163342676D01*
X132881424Y-163443691D01*
X132881424Y-163511035D01*
X132915096Y-163612050D01*
X133049783Y-163746737D01*
X133150798Y-163780409D01*
X133218142Y-163780409D01*
X133319157Y-163746737D01*
X133453844Y-163612050D01*
X133487516Y-163511035D01*
X133487516Y-163443691D01*
X133453844Y-163342676D01*
X133319157Y-163207989D01*
X133218142Y-163174317D01*
X133150798Y-163174317D01*
X133049783Y-163207989D01*
G04 #@! TO.C,D6*
X95272380Y-111738095D02*
X94272380Y-111738095D01*
X94272380Y-111500000D01*
X94320000Y-111357142D01*
X94415238Y-111261904D01*
X94510476Y-111214285D01*
X94700952Y-111166666D01*
X94843809Y-111166666D01*
X95034285Y-111214285D01*
X95129523Y-111261904D01*
X95224761Y-111357142D01*
X95272380Y-111500000D01*
X95272380Y-111738095D01*
X94272380Y-110309523D02*
X94272380Y-110500000D01*
X94320000Y-110595238D01*
X94367619Y-110642857D01*
X94510476Y-110738095D01*
X94700952Y-110785714D01*
X95081904Y-110785714D01*
X95177142Y-110738095D01*
X95224761Y-110690476D01*
X95272380Y-110595238D01*
X95272380Y-110404761D01*
X95224761Y-110309523D01*
X95177142Y-110261904D01*
X95081904Y-110214285D01*
X94843809Y-110214285D01*
X94748571Y-110261904D01*
X94700952Y-110309523D01*
X94653333Y-110404761D01*
X94653333Y-110595238D01*
X94700952Y-110690476D01*
X94748571Y-110738095D01*
X94843809Y-110785714D01*
G04 #@! TO.C,D12*
X95272380Y-88214285D02*
X94272380Y-88214285D01*
X94272380Y-87976190D01*
X94320000Y-87833333D01*
X94415238Y-87738095D01*
X94510476Y-87690476D01*
X94700952Y-87642857D01*
X94843809Y-87642857D01*
X95034285Y-87690476D01*
X95129523Y-87738095D01*
X95224761Y-87833333D01*
X95272380Y-87976190D01*
X95272380Y-88214285D01*
X95272380Y-86690476D02*
X95272380Y-87261904D01*
X95272380Y-86976190D02*
X94272380Y-86976190D01*
X94415238Y-87071428D01*
X94510476Y-87166666D01*
X94558095Y-87261904D01*
X94367619Y-86309523D02*
X94320000Y-86261904D01*
X94272380Y-86166666D01*
X94272380Y-85928571D01*
X94320000Y-85833333D01*
X94367619Y-85785714D01*
X94462857Y-85738095D01*
X94558095Y-85738095D01*
X94700952Y-85785714D01*
X95272380Y-86357142D01*
X95272380Y-85738095D01*
G04 #@! TO.C,D10*
X95748185Y-77465445D02*
X95041079Y-76758338D01*
X95209437Y-76589979D01*
X95344124Y-76522636D01*
X95478811Y-76522636D01*
X95579827Y-76556308D01*
X95748185Y-76657323D01*
X95849201Y-76758338D01*
X95950216Y-76926697D01*
X95983888Y-77027712D01*
X95983888Y-77162399D01*
X95916544Y-77297086D01*
X95748185Y-77465445D01*
X96825682Y-76387949D02*
X96421621Y-76792010D01*
X96623651Y-76589979D02*
X95916544Y-75882872D01*
X95950216Y-76051231D01*
X95950216Y-76185918D01*
X95916544Y-76286934D01*
X96556308Y-75243109D02*
X96623651Y-75175766D01*
X96724666Y-75142094D01*
X96792010Y-75142094D01*
X96893025Y-75175766D01*
X97061384Y-75276781D01*
X97229743Y-75445140D01*
X97330758Y-75613498D01*
X97364430Y-75714514D01*
X97364430Y-75781857D01*
X97330758Y-75882872D01*
X97263414Y-75950216D01*
X97162399Y-75983888D01*
X97095056Y-75983888D01*
X96994040Y-75950216D01*
X96825682Y-75849201D01*
X96657323Y-75680842D01*
X96556308Y-75512483D01*
X96522636Y-75411468D01*
X96522636Y-75344124D01*
X96556308Y-75243109D01*
G04 #@! TO.C,D11*
X126273214Y-165632380D02*
X126273214Y-164632380D01*
X126511309Y-164632380D01*
X126654166Y-164680000D01*
X126749404Y-164775238D01*
X126797023Y-164870476D01*
X126844642Y-165060952D01*
X126844642Y-165203809D01*
X126797023Y-165394285D01*
X126749404Y-165489523D01*
X126654166Y-165584761D01*
X126511309Y-165632380D01*
X126273214Y-165632380D01*
X127797023Y-165632380D02*
X127225595Y-165632380D01*
X127511309Y-165632380D02*
X127511309Y-164632380D01*
X127416071Y-164775238D01*
X127320833Y-164870476D01*
X127225595Y-164918095D01*
X128749404Y-165632380D02*
X128177976Y-165632380D01*
X128463690Y-165632380D02*
X128463690Y-164632380D01*
X128368452Y-164775238D01*
X128273214Y-164870476D01*
X128177976Y-164918095D01*
G04 #@! TO.C,D9*
X95272380Y-93738095D02*
X94272380Y-93738095D01*
X94272380Y-93500000D01*
X94320000Y-93357142D01*
X94415238Y-93261904D01*
X94510476Y-93214285D01*
X94700952Y-93166666D01*
X94843809Y-93166666D01*
X95034285Y-93214285D01*
X95129523Y-93261904D01*
X95224761Y-93357142D01*
X95272380Y-93500000D01*
X95272380Y-93738095D01*
X95272380Y-92690476D02*
X95272380Y-92500000D01*
X95224761Y-92404761D01*
X95177142Y-92357142D01*
X95034285Y-92261904D01*
X94843809Y-92214285D01*
X94462857Y-92214285D01*
X94367619Y-92261904D01*
X94320000Y-92309523D01*
X94272380Y-92404761D01*
X94272380Y-92595238D01*
X94320000Y-92690476D01*
X94367619Y-92738095D01*
X94462857Y-92785714D01*
X94700952Y-92785714D01*
X94796190Y-92738095D01*
X94843809Y-92690476D01*
X94891428Y-92595238D01*
X94891428Y-92404761D01*
X94843809Y-92309523D01*
X94796190Y-92261904D01*
X94700952Y-92214285D01*
G04 #@! TO.C,D4*
X95272380Y-117738095D02*
X94272380Y-117738095D01*
X94272380Y-117500000D01*
X94320000Y-117357142D01*
X94415238Y-117261904D01*
X94510476Y-117214285D01*
X94700952Y-117166666D01*
X94843809Y-117166666D01*
X95034285Y-117214285D01*
X95129523Y-117261904D01*
X95224761Y-117357142D01*
X95272380Y-117500000D01*
X95272380Y-117738095D01*
X94605714Y-116309523D02*
X95272380Y-116309523D01*
X94224761Y-116547619D02*
X94939047Y-116785714D01*
X94939047Y-116166666D01*
G04 #@! TO.C,D2*
X95272380Y-147738095D02*
X94272380Y-147738095D01*
X94272380Y-147500000D01*
X94320000Y-147357142D01*
X94415238Y-147261904D01*
X94510476Y-147214285D01*
X94700952Y-147166666D01*
X94843809Y-147166666D01*
X95034285Y-147214285D01*
X95129523Y-147261904D01*
X95224761Y-147357142D01*
X95272380Y-147500000D01*
X95272380Y-147738095D01*
X94367619Y-146785714D02*
X94320000Y-146738095D01*
X94272380Y-146642857D01*
X94272380Y-146404761D01*
X94320000Y-146309523D01*
X94367619Y-146261904D01*
X94462857Y-146214285D01*
X94558095Y-146214285D01*
X94700952Y-146261904D01*
X95272380Y-146833333D01*
X95272380Y-146214285D01*
G04 #@! TO.C,D16*
X95272380Y-142214285D02*
X94272380Y-142214285D01*
X94272380Y-141976190D01*
X94320000Y-141833333D01*
X94415238Y-141738095D01*
X94510476Y-141690476D01*
X94700952Y-141642857D01*
X94843809Y-141642857D01*
X95034285Y-141690476D01*
X95129523Y-141738095D01*
X95224761Y-141833333D01*
X95272380Y-141976190D01*
X95272380Y-142214285D01*
X95272380Y-140690476D02*
X95272380Y-141261904D01*
X95272380Y-140976190D02*
X94272380Y-140976190D01*
X94415238Y-141071428D01*
X94510476Y-141166666D01*
X94558095Y-141261904D01*
X94272380Y-139833333D02*
X94272380Y-140023809D01*
X94320000Y-140119047D01*
X94367619Y-140166666D01*
X94510476Y-140261904D01*
X94700952Y-140309523D01*
X95081904Y-140309523D01*
X95177142Y-140261904D01*
X95224761Y-140214285D01*
X95272380Y-140119047D01*
X95272380Y-139928571D01*
X95224761Y-139833333D01*
X95177142Y-139785714D01*
X95081904Y-139738095D01*
X94843809Y-139738095D01*
X94748571Y-139785714D01*
X94700952Y-139833333D01*
X94653333Y-139928571D01*
X94653333Y-140119047D01*
X94700952Y-140214285D01*
X94748571Y-140261904D01*
X94843809Y-140309523D01*
G04 #@! TO.C,D24*
X106785714Y-165632380D02*
X106785714Y-164632380D01*
X107023809Y-164632380D01*
X107166666Y-164680000D01*
X107261904Y-164775238D01*
X107309523Y-164870476D01*
X107357142Y-165060952D01*
X107357142Y-165203809D01*
X107309523Y-165394285D01*
X107261904Y-165489523D01*
X107166666Y-165584761D01*
X107023809Y-165632380D01*
X106785714Y-165632380D01*
X107738095Y-164727619D02*
X107785714Y-164680000D01*
X107880952Y-164632380D01*
X108119047Y-164632380D01*
X108214285Y-164680000D01*
X108261904Y-164727619D01*
X108309523Y-164822857D01*
X108309523Y-164918095D01*
X108261904Y-165060952D01*
X107690476Y-165632380D01*
X108309523Y-165632380D01*
X109166666Y-164965714D02*
X109166666Y-165632380D01*
X108928571Y-164584761D02*
X108690476Y-165299047D01*
X109309523Y-165299047D01*
G04 #@! TO.C,D21*
X134632380Y-118176785D02*
X133632380Y-118176785D01*
X133632380Y-117938690D01*
X133680000Y-117795833D01*
X133775238Y-117700595D01*
X133870476Y-117652976D01*
X134060952Y-117605357D01*
X134203809Y-117605357D01*
X134394285Y-117652976D01*
X134489523Y-117700595D01*
X134584761Y-117795833D01*
X134632380Y-117938690D01*
X134632380Y-118176785D01*
X133727619Y-117224404D02*
X133680000Y-117176785D01*
X133632380Y-117081547D01*
X133632380Y-116843452D01*
X133680000Y-116748214D01*
X133727619Y-116700595D01*
X133822857Y-116652976D01*
X133918095Y-116652976D01*
X134060952Y-116700595D01*
X134632380Y-117272023D01*
X134632380Y-116652976D01*
X134632380Y-115700595D02*
X134632380Y-116272023D01*
X134632380Y-115986309D02*
X133632380Y-115986309D01*
X133775238Y-116081547D01*
X133870476Y-116176785D01*
X133918095Y-116272023D01*
G04 #@! TO.C,D15*
X134632380Y-154214285D02*
X133632380Y-154214285D01*
X133632380Y-153976190D01*
X133680000Y-153833333D01*
X133775238Y-153738095D01*
X133870476Y-153690476D01*
X134060952Y-153642857D01*
X134203809Y-153642857D01*
X134394285Y-153690476D01*
X134489523Y-153738095D01*
X134584761Y-153833333D01*
X134632380Y-153976190D01*
X134632380Y-154214285D01*
X134632380Y-152690476D02*
X134632380Y-153261904D01*
X134632380Y-152976190D02*
X133632380Y-152976190D01*
X133775238Y-153071428D01*
X133870476Y-153166666D01*
X133918095Y-153261904D01*
X133632380Y-151785714D02*
X133632380Y-152261904D01*
X134108571Y-152309523D01*
X134060952Y-152261904D01*
X134013333Y-152166666D01*
X134013333Y-151928571D01*
X134060952Y-151833333D01*
X134108571Y-151785714D01*
X134203809Y-151738095D01*
X134441904Y-151738095D01*
X134537142Y-151785714D01*
X134584761Y-151833333D01*
X134632380Y-151928571D01*
X134632380Y-152166666D01*
X134584761Y-152261904D01*
X134537142Y-152309523D01*
G04 #@! TO.C,D7*
X95272380Y-81738095D02*
X94272380Y-81738095D01*
X94272380Y-81500000D01*
X94320000Y-81357142D01*
X94415238Y-81261904D01*
X94510476Y-81214285D01*
X94700952Y-81166666D01*
X94843809Y-81166666D01*
X95034285Y-81214285D01*
X95129523Y-81261904D01*
X95224761Y-81357142D01*
X95272380Y-81500000D01*
X95272380Y-81738095D01*
X94272380Y-80833333D02*
X94272380Y-80166666D01*
X95272380Y-80595238D01*
G04 #@! TO.C,D22*
X134632380Y-106176785D02*
X133632380Y-106176785D01*
X133632380Y-105938690D01*
X133680000Y-105795833D01*
X133775238Y-105700595D01*
X133870476Y-105652976D01*
X134060952Y-105605357D01*
X134203809Y-105605357D01*
X134394285Y-105652976D01*
X134489523Y-105700595D01*
X134584761Y-105795833D01*
X134632380Y-105938690D01*
X134632380Y-106176785D01*
X133727619Y-105224404D02*
X133680000Y-105176785D01*
X133632380Y-105081547D01*
X133632380Y-104843452D01*
X133680000Y-104748214D01*
X133727619Y-104700595D01*
X133822857Y-104652976D01*
X133918095Y-104652976D01*
X134060952Y-104700595D01*
X134632380Y-105272023D01*
X134632380Y-104652976D01*
X133727619Y-104272023D02*
X133680000Y-104224404D01*
X133632380Y-104129166D01*
X133632380Y-103891071D01*
X133680000Y-103795833D01*
X133727619Y-103748214D01*
X133822857Y-103700595D01*
X133918095Y-103700595D01*
X134060952Y-103748214D01*
X134632380Y-104319642D01*
X134632380Y-103700595D01*
G04 #@! TO.C,D19*
X134632380Y-160214285D02*
X133632380Y-160214285D01*
X133632380Y-159976190D01*
X133680000Y-159833333D01*
X133775238Y-159738095D01*
X133870476Y-159690476D01*
X134060952Y-159642857D01*
X134203809Y-159642857D01*
X134394285Y-159690476D01*
X134489523Y-159738095D01*
X134584761Y-159833333D01*
X134632380Y-159976190D01*
X134632380Y-160214285D01*
X134632380Y-158690476D02*
X134632380Y-159261904D01*
X134632380Y-158976190D02*
X133632380Y-158976190D01*
X133775238Y-159071428D01*
X133870476Y-159166666D01*
X133918095Y-159261904D01*
X134632380Y-158214285D02*
X134632380Y-158023809D01*
X134584761Y-157928571D01*
X134537142Y-157880952D01*
X134394285Y-157785714D01*
X134203809Y-157738095D01*
X133822857Y-157738095D01*
X133727619Y-157785714D01*
X133680000Y-157833333D01*
X133632380Y-157928571D01*
X133632380Y-158119047D01*
X133680000Y-158214285D01*
X133727619Y-158261904D01*
X133822857Y-158309523D01*
X134060952Y-158309523D01*
X134156190Y-158261904D01*
X134203809Y-158214285D01*
X134251428Y-158119047D01*
X134251428Y-157928571D01*
X134203809Y-157833333D01*
X134156190Y-157785714D01*
X134060952Y-157738095D01*
G04 #@! TO.C,D25*
X95272380Y-106214285D02*
X94272380Y-106214285D01*
X94272380Y-105976190D01*
X94320000Y-105833333D01*
X94415238Y-105738095D01*
X94510476Y-105690476D01*
X94700952Y-105642857D01*
X94843809Y-105642857D01*
X95034285Y-105690476D01*
X95129523Y-105738095D01*
X95224761Y-105833333D01*
X95272380Y-105976190D01*
X95272380Y-106214285D01*
X94367619Y-105261904D02*
X94320000Y-105214285D01*
X94272380Y-105119047D01*
X94272380Y-104880952D01*
X94320000Y-104785714D01*
X94367619Y-104738095D01*
X94462857Y-104690476D01*
X94558095Y-104690476D01*
X94700952Y-104738095D01*
X95272380Y-105309523D01*
X95272380Y-104690476D01*
X94272380Y-103785714D02*
X94272380Y-104261904D01*
X94748571Y-104309523D01*
X94700952Y-104261904D01*
X94653333Y-104166666D01*
X94653333Y-103928571D01*
X94700952Y-103833333D01*
X94748571Y-103785714D01*
X94843809Y-103738095D01*
X95081904Y-103738095D01*
X95177142Y-103785714D01*
X95224761Y-103833333D01*
X95272380Y-103928571D01*
X95272380Y-104166666D01*
X95224761Y-104261904D01*
X95177142Y-104309523D01*
G04 #@! TO.C,D18*
X131534554Y-75748185D02*
X132241661Y-75041079D01*
X132410020Y-75209437D01*
X132477363Y-75344124D01*
X132477363Y-75478811D01*
X132443691Y-75579827D01*
X132342676Y-75748185D01*
X132241661Y-75849201D01*
X132073302Y-75950216D01*
X131972287Y-75983888D01*
X131837600Y-75983888D01*
X131702913Y-75916544D01*
X131534554Y-75748185D01*
X132612050Y-76825682D02*
X132207989Y-76421621D01*
X132410020Y-76623651D02*
X133117127Y-75916544D01*
X132948768Y-75950216D01*
X132814081Y-75950216D01*
X132713066Y-75916544D01*
X133420172Y-76825682D02*
X133386501Y-76724666D01*
X133386501Y-76657323D01*
X133420172Y-76556308D01*
X133453844Y-76522636D01*
X133554859Y-76488964D01*
X133622203Y-76488964D01*
X133723218Y-76522636D01*
X133857905Y-76657323D01*
X133891577Y-76758338D01*
X133891577Y-76825682D01*
X133857905Y-76926697D01*
X133824233Y-76960369D01*
X133723218Y-76994040D01*
X133655875Y-76994040D01*
X133554859Y-76960369D01*
X133420172Y-76825682D01*
X133319157Y-76792010D01*
X133251814Y-76792010D01*
X133150798Y-76825682D01*
X133016111Y-76960369D01*
X132982440Y-77061384D01*
X132982440Y-77128727D01*
X133016111Y-77229743D01*
X133150798Y-77364430D01*
X133251814Y-77398101D01*
X133319157Y-77398101D01*
X133420172Y-77364430D01*
X133554859Y-77229743D01*
X133588531Y-77128727D01*
X133588531Y-77061384D01*
X133554859Y-76960369D01*
G04 #@! TO.C,D27*
X134632380Y-112176785D02*
X133632380Y-112176785D01*
X133632380Y-111938690D01*
X133680000Y-111795833D01*
X133775238Y-111700595D01*
X133870476Y-111652976D01*
X134060952Y-111605357D01*
X134203809Y-111605357D01*
X134394285Y-111652976D01*
X134489523Y-111700595D01*
X134584761Y-111795833D01*
X134632380Y-111938690D01*
X134632380Y-112176785D01*
X133727619Y-111224404D02*
X133680000Y-111176785D01*
X133632380Y-111081547D01*
X133632380Y-110843452D01*
X133680000Y-110748214D01*
X133727619Y-110700595D01*
X133822857Y-110652976D01*
X133918095Y-110652976D01*
X134060952Y-110700595D01*
X134632380Y-111272023D01*
X134632380Y-110652976D01*
X133632380Y-110319642D02*
X133632380Y-109652976D01*
X134632380Y-110081547D01*
G04 #@! TO.C,D13*
X134632380Y-82176785D02*
X133632380Y-82176785D01*
X133632380Y-81938690D01*
X133680000Y-81795833D01*
X133775238Y-81700595D01*
X133870476Y-81652976D01*
X134060952Y-81605357D01*
X134203809Y-81605357D01*
X134394285Y-81652976D01*
X134489523Y-81700595D01*
X134584761Y-81795833D01*
X134632380Y-81938690D01*
X134632380Y-82176785D01*
X134632380Y-80652976D02*
X134632380Y-81224404D01*
X134632380Y-80938690D02*
X133632380Y-80938690D01*
X133775238Y-81033928D01*
X133870476Y-81129166D01*
X133918095Y-81224404D01*
X133632380Y-80319642D02*
X133632380Y-79700595D01*
X134013333Y-80033928D01*
X134013333Y-79891071D01*
X134060952Y-79795833D01*
X134108571Y-79748214D01*
X134203809Y-79700595D01*
X134441904Y-79700595D01*
X134537142Y-79748214D01*
X134584761Y-79795833D01*
X134632380Y-79891071D01*
X134632380Y-80176785D01*
X134584761Y-80272023D01*
X134537142Y-80319642D01*
G04 #@! TO.C,D26*
X134632380Y-124176785D02*
X133632380Y-124176785D01*
X133632380Y-123938690D01*
X133680000Y-123795833D01*
X133775238Y-123700595D01*
X133870476Y-123652976D01*
X134060952Y-123605357D01*
X134203809Y-123605357D01*
X134394285Y-123652976D01*
X134489523Y-123700595D01*
X134584761Y-123795833D01*
X134632380Y-123938690D01*
X134632380Y-124176785D01*
X133727619Y-123224404D02*
X133680000Y-123176785D01*
X133632380Y-123081547D01*
X133632380Y-122843452D01*
X133680000Y-122748214D01*
X133727619Y-122700595D01*
X133822857Y-122652976D01*
X133918095Y-122652976D01*
X134060952Y-122700595D01*
X134632380Y-123272023D01*
X134632380Y-122652976D01*
X133632380Y-121795833D02*
X133632380Y-121986309D01*
X133680000Y-122081547D01*
X133727619Y-122129166D01*
X133870476Y-122224404D01*
X134060952Y-122272023D01*
X134441904Y-122272023D01*
X134537142Y-122224404D01*
X134584761Y-122176785D01*
X134632380Y-122081547D01*
X134632380Y-121891071D01*
X134584761Y-121795833D01*
X134537142Y-121748214D01*
X134441904Y-121700595D01*
X134203809Y-121700595D01*
X134108571Y-121748214D01*
X134060952Y-121795833D01*
X134013333Y-121891071D01*
X134013333Y-122081547D01*
X134060952Y-122176785D01*
X134108571Y-122224404D01*
X134203809Y-122272023D01*
G04 #@! TO.C,D20*
X95272380Y-136214285D02*
X94272380Y-136214285D01*
X94272380Y-135976190D01*
X94320000Y-135833333D01*
X94415238Y-135738095D01*
X94510476Y-135690476D01*
X94700952Y-135642857D01*
X94843809Y-135642857D01*
X95034285Y-135690476D01*
X95129523Y-135738095D01*
X95224761Y-135833333D01*
X95272380Y-135976190D01*
X95272380Y-136214285D01*
X94367619Y-135261904D02*
X94320000Y-135214285D01*
X94272380Y-135119047D01*
X94272380Y-134880952D01*
X94320000Y-134785714D01*
X94367619Y-134738095D01*
X94462857Y-134690476D01*
X94558095Y-134690476D01*
X94700952Y-134738095D01*
X95272380Y-135309523D01*
X95272380Y-134690476D01*
X94272380Y-134071428D02*
X94272380Y-133976190D01*
X94320000Y-133880952D01*
X94367619Y-133833333D01*
X94462857Y-133785714D01*
X94653333Y-133738095D01*
X94891428Y-133738095D01*
X95081904Y-133785714D01*
X95177142Y-133833333D01*
X95224761Y-133880952D01*
X95272380Y-133976190D01*
X95272380Y-134071428D01*
X95224761Y-134166666D01*
X95177142Y-134214285D01*
X95081904Y-134261904D01*
X94891428Y-134309523D01*
X94653333Y-134309523D01*
X94462857Y-134261904D01*
X94367619Y-134214285D01*
X94320000Y-134166666D01*
X94272380Y-134071428D01*
G04 #@! TO.C,D32*
X134632380Y-130176785D02*
X133632380Y-130176785D01*
X133632380Y-129938690D01*
X133680000Y-129795833D01*
X133775238Y-129700595D01*
X133870476Y-129652976D01*
X134060952Y-129605357D01*
X134203809Y-129605357D01*
X134394285Y-129652976D01*
X134489523Y-129700595D01*
X134584761Y-129795833D01*
X134632380Y-129938690D01*
X134632380Y-130176785D01*
X133632380Y-129272023D02*
X133632380Y-128652976D01*
X134013333Y-128986309D01*
X134013333Y-128843452D01*
X134060952Y-128748214D01*
X134108571Y-128700595D01*
X134203809Y-128652976D01*
X134441904Y-128652976D01*
X134537142Y-128700595D01*
X134584761Y-128748214D01*
X134632380Y-128843452D01*
X134632380Y-129129166D01*
X134584761Y-129224404D01*
X134537142Y-129272023D01*
X133727619Y-128272023D02*
X133680000Y-128224404D01*
X133632380Y-128129166D01*
X133632380Y-127891071D01*
X133680000Y-127795833D01*
X133727619Y-127748214D01*
X133822857Y-127700595D01*
X133918095Y-127700595D01*
X134060952Y-127748214D01*
X134632380Y-128319642D01*
X134632380Y-127700595D01*
G04 #@! TO.C,D17*
X134632380Y-88176785D02*
X133632380Y-88176785D01*
X133632380Y-87938690D01*
X133680000Y-87795833D01*
X133775238Y-87700595D01*
X133870476Y-87652976D01*
X134060952Y-87605357D01*
X134203809Y-87605357D01*
X134394285Y-87652976D01*
X134489523Y-87700595D01*
X134584761Y-87795833D01*
X134632380Y-87938690D01*
X134632380Y-88176785D01*
X134632380Y-86652976D02*
X134632380Y-87224404D01*
X134632380Y-86938690D02*
X133632380Y-86938690D01*
X133775238Y-87033928D01*
X133870476Y-87129166D01*
X133918095Y-87224404D01*
X133632380Y-86319642D02*
X133632380Y-85652976D01*
X134632380Y-86081547D01*
G04 #@! TO.C,D34*
X113273214Y-75272380D02*
X113273214Y-74272380D01*
X113511309Y-74272380D01*
X113654166Y-74320000D01*
X113749404Y-74415238D01*
X113797023Y-74510476D01*
X113844642Y-74700952D01*
X113844642Y-74843809D01*
X113797023Y-75034285D01*
X113749404Y-75129523D01*
X113654166Y-75224761D01*
X113511309Y-75272380D01*
X113273214Y-75272380D01*
X114177976Y-74272380D02*
X114797023Y-74272380D01*
X114463690Y-74653333D01*
X114606547Y-74653333D01*
X114701785Y-74700952D01*
X114749404Y-74748571D01*
X114797023Y-74843809D01*
X114797023Y-75081904D01*
X114749404Y-75177142D01*
X114701785Y-75224761D01*
X114606547Y-75272380D01*
X114320833Y-75272380D01*
X114225595Y-75224761D01*
X114177976Y-75177142D01*
X115654166Y-74605714D02*
X115654166Y-75272380D01*
X115416071Y-74224761D02*
X115177976Y-74939047D01*
X115797023Y-74939047D01*
G04 #@! TO.C,D36*
X95272380Y-130214285D02*
X94272380Y-130214285D01*
X94272380Y-129976190D01*
X94320000Y-129833333D01*
X94415238Y-129738095D01*
X94510476Y-129690476D01*
X94700952Y-129642857D01*
X94843809Y-129642857D01*
X95034285Y-129690476D01*
X95129523Y-129738095D01*
X95224761Y-129833333D01*
X95272380Y-129976190D01*
X95272380Y-130214285D01*
X94272380Y-129309523D02*
X94272380Y-128690476D01*
X94653333Y-129023809D01*
X94653333Y-128880952D01*
X94700952Y-128785714D01*
X94748571Y-128738095D01*
X94843809Y-128690476D01*
X95081904Y-128690476D01*
X95177142Y-128738095D01*
X95224761Y-128785714D01*
X95272380Y-128880952D01*
X95272380Y-129166666D01*
X95224761Y-129261904D01*
X95177142Y-129309523D01*
X94272380Y-127833333D02*
X94272380Y-128023809D01*
X94320000Y-128119047D01*
X94367619Y-128166666D01*
X94510476Y-128261904D01*
X94700952Y-128309523D01*
X95081904Y-128309523D01*
X95177142Y-128261904D01*
X95224761Y-128214285D01*
X95272380Y-128119047D01*
X95272380Y-127928571D01*
X95224761Y-127833333D01*
X95177142Y-127785714D01*
X95081904Y-127738095D01*
X94843809Y-127738095D01*
X94748571Y-127785714D01*
X94700952Y-127833333D01*
X94653333Y-127928571D01*
X94653333Y-128119047D01*
X94700952Y-128214285D01*
X94748571Y-128261904D01*
X94843809Y-128309523D01*
G04 #@! TO.C,D33*
X134632380Y-94176785D02*
X133632380Y-94176785D01*
X133632380Y-93938690D01*
X133680000Y-93795833D01*
X133775238Y-93700595D01*
X133870476Y-93652976D01*
X134060952Y-93605357D01*
X134203809Y-93605357D01*
X134394285Y-93652976D01*
X134489523Y-93700595D01*
X134584761Y-93795833D01*
X134632380Y-93938690D01*
X134632380Y-94176785D01*
X133632380Y-93272023D02*
X133632380Y-92652976D01*
X134013333Y-92986309D01*
X134013333Y-92843452D01*
X134060952Y-92748214D01*
X134108571Y-92700595D01*
X134203809Y-92652976D01*
X134441904Y-92652976D01*
X134537142Y-92700595D01*
X134584761Y-92748214D01*
X134632380Y-92843452D01*
X134632380Y-93129166D01*
X134584761Y-93224404D01*
X134537142Y-93272023D01*
X133632380Y-92319642D02*
X133632380Y-91700595D01*
X134013333Y-92033928D01*
X134013333Y-91891071D01*
X134060952Y-91795833D01*
X134108571Y-91748214D01*
X134203809Y-91700595D01*
X134441904Y-91700595D01*
X134537142Y-91748214D01*
X134584761Y-91795833D01*
X134632380Y-91891071D01*
X134632380Y-92176785D01*
X134584761Y-92272023D01*
X134537142Y-92319642D01*
G04 #@! TO.C,D14*
X126273214Y-75272380D02*
X126273214Y-74272380D01*
X126511309Y-74272380D01*
X126654166Y-74320000D01*
X126749404Y-74415238D01*
X126797023Y-74510476D01*
X126844642Y-74700952D01*
X126844642Y-74843809D01*
X126797023Y-75034285D01*
X126749404Y-75129523D01*
X126654166Y-75224761D01*
X126511309Y-75272380D01*
X126273214Y-75272380D01*
X127797023Y-75272380D02*
X127225595Y-75272380D01*
X127511309Y-75272380D02*
X127511309Y-74272380D01*
X127416071Y-74415238D01*
X127320833Y-74510476D01*
X127225595Y-74558095D01*
X128654166Y-74605714D02*
X128654166Y-75272380D01*
X128416071Y-74224761D02*
X128177976Y-74939047D01*
X128797023Y-74939047D01*
G04 #@! TO.C,D29*
X100298214Y-165632380D02*
X100298214Y-164632380D01*
X100536309Y-164632380D01*
X100679166Y-164680000D01*
X100774404Y-164775238D01*
X100822023Y-164870476D01*
X100869642Y-165060952D01*
X100869642Y-165203809D01*
X100822023Y-165394285D01*
X100774404Y-165489523D01*
X100679166Y-165584761D01*
X100536309Y-165632380D01*
X100298214Y-165632380D01*
X101250595Y-164727619D02*
X101298214Y-164680000D01*
X101393452Y-164632380D01*
X101631547Y-164632380D01*
X101726785Y-164680000D01*
X101774404Y-164727619D01*
X101822023Y-164822857D01*
X101822023Y-164918095D01*
X101774404Y-165060952D01*
X101202976Y-165632380D01*
X101822023Y-165632380D01*
X102298214Y-165632380D02*
X102488690Y-165632380D01*
X102583928Y-165584761D01*
X102631547Y-165537142D01*
X102726785Y-165394285D01*
X102774404Y-165203809D01*
X102774404Y-164822857D01*
X102726785Y-164727619D01*
X102679166Y-164680000D01*
X102583928Y-164632380D01*
X102393452Y-164632380D01*
X102298214Y-164680000D01*
X102250595Y-164727619D01*
X102202976Y-164822857D01*
X102202976Y-165060952D01*
X102250595Y-165156190D01*
X102298214Y-165203809D01*
X102393452Y-165251428D01*
X102583928Y-165251428D01*
X102679166Y-165203809D01*
X102726785Y-165156190D01*
X102774404Y-165060952D01*
G04 #@! TO.C,D30*
X95272380Y-100214285D02*
X94272380Y-100214285D01*
X94272380Y-99976190D01*
X94320000Y-99833333D01*
X94415238Y-99738095D01*
X94510476Y-99690476D01*
X94700952Y-99642857D01*
X94843809Y-99642857D01*
X95034285Y-99690476D01*
X95129523Y-99738095D01*
X95224761Y-99833333D01*
X95272380Y-99976190D01*
X95272380Y-100214285D01*
X94272380Y-99309523D02*
X94272380Y-98690476D01*
X94653333Y-99023809D01*
X94653333Y-98880952D01*
X94700952Y-98785714D01*
X94748571Y-98738095D01*
X94843809Y-98690476D01*
X95081904Y-98690476D01*
X95177142Y-98738095D01*
X95224761Y-98785714D01*
X95272380Y-98880952D01*
X95272380Y-99166666D01*
X95224761Y-99261904D01*
X95177142Y-99309523D01*
X94272380Y-98071428D02*
X94272380Y-97976190D01*
X94320000Y-97880952D01*
X94367619Y-97833333D01*
X94462857Y-97785714D01*
X94653333Y-97738095D01*
X94891428Y-97738095D01*
X95081904Y-97785714D01*
X95177142Y-97833333D01*
X95224761Y-97880952D01*
X95272380Y-97976190D01*
X95272380Y-98071428D01*
X95224761Y-98166666D01*
X95177142Y-98214285D01*
X95081904Y-98261904D01*
X94891428Y-98309523D01*
X94653333Y-98309523D01*
X94462857Y-98261904D01*
X94367619Y-98214285D01*
X94320000Y-98166666D01*
X94272380Y-98071428D01*
G04 #@! TO.C,D23*
X100298214Y-75272380D02*
X100298214Y-74272380D01*
X100536309Y-74272380D01*
X100679166Y-74320000D01*
X100774404Y-74415238D01*
X100822023Y-74510476D01*
X100869642Y-74700952D01*
X100869642Y-74843809D01*
X100822023Y-75034285D01*
X100774404Y-75129523D01*
X100679166Y-75224761D01*
X100536309Y-75272380D01*
X100298214Y-75272380D01*
X101250595Y-74367619D02*
X101298214Y-74320000D01*
X101393452Y-74272380D01*
X101631547Y-74272380D01*
X101726785Y-74320000D01*
X101774404Y-74367619D01*
X101822023Y-74462857D01*
X101822023Y-74558095D01*
X101774404Y-74700952D01*
X101202976Y-75272380D01*
X101822023Y-75272380D01*
X102155357Y-74272380D02*
X102774404Y-74272380D01*
X102441071Y-74653333D01*
X102583928Y-74653333D01*
X102679166Y-74700952D01*
X102726785Y-74748571D01*
X102774404Y-74843809D01*
X102774404Y-75081904D01*
X102726785Y-75177142D01*
X102679166Y-75224761D01*
X102583928Y-75272380D01*
X102298214Y-75272380D01*
X102202976Y-75224761D01*
X102155357Y-75177142D01*
G04 #@! TO.C,D39*
X134632380Y-100176785D02*
X133632380Y-100176785D01*
X133632380Y-99938690D01*
X133680000Y-99795833D01*
X133775238Y-99700595D01*
X133870476Y-99652976D01*
X134060952Y-99605357D01*
X134203809Y-99605357D01*
X134394285Y-99652976D01*
X134489523Y-99700595D01*
X134584761Y-99795833D01*
X134632380Y-99938690D01*
X134632380Y-100176785D01*
X133632380Y-99272023D02*
X133632380Y-98652976D01*
X134013333Y-98986309D01*
X134013333Y-98843452D01*
X134060952Y-98748214D01*
X134108571Y-98700595D01*
X134203809Y-98652976D01*
X134441904Y-98652976D01*
X134537142Y-98700595D01*
X134584761Y-98748214D01*
X134632380Y-98843452D01*
X134632380Y-99129166D01*
X134584761Y-99224404D01*
X134537142Y-99272023D01*
X134632380Y-98176785D02*
X134632380Y-97986309D01*
X134584761Y-97891071D01*
X134537142Y-97843452D01*
X134394285Y-97748214D01*
X134203809Y-97700595D01*
X133822857Y-97700595D01*
X133727619Y-97748214D01*
X133680000Y-97795833D01*
X133632380Y-97891071D01*
X133632380Y-98081547D01*
X133680000Y-98176785D01*
X133727619Y-98224404D01*
X133822857Y-98272023D01*
X134060952Y-98272023D01*
X134156190Y-98224404D01*
X134203809Y-98176785D01*
X134251428Y-98081547D01*
X134251428Y-97891071D01*
X134203809Y-97795833D01*
X134156190Y-97748214D01*
X134060952Y-97700595D01*
G04 #@! TO.C,D41*
X113273214Y-165632380D02*
X113273214Y-164632380D01*
X113511309Y-164632380D01*
X113654166Y-164680000D01*
X113749404Y-164775238D01*
X113797023Y-164870476D01*
X113844642Y-165060952D01*
X113844642Y-165203809D01*
X113797023Y-165394285D01*
X113749404Y-165489523D01*
X113654166Y-165584761D01*
X113511309Y-165632380D01*
X113273214Y-165632380D01*
X114701785Y-164965714D02*
X114701785Y-165632380D01*
X114463690Y-164584761D02*
X114225595Y-165299047D01*
X114844642Y-165299047D01*
X115749404Y-165632380D02*
X115177976Y-165632380D01*
X115463690Y-165632380D02*
X115463690Y-164632380D01*
X115368452Y-164775238D01*
X115273214Y-164870476D01*
X115177976Y-164918095D01*
G04 #@! TO.C,D37*
X134632380Y-148176785D02*
X133632380Y-148176785D01*
X133632380Y-147938690D01*
X133680000Y-147795833D01*
X133775238Y-147700595D01*
X133870476Y-147652976D01*
X134060952Y-147605357D01*
X134203809Y-147605357D01*
X134394285Y-147652976D01*
X134489523Y-147700595D01*
X134584761Y-147795833D01*
X134632380Y-147938690D01*
X134632380Y-148176785D01*
X133632380Y-147272023D02*
X133632380Y-146652976D01*
X134013333Y-146986309D01*
X134013333Y-146843452D01*
X134060952Y-146748214D01*
X134108571Y-146700595D01*
X134203809Y-146652976D01*
X134441904Y-146652976D01*
X134537142Y-146700595D01*
X134584761Y-146748214D01*
X134632380Y-146843452D01*
X134632380Y-147129166D01*
X134584761Y-147224404D01*
X134537142Y-147272023D01*
X133632380Y-146319642D02*
X133632380Y-145652976D01*
X134632380Y-146081547D01*
G04 #@! TO.C,D35*
X119785714Y-165632380D02*
X119785714Y-164632380D01*
X120023809Y-164632380D01*
X120166666Y-164680000D01*
X120261904Y-164775238D01*
X120309523Y-164870476D01*
X120357142Y-165060952D01*
X120357142Y-165203809D01*
X120309523Y-165394285D01*
X120261904Y-165489523D01*
X120166666Y-165584761D01*
X120023809Y-165632380D01*
X119785714Y-165632380D01*
X120690476Y-164632380D02*
X121309523Y-164632380D01*
X120976190Y-165013333D01*
X121119047Y-165013333D01*
X121214285Y-165060952D01*
X121261904Y-165108571D01*
X121309523Y-165203809D01*
X121309523Y-165441904D01*
X121261904Y-165537142D01*
X121214285Y-165584761D01*
X121119047Y-165632380D01*
X120833333Y-165632380D01*
X120738095Y-165584761D01*
X120690476Y-165537142D01*
X122214285Y-164632380D02*
X121738095Y-164632380D01*
X121690476Y-165108571D01*
X121738095Y-165060952D01*
X121833333Y-165013333D01*
X122071428Y-165013333D01*
X122166666Y-165060952D01*
X122214285Y-165108571D01*
X122261904Y-165203809D01*
X122261904Y-165441904D01*
X122214285Y-165537142D01*
X122166666Y-165584761D01*
X122071428Y-165632380D01*
X121833333Y-165632380D01*
X121738095Y-165584761D01*
X121690476Y-165537142D01*
G04 #@! TO.C,D31*
X134632380Y-142176785D02*
X133632380Y-142176785D01*
X133632380Y-141938690D01*
X133680000Y-141795833D01*
X133775238Y-141700595D01*
X133870476Y-141652976D01*
X134060952Y-141605357D01*
X134203809Y-141605357D01*
X134394285Y-141652976D01*
X134489523Y-141700595D01*
X134584761Y-141795833D01*
X134632380Y-141938690D01*
X134632380Y-142176785D01*
X133632380Y-141272023D02*
X133632380Y-140652976D01*
X134013333Y-140986309D01*
X134013333Y-140843452D01*
X134060952Y-140748214D01*
X134108571Y-140700595D01*
X134203809Y-140652976D01*
X134441904Y-140652976D01*
X134537142Y-140700595D01*
X134584761Y-140748214D01*
X134632380Y-140843452D01*
X134632380Y-141129166D01*
X134584761Y-141224404D01*
X134537142Y-141272023D01*
X134632380Y-139700595D02*
X134632380Y-140272023D01*
X134632380Y-139986309D02*
X133632380Y-139986309D01*
X133775238Y-140081547D01*
X133870476Y-140176785D01*
X133918095Y-140272023D01*
G04 #@! TO.C,D38*
X134632380Y-136176785D02*
X133632380Y-136176785D01*
X133632380Y-135938690D01*
X133680000Y-135795833D01*
X133775238Y-135700595D01*
X133870476Y-135652976D01*
X134060952Y-135605357D01*
X134203809Y-135605357D01*
X134394285Y-135652976D01*
X134489523Y-135700595D01*
X134584761Y-135795833D01*
X134632380Y-135938690D01*
X134632380Y-136176785D01*
X133632380Y-135272023D02*
X133632380Y-134652976D01*
X134013333Y-134986309D01*
X134013333Y-134843452D01*
X134060952Y-134748214D01*
X134108571Y-134700595D01*
X134203809Y-134652976D01*
X134441904Y-134652976D01*
X134537142Y-134700595D01*
X134584761Y-134748214D01*
X134632380Y-134843452D01*
X134632380Y-135129166D01*
X134584761Y-135224404D01*
X134537142Y-135272023D01*
X134060952Y-134081547D02*
X134013333Y-134176785D01*
X133965714Y-134224404D01*
X133870476Y-134272023D01*
X133822857Y-134272023D01*
X133727619Y-134224404D01*
X133680000Y-134176785D01*
X133632380Y-134081547D01*
X133632380Y-133891071D01*
X133680000Y-133795833D01*
X133727619Y-133748214D01*
X133822857Y-133700595D01*
X133870476Y-133700595D01*
X133965714Y-133748214D01*
X134013333Y-133795833D01*
X134060952Y-133891071D01*
X134060952Y-134081547D01*
X134108571Y-134176785D01*
X134156190Y-134224404D01*
X134251428Y-134272023D01*
X134441904Y-134272023D01*
X134537142Y-134224404D01*
X134584761Y-134176785D01*
X134632380Y-134081547D01*
X134632380Y-133891071D01*
X134584761Y-133795833D01*
X134537142Y-133748214D01*
X134441904Y-133700595D01*
X134251428Y-133700595D01*
X134156190Y-133748214D01*
X134108571Y-133795833D01*
X134060952Y-133891071D01*
G04 #@! TO.C,R2*
X131333333Y-141126380D02*
X131000000Y-140650190D01*
X130761904Y-141126380D02*
X130761904Y-140126380D01*
X131142857Y-140126380D01*
X131238095Y-140174000D01*
X131285714Y-140221619D01*
X131333333Y-140316857D01*
X131333333Y-140459714D01*
X131285714Y-140554952D01*
X131238095Y-140602571D01*
X131142857Y-140650190D01*
X130761904Y-140650190D01*
X131714285Y-140221619D02*
X131761904Y-140174000D01*
X131857142Y-140126380D01*
X132095238Y-140126380D01*
X132190476Y-140174000D01*
X132238095Y-140221619D01*
X132285714Y-140316857D01*
X132285714Y-140412095D01*
X132238095Y-140554952D01*
X131666666Y-141126380D01*
X132285714Y-141126380D01*
G04 #@! TO.C,Q3*
X113404761Y-141097619D02*
X113309523Y-141050000D01*
X113214285Y-140954761D01*
X113071428Y-140811904D01*
X112976190Y-140764285D01*
X112880952Y-140764285D01*
X112928571Y-141002380D02*
X112833333Y-140954761D01*
X112738095Y-140859523D01*
X112690476Y-140669047D01*
X112690476Y-140335714D01*
X112738095Y-140145238D01*
X112833333Y-140050000D01*
X112928571Y-140002380D01*
X113119047Y-140002380D01*
X113214285Y-140050000D01*
X113309523Y-140145238D01*
X113357142Y-140335714D01*
X113357142Y-140669047D01*
X113309523Y-140859523D01*
X113214285Y-140954761D01*
X113119047Y-141002380D01*
X112928571Y-141002380D01*
X113690476Y-140002380D02*
X114309523Y-140002380D01*
X113976190Y-140383333D01*
X114119047Y-140383333D01*
X114214285Y-140430952D01*
X114261904Y-140478571D01*
X114309523Y-140573809D01*
X114309523Y-140811904D01*
X114261904Y-140907142D01*
X114214285Y-140954761D01*
X114119047Y-141002380D01*
X113833333Y-141002380D01*
X113738095Y-140954761D01*
X113690476Y-140907142D01*
G04 #@! TO.C,D40*
X119785714Y-75272380D02*
X119785714Y-74272380D01*
X120023809Y-74272380D01*
X120166666Y-74320000D01*
X120261904Y-74415238D01*
X120309523Y-74510476D01*
X120357142Y-74700952D01*
X120357142Y-74843809D01*
X120309523Y-75034285D01*
X120261904Y-75129523D01*
X120166666Y-75224761D01*
X120023809Y-75272380D01*
X119785714Y-75272380D01*
X121214285Y-74605714D02*
X121214285Y-75272380D01*
X120976190Y-74224761D02*
X120738095Y-74939047D01*
X121357142Y-74939047D01*
X121928571Y-74272380D02*
X122023809Y-74272380D01*
X122119047Y-74320000D01*
X122166666Y-74367619D01*
X122214285Y-74462857D01*
X122261904Y-74653333D01*
X122261904Y-74891428D01*
X122214285Y-75081904D01*
X122166666Y-75177142D01*
X122119047Y-75224761D01*
X122023809Y-75272380D01*
X121928571Y-75272380D01*
X121833333Y-75224761D01*
X121785714Y-75177142D01*
X121738095Y-75081904D01*
X121690476Y-74891428D01*
X121690476Y-74653333D01*
X121738095Y-74462857D01*
X121785714Y-74367619D01*
X121833333Y-74320000D01*
X121928571Y-74272380D01*
G04 #@! TO.C,D42*
X95272380Y-124214285D02*
X94272380Y-124214285D01*
X94272380Y-123976190D01*
X94320000Y-123833333D01*
X94415238Y-123738095D01*
X94510476Y-123690476D01*
X94700952Y-123642857D01*
X94843809Y-123642857D01*
X95034285Y-123690476D01*
X95129523Y-123738095D01*
X95224761Y-123833333D01*
X95272380Y-123976190D01*
X95272380Y-124214285D01*
X94605714Y-122785714D02*
X95272380Y-122785714D01*
X94224761Y-123023809D02*
X94939047Y-123261904D01*
X94939047Y-122642857D01*
X94367619Y-122309523D02*
X94320000Y-122261904D01*
X94272380Y-122166666D01*
X94272380Y-121928571D01*
X94320000Y-121833333D01*
X94367619Y-121785714D01*
X94462857Y-121738095D01*
X94558095Y-121738095D01*
X94700952Y-121785714D01*
X95272380Y-122357142D01*
X95272380Y-121738095D01*
G04 #@! TO.C,R4*
X131333333Y-147772380D02*
X131000000Y-147296190D01*
X130761904Y-147772380D02*
X130761904Y-146772380D01*
X131142857Y-146772380D01*
X131238095Y-146820000D01*
X131285714Y-146867619D01*
X131333333Y-146962857D01*
X131333333Y-147105714D01*
X131285714Y-147200952D01*
X131238095Y-147248571D01*
X131142857Y-147296190D01*
X130761904Y-147296190D01*
X132190476Y-147105714D02*
X132190476Y-147772380D01*
X131952380Y-146724761D02*
X131714285Y-147439047D01*
X132333333Y-147439047D01*
G04 #@! TO.C,R5*
X131320833Y-162772380D02*
X130987500Y-162296190D01*
X130749404Y-162772380D02*
X130749404Y-161772380D01*
X131130357Y-161772380D01*
X131225595Y-161820000D01*
X131273214Y-161867619D01*
X131320833Y-161962857D01*
X131320833Y-162105714D01*
X131273214Y-162200952D01*
X131225595Y-162248571D01*
X131130357Y-162296190D01*
X130749404Y-162296190D01*
X132225595Y-161772380D02*
X131749404Y-161772380D01*
X131701785Y-162248571D01*
X131749404Y-162200952D01*
X131844642Y-162153333D01*
X132082738Y-162153333D01*
X132177976Y-162200952D01*
X132225595Y-162248571D01*
X132273214Y-162343809D01*
X132273214Y-162581904D01*
X132225595Y-162677142D01*
X132177976Y-162724761D01*
X132082738Y-162772380D01*
X131844642Y-162772380D01*
X131749404Y-162724761D01*
X131701785Y-162677142D01*
G04 #@! TO.C,R8*
X131333333Y-153772380D02*
X131000000Y-153296190D01*
X130761904Y-153772380D02*
X130761904Y-152772380D01*
X131142857Y-152772380D01*
X131238095Y-152820000D01*
X131285714Y-152867619D01*
X131333333Y-152962857D01*
X131333333Y-153105714D01*
X131285714Y-153200952D01*
X131238095Y-153248571D01*
X131142857Y-153296190D01*
X130761904Y-153296190D01*
X131904761Y-153200952D02*
X131809523Y-153153333D01*
X131761904Y-153105714D01*
X131714285Y-153010476D01*
X131714285Y-152962857D01*
X131761904Y-152867619D01*
X131809523Y-152820000D01*
X131904761Y-152772380D01*
X132095238Y-152772380D01*
X132190476Y-152820000D01*
X132238095Y-152867619D01*
X132285714Y-152962857D01*
X132285714Y-153010476D01*
X132238095Y-153105714D01*
X132190476Y-153153333D01*
X132095238Y-153200952D01*
X131904761Y-153200952D01*
X131809523Y-153248571D01*
X131761904Y-153296190D01*
X131714285Y-153391428D01*
X131714285Y-153581904D01*
X131761904Y-153677142D01*
X131809523Y-153724761D01*
X131904761Y-153772380D01*
X132095238Y-153772380D01*
X132190476Y-153724761D01*
X132238095Y-153677142D01*
X132285714Y-153581904D01*
X132285714Y-153391428D01*
X132238095Y-153296190D01*
X132190476Y-153248571D01*
X132095238Y-153200952D01*
G04 #@! TO.C,R6*
X131333333Y-159772380D02*
X131000000Y-159296190D01*
X130761904Y-159772380D02*
X130761904Y-158772380D01*
X131142857Y-158772380D01*
X131238095Y-158820000D01*
X131285714Y-158867619D01*
X131333333Y-158962857D01*
X131333333Y-159105714D01*
X131285714Y-159200952D01*
X131238095Y-159248571D01*
X131142857Y-159296190D01*
X130761904Y-159296190D01*
X132190476Y-158772380D02*
X132000000Y-158772380D01*
X131904761Y-158820000D01*
X131857142Y-158867619D01*
X131761904Y-159010476D01*
X131714285Y-159200952D01*
X131714285Y-159581904D01*
X131761904Y-159677142D01*
X131809523Y-159724761D01*
X131904761Y-159772380D01*
X132095238Y-159772380D01*
X132190476Y-159724761D01*
X132238095Y-159677142D01*
X132285714Y-159581904D01*
X132285714Y-159343809D01*
X132238095Y-159248571D01*
X132190476Y-159200952D01*
X132095238Y-159153333D01*
X131904761Y-159153333D01*
X131809523Y-159200952D01*
X131761904Y-159248571D01*
X131714285Y-159343809D01*
G04 #@! TO.C,D28*
X106785714Y-75272380D02*
X106785714Y-74272380D01*
X107023809Y-74272380D01*
X107166666Y-74320000D01*
X107261904Y-74415238D01*
X107309523Y-74510476D01*
X107357142Y-74700952D01*
X107357142Y-74843809D01*
X107309523Y-75034285D01*
X107261904Y-75129523D01*
X107166666Y-75224761D01*
X107023809Y-75272380D01*
X106785714Y-75272380D01*
X107738095Y-74367619D02*
X107785714Y-74320000D01*
X107880952Y-74272380D01*
X108119047Y-74272380D01*
X108214285Y-74320000D01*
X108261904Y-74367619D01*
X108309523Y-74462857D01*
X108309523Y-74558095D01*
X108261904Y-74700952D01*
X107690476Y-75272380D01*
X108309523Y-75272380D01*
X108880952Y-74700952D02*
X108785714Y-74653333D01*
X108738095Y-74605714D01*
X108690476Y-74510476D01*
X108690476Y-74462857D01*
X108738095Y-74367619D01*
X108785714Y-74320000D01*
X108880952Y-74272380D01*
X109071428Y-74272380D01*
X109166666Y-74320000D01*
X109214285Y-74367619D01*
X109261904Y-74462857D01*
X109261904Y-74510476D01*
X109214285Y-74605714D01*
X109166666Y-74653333D01*
X109071428Y-74700952D01*
X108880952Y-74700952D01*
X108785714Y-74748571D01*
X108738095Y-74796190D01*
X108690476Y-74891428D01*
X108690476Y-75081904D01*
X108738095Y-75177142D01*
X108785714Y-75224761D01*
X108880952Y-75272380D01*
X109071428Y-75272380D01*
X109166666Y-75224761D01*
X109214285Y-75177142D01*
X109261904Y-75081904D01*
X109261904Y-74891428D01*
X109214285Y-74796190D01*
X109166666Y-74748571D01*
X109071428Y-74700952D01*
G04 #@! TO.C,R3*
X131345833Y-150772380D02*
X131012500Y-150296190D01*
X130774404Y-150772380D02*
X130774404Y-149772380D01*
X131155357Y-149772380D01*
X131250595Y-149820000D01*
X131298214Y-149867619D01*
X131345833Y-149962857D01*
X131345833Y-150105714D01*
X131298214Y-150200952D01*
X131250595Y-150248571D01*
X131155357Y-150296190D01*
X130774404Y-150296190D01*
X131679166Y-149772380D02*
X132298214Y-149772380D01*
X131964880Y-150153333D01*
X132107738Y-150153333D01*
X132202976Y-150200952D01*
X132250595Y-150248571D01*
X132298214Y-150343809D01*
X132298214Y-150581904D01*
X132250595Y-150677142D01*
X132202976Y-150724761D01*
X132107738Y-150772380D01*
X131822023Y-150772380D01*
X131726785Y-150724761D01*
X131679166Y-150677142D01*
G04 #@! TO.C,R10*
X96857142Y-162272380D02*
X96523809Y-161796190D01*
X96285714Y-162272380D02*
X96285714Y-161272380D01*
X96666666Y-161272380D01*
X96761904Y-161320000D01*
X96809523Y-161367619D01*
X96857142Y-161462857D01*
X96857142Y-161605714D01*
X96809523Y-161700952D01*
X96761904Y-161748571D01*
X96666666Y-161796190D01*
X96285714Y-161796190D01*
X97809523Y-162272380D02*
X97238095Y-162272380D01*
X97523809Y-162272380D02*
X97523809Y-161272380D01*
X97428571Y-161415238D01*
X97333333Y-161510476D01*
X97238095Y-161558095D01*
X98428571Y-161272380D02*
X98523809Y-161272380D01*
X98619047Y-161320000D01*
X98666666Y-161367619D01*
X98714285Y-161462857D01*
X98761904Y-161653333D01*
X98761904Y-161891428D01*
X98714285Y-162081904D01*
X98666666Y-162177142D01*
X98619047Y-162224761D01*
X98523809Y-162272380D01*
X98428571Y-162272380D01*
X98333333Y-162224761D01*
X98285714Y-162177142D01*
X98238095Y-162081904D01*
X98190476Y-161891428D01*
X98190476Y-161653333D01*
X98238095Y-161462857D01*
X98285714Y-161367619D01*
X98333333Y-161320000D01*
X98428571Y-161272380D01*
G04 #@! TO.C,R7*
X131333333Y-156772380D02*
X131000000Y-156296190D01*
X130761904Y-156772380D02*
X130761904Y-155772380D01*
X131142857Y-155772380D01*
X131238095Y-155820000D01*
X131285714Y-155867619D01*
X131333333Y-155962857D01*
X131333333Y-156105714D01*
X131285714Y-156200952D01*
X131238095Y-156248571D01*
X131142857Y-156296190D01*
X130761904Y-156296190D01*
X131666666Y-155772380D02*
X132333333Y-155772380D01*
X131904761Y-156772380D01*
G04 #@! TO.C,R9*
X97345833Y-153272380D02*
X97012500Y-152796190D01*
X96774404Y-153272380D02*
X96774404Y-152272380D01*
X97155357Y-152272380D01*
X97250595Y-152320000D01*
X97298214Y-152367619D01*
X97345833Y-152462857D01*
X97345833Y-152605714D01*
X97298214Y-152700952D01*
X97250595Y-152748571D01*
X97155357Y-152796190D01*
X96774404Y-152796190D01*
X97822023Y-153272380D02*
X98012500Y-153272380D01*
X98107738Y-153224761D01*
X98155357Y-153177142D01*
X98250595Y-153034285D01*
X98298214Y-152843809D01*
X98298214Y-152462857D01*
X98250595Y-152367619D01*
X98202976Y-152320000D01*
X98107738Y-152272380D01*
X97917261Y-152272380D01*
X97822023Y-152320000D01*
X97774404Y-152367619D01*
X97726785Y-152462857D01*
X97726785Y-152700952D01*
X97774404Y-152796190D01*
X97822023Y-152843809D01*
X97917261Y-152891428D01*
X98107738Y-152891428D01*
X98202976Y-152843809D01*
X98250595Y-152796190D01*
X98298214Y-152700952D01*
G04 #@! TO.C,R12*
X96857142Y-159272380D02*
X96523809Y-158796190D01*
X96285714Y-159272380D02*
X96285714Y-158272380D01*
X96666666Y-158272380D01*
X96761904Y-158320000D01*
X96809523Y-158367619D01*
X96857142Y-158462857D01*
X96857142Y-158605714D01*
X96809523Y-158700952D01*
X96761904Y-158748571D01*
X96666666Y-158796190D01*
X96285714Y-158796190D01*
X97809523Y-159272380D02*
X97238095Y-159272380D01*
X97523809Y-159272380D02*
X97523809Y-158272380D01*
X97428571Y-158415238D01*
X97333333Y-158510476D01*
X97238095Y-158558095D01*
X98190476Y-158367619D02*
X98238095Y-158320000D01*
X98333333Y-158272380D01*
X98571428Y-158272380D01*
X98666666Y-158320000D01*
X98714285Y-158367619D01*
X98761904Y-158462857D01*
X98761904Y-158558095D01*
X98714285Y-158700952D01*
X98142857Y-159272380D01*
X98761904Y-159272380D01*
G04 #@! TO.C,R11*
X96857142Y-147272380D02*
X96523809Y-146796190D01*
X96285714Y-147272380D02*
X96285714Y-146272380D01*
X96666666Y-146272380D01*
X96761904Y-146320000D01*
X96809523Y-146367619D01*
X96857142Y-146462857D01*
X96857142Y-146605714D01*
X96809523Y-146700952D01*
X96761904Y-146748571D01*
X96666666Y-146796190D01*
X96285714Y-146796190D01*
X97809523Y-147272380D02*
X97238095Y-147272380D01*
X97523809Y-147272380D02*
X97523809Y-146272380D01*
X97428571Y-146415238D01*
X97333333Y-146510476D01*
X97238095Y-146558095D01*
X98761904Y-147272380D02*
X98190476Y-147272380D01*
X98476190Y-147272380D02*
X98476190Y-146272380D01*
X98380952Y-146415238D01*
X98285714Y-146510476D01*
X98190476Y-146558095D01*
G04 #@! TO.C,R14*
X96857142Y-156272380D02*
X96523809Y-155796190D01*
X96285714Y-156272380D02*
X96285714Y-155272380D01*
X96666666Y-155272380D01*
X96761904Y-155320000D01*
X96809523Y-155367619D01*
X96857142Y-155462857D01*
X96857142Y-155605714D01*
X96809523Y-155700952D01*
X96761904Y-155748571D01*
X96666666Y-155796190D01*
X96285714Y-155796190D01*
X97809523Y-156272380D02*
X97238095Y-156272380D01*
X97523809Y-156272380D02*
X97523809Y-155272380D01*
X97428571Y-155415238D01*
X97333333Y-155510476D01*
X97238095Y-155558095D01*
X98666666Y-155605714D02*
X98666666Y-156272380D01*
X98428571Y-155224761D02*
X98190476Y-155939047D01*
X98809523Y-155939047D01*
G04 #@! TO.C,R13*
X96857142Y-144272380D02*
X96523809Y-143796190D01*
X96285714Y-144272380D02*
X96285714Y-143272380D01*
X96666666Y-143272380D01*
X96761904Y-143320000D01*
X96809523Y-143367619D01*
X96857142Y-143462857D01*
X96857142Y-143605714D01*
X96809523Y-143700952D01*
X96761904Y-143748571D01*
X96666666Y-143796190D01*
X96285714Y-143796190D01*
X97809523Y-144272380D02*
X97238095Y-144272380D01*
X97523809Y-144272380D02*
X97523809Y-143272380D01*
X97428571Y-143415238D01*
X97333333Y-143510476D01*
X97238095Y-143558095D01*
X98142857Y-143272380D02*
X98761904Y-143272380D01*
X98428571Y-143653333D01*
X98571428Y-143653333D01*
X98666666Y-143700952D01*
X98714285Y-143748571D01*
X98761904Y-143843809D01*
X98761904Y-144081904D01*
X98714285Y-144177142D01*
X98666666Y-144224761D01*
X98571428Y-144272380D01*
X98285714Y-144272380D01*
X98190476Y-144224761D01*
X98142857Y-144177142D01*
G04 #@! TO.C,R17*
X108357142Y-137632380D02*
X108023809Y-137156190D01*
X107785714Y-137632380D02*
X107785714Y-136632380D01*
X108166666Y-136632380D01*
X108261904Y-136680000D01*
X108309523Y-136727619D01*
X108357142Y-136822857D01*
X108357142Y-136965714D01*
X108309523Y-137060952D01*
X108261904Y-137108571D01*
X108166666Y-137156190D01*
X107785714Y-137156190D01*
X109309523Y-137632380D02*
X108738095Y-137632380D01*
X109023809Y-137632380D02*
X109023809Y-136632380D01*
X108928571Y-136775238D01*
X108833333Y-136870476D01*
X108738095Y-136918095D01*
X109642857Y-136632380D02*
X110309523Y-136632380D01*
X109880952Y-137632380D01*
G04 #@! TO.C,R15*
X96857142Y-150272380D02*
X96523809Y-149796190D01*
X96285714Y-150272380D02*
X96285714Y-149272380D01*
X96666666Y-149272380D01*
X96761904Y-149320000D01*
X96809523Y-149367619D01*
X96857142Y-149462857D01*
X96857142Y-149605714D01*
X96809523Y-149700952D01*
X96761904Y-149748571D01*
X96666666Y-149796190D01*
X96285714Y-149796190D01*
X97809523Y-150272380D02*
X97238095Y-150272380D01*
X97523809Y-150272380D02*
X97523809Y-149272380D01*
X97428571Y-149415238D01*
X97333333Y-149510476D01*
X97238095Y-149558095D01*
X98714285Y-149272380D02*
X98238095Y-149272380D01*
X98190476Y-149748571D01*
X98238095Y-149700952D01*
X98333333Y-149653333D01*
X98571428Y-149653333D01*
X98666666Y-149700952D01*
X98714285Y-149748571D01*
X98761904Y-149843809D01*
X98761904Y-150081904D01*
X98714285Y-150177142D01*
X98666666Y-150224761D01*
X98571428Y-150272380D01*
X98333333Y-150272380D01*
X98238095Y-150224761D01*
X98190476Y-150177142D01*
G04 #@! TO.C,R16*
X117369642Y-137632380D02*
X117036309Y-137156190D01*
X116798214Y-137632380D02*
X116798214Y-136632380D01*
X117179166Y-136632380D01*
X117274404Y-136680000D01*
X117322023Y-136727619D01*
X117369642Y-136822857D01*
X117369642Y-136965714D01*
X117322023Y-137060952D01*
X117274404Y-137108571D01*
X117179166Y-137156190D01*
X116798214Y-137156190D01*
X118322023Y-137632380D02*
X117750595Y-137632380D01*
X118036309Y-137632380D02*
X118036309Y-136632380D01*
X117941071Y-136775238D01*
X117845833Y-136870476D01*
X117750595Y-136918095D01*
X119179166Y-136632380D02*
X118988690Y-136632380D01*
X118893452Y-136680000D01*
X118845833Y-136727619D01*
X118750595Y-136870476D01*
X118702976Y-137060952D01*
X118702976Y-137441904D01*
X118750595Y-137537142D01*
X118798214Y-137584761D01*
X118893452Y-137632380D01*
X119083928Y-137632380D01*
X119179166Y-137584761D01*
X119226785Y-137537142D01*
X119274404Y-137441904D01*
X119274404Y-137203809D01*
X119226785Y-137108571D01*
X119179166Y-137060952D01*
X119083928Y-137013333D01*
X118893452Y-137013333D01*
X118798214Y-137060952D01*
X118750595Y-137108571D01*
X118702976Y-137203809D01*
G04 #@! TO.C,U2*
X98952380Y-80561904D02*
X99761904Y-80561904D01*
X99857142Y-80514285D01*
X99904761Y-80466666D01*
X99952380Y-80371428D01*
X99952380Y-80180952D01*
X99904761Y-80085714D01*
X99857142Y-80038095D01*
X99761904Y-79990476D01*
X98952380Y-79990476D01*
X99047619Y-79561904D02*
X99000000Y-79514285D01*
X98952380Y-79419047D01*
X98952380Y-79180952D01*
X99000000Y-79085714D01*
X99047619Y-79038095D01*
X99142857Y-78990476D01*
X99238095Y-78990476D01*
X99380952Y-79038095D01*
X99952380Y-79609523D01*
X99952380Y-78990476D01*
G04 #@! TO.C,U7*
X162852380Y-119861904D02*
X163661904Y-119861904D01*
X163757142Y-119814285D01*
X163804761Y-119766666D01*
X163852380Y-119671428D01*
X163852380Y-119480952D01*
X163804761Y-119385714D01*
X163757142Y-119338095D01*
X163661904Y-119290476D01*
X162852380Y-119290476D01*
X162852380Y-118909523D02*
X162852380Y-118242857D01*
X163852380Y-118671428D01*
G04 #@! TO.C,U3*
X174238095Y-95952380D02*
X174238095Y-96761904D01*
X174285714Y-96857142D01*
X174333333Y-96904761D01*
X174428571Y-96952380D01*
X174619047Y-96952380D01*
X174714285Y-96904761D01*
X174761904Y-96857142D01*
X174809523Y-96761904D01*
X174809523Y-95952380D01*
X175190476Y-95952380D02*
X175809523Y-95952380D01*
X175476190Y-96333333D01*
X175619047Y-96333333D01*
X175714285Y-96380952D01*
X175761904Y-96428571D01*
X175809523Y-96523809D01*
X175809523Y-96761904D01*
X175761904Y-96857142D01*
X175714285Y-96904761D01*
X175619047Y-96952380D01*
X175333333Y-96952380D01*
X175238095Y-96904761D01*
X175190476Y-96857142D01*
G04 #@! TO.C,U5*
X155238095Y-95952380D02*
X155238095Y-96761904D01*
X155285714Y-96857142D01*
X155333333Y-96904761D01*
X155428571Y-96952380D01*
X155619047Y-96952380D01*
X155714285Y-96904761D01*
X155761904Y-96857142D01*
X155809523Y-96761904D01*
X155809523Y-95952380D01*
X156761904Y-95952380D02*
X156285714Y-95952380D01*
X156238095Y-96428571D01*
X156285714Y-96380952D01*
X156380952Y-96333333D01*
X156619047Y-96333333D01*
X156714285Y-96380952D01*
X156761904Y-96428571D01*
X156809523Y-96523809D01*
X156809523Y-96761904D01*
X156761904Y-96857142D01*
X156714285Y-96904761D01*
X156619047Y-96952380D01*
X156380952Y-96952380D01*
X156285714Y-96904761D01*
X156238095Y-96857142D01*
G04 #@! TO.C,j1*
X149285714Y-120476190D02*
X150142857Y-120476190D01*
X150238095Y-120523809D01*
X150285714Y-120619047D01*
X150285714Y-120666666D01*
X148952380Y-120476190D02*
X149000000Y-120523809D01*
X149047619Y-120476190D01*
X149000000Y-120428571D01*
X148952380Y-120476190D01*
X149047619Y-120476190D01*
X149952380Y-119476190D02*
X149952380Y-120047619D01*
X149952380Y-119761904D02*
X148952380Y-119761904D01*
X149095238Y-119857142D01*
X149190476Y-119952380D01*
X149238095Y-120047619D01*
G04 #@! TO.C,U4*
X164738095Y-147952380D02*
X164738095Y-148761904D01*
X164785714Y-148857142D01*
X164833333Y-148904761D01*
X164928571Y-148952380D01*
X165119047Y-148952380D01*
X165214285Y-148904761D01*
X165261904Y-148857142D01*
X165309523Y-148761904D01*
X165309523Y-147952380D01*
X166214285Y-148285714D02*
X166214285Y-148952380D01*
X165976190Y-147904761D02*
X165738095Y-148619047D01*
X166357142Y-148619047D01*
G04 #@! TO.C,B1*
X178548571Y-83004761D02*
X178596190Y-82861904D01*
X178643809Y-82814285D01*
X178739047Y-82766666D01*
X178881904Y-82766666D01*
X178977142Y-82814285D01*
X179024761Y-82861904D01*
X179072380Y-82957142D01*
X179072380Y-83338095D01*
X178072380Y-83338095D01*
X178072380Y-83004761D01*
X178120000Y-82909523D01*
X178167619Y-82861904D01*
X178262857Y-82814285D01*
X178358095Y-82814285D01*
X178453333Y-82861904D01*
X178500952Y-82909523D01*
X178548571Y-83004761D01*
X178548571Y-83338095D01*
X179072380Y-81814285D02*
X179072380Y-82385714D01*
X179072380Y-82100000D02*
X178072380Y-82100000D01*
X178215238Y-82195238D01*
X178310476Y-82290476D01*
X178358095Y-82385714D01*
G04 #@! TO.C,U1*
X176538095Y-75352380D02*
X176538095Y-76161904D01*
X176585714Y-76257142D01*
X176633333Y-76304761D01*
X176728571Y-76352380D01*
X176919047Y-76352380D01*
X177014285Y-76304761D01*
X177061904Y-76257142D01*
X177109523Y-76161904D01*
X177109523Y-75352380D01*
X178109523Y-76352380D02*
X177538095Y-76352380D01*
X177823809Y-76352380D02*
X177823809Y-75352380D01*
X177728571Y-75495238D01*
X177633333Y-75590476D01*
X177538095Y-75638095D01*
G04 #@! TO.C,U9*
X170305670Y-114614703D02*
X171115194Y-114614703D01*
X171210432Y-114567084D01*
X171258051Y-114519465D01*
X171305670Y-114424227D01*
X171305670Y-114233751D01*
X171258051Y-114138513D01*
X171210432Y-114090894D01*
X171115194Y-114043275D01*
X170305670Y-114043275D01*
X171305670Y-113519465D02*
X171305670Y-113328989D01*
X171258051Y-113233751D01*
X171210432Y-113186132D01*
X171067575Y-113090894D01*
X170877099Y-113043275D01*
X170496147Y-113043275D01*
X170400909Y-113090894D01*
X170353290Y-113138513D01*
X170305670Y-113233751D01*
X170305670Y-113424227D01*
X170353290Y-113519465D01*
X170400909Y-113567084D01*
X170496147Y-113614703D01*
X170734242Y-113614703D01*
X170829480Y-113567084D01*
X170877099Y-113519465D01*
X170924718Y-113424227D01*
X170924718Y-113233751D01*
X170877099Y-113138513D01*
X170829480Y-113090894D01*
X170734242Y-113043275D01*
G04 #@! TO.C,C1*
X151077142Y-162166666D02*
X151124761Y-162214285D01*
X151172380Y-162357142D01*
X151172380Y-162452380D01*
X151124761Y-162595238D01*
X151029523Y-162690476D01*
X150934285Y-162738095D01*
X150743809Y-162785714D01*
X150600952Y-162785714D01*
X150410476Y-162738095D01*
X150315238Y-162690476D01*
X150220000Y-162595238D01*
X150172380Y-162452380D01*
X150172380Y-162357142D01*
X150220000Y-162214285D01*
X150267619Y-162166666D01*
X151172380Y-161214285D02*
X151172380Y-161785714D01*
X151172380Y-161500000D02*
X150172380Y-161500000D01*
X150315238Y-161595238D01*
X150410476Y-161690476D01*
X150458095Y-161785714D01*
G04 #@! TO.C,C3*
X149833333Y-89037142D02*
X149785714Y-89084761D01*
X149642857Y-89132380D01*
X149547619Y-89132380D01*
X149404761Y-89084761D01*
X149309523Y-88989523D01*
X149261904Y-88894285D01*
X149214285Y-88703809D01*
X149214285Y-88560952D01*
X149261904Y-88370476D01*
X149309523Y-88275238D01*
X149404761Y-88180000D01*
X149547619Y-88132380D01*
X149642857Y-88132380D01*
X149785714Y-88180000D01*
X149833333Y-88227619D01*
X150166666Y-88132380D02*
X150785714Y-88132380D01*
X150452380Y-88513333D01*
X150595238Y-88513333D01*
X150690476Y-88560952D01*
X150738095Y-88608571D01*
X150785714Y-88703809D01*
X150785714Y-88941904D01*
X150738095Y-89037142D01*
X150690476Y-89084761D01*
X150595238Y-89132380D01*
X150309523Y-89132380D01*
X150214285Y-89084761D01*
X150166666Y-89037142D01*
G04 #@! TO.C,C2*
X151377142Y-79966666D02*
X151424761Y-80014285D01*
X151472380Y-80157142D01*
X151472380Y-80252380D01*
X151424761Y-80395238D01*
X151329523Y-80490476D01*
X151234285Y-80538095D01*
X151043809Y-80585714D01*
X150900952Y-80585714D01*
X150710476Y-80538095D01*
X150615238Y-80490476D01*
X150520000Y-80395238D01*
X150472380Y-80252380D01*
X150472380Y-80157142D01*
X150520000Y-80014285D01*
X150567619Y-79966666D01*
X150567619Y-79585714D02*
X150520000Y-79538095D01*
X150472380Y-79442857D01*
X150472380Y-79204761D01*
X150520000Y-79109523D01*
X150567619Y-79061904D01*
X150662857Y-79014285D01*
X150758095Y-79014285D01*
X150900952Y-79061904D01*
X151472380Y-79633333D01*
X151472380Y-79014285D01*
G04 #@! TO.C,C4*
X177037142Y-162166666D02*
X177084761Y-162214285D01*
X177132380Y-162357142D01*
X177132380Y-162452380D01*
X177084761Y-162595238D01*
X176989523Y-162690476D01*
X176894285Y-162738095D01*
X176703809Y-162785714D01*
X176560952Y-162785714D01*
X176370476Y-162738095D01*
X176275238Y-162690476D01*
X176180000Y-162595238D01*
X176132380Y-162452380D01*
X176132380Y-162357142D01*
X176180000Y-162214285D01*
X176227619Y-162166666D01*
X176465714Y-161309523D02*
X177132380Y-161309523D01*
X176084761Y-161547619D02*
X176799047Y-161785714D01*
X176799047Y-161166666D01*
G04 #@! TO.C,C5*
X176537142Y-144154166D02*
X176584761Y-144201785D01*
X176632380Y-144344642D01*
X176632380Y-144439880D01*
X176584761Y-144582738D01*
X176489523Y-144677976D01*
X176394285Y-144725595D01*
X176203809Y-144773214D01*
X176060952Y-144773214D01*
X175870476Y-144725595D01*
X175775238Y-144677976D01*
X175680000Y-144582738D01*
X175632380Y-144439880D01*
X175632380Y-144344642D01*
X175680000Y-144201785D01*
X175727619Y-144154166D01*
X175632380Y-143249404D02*
X175632380Y-143725595D01*
X176108571Y-143773214D01*
X176060952Y-143725595D01*
X176013333Y-143630357D01*
X176013333Y-143392261D01*
X176060952Y-143297023D01*
X176108571Y-143249404D01*
X176203809Y-143201785D01*
X176441904Y-143201785D01*
X176537142Y-143249404D01*
X176584761Y-143297023D01*
X176632380Y-143392261D01*
X176632380Y-143630357D01*
X176584761Y-143725595D01*
X176537142Y-143773214D01*
G04 #@! TO.C,D1*
X146272380Y-153738095D02*
X145272380Y-153738095D01*
X145272380Y-153500000D01*
X145320000Y-153357142D01*
X145415238Y-153261904D01*
X145510476Y-153214285D01*
X145700952Y-153166666D01*
X145843809Y-153166666D01*
X146034285Y-153214285D01*
X146129523Y-153261904D01*
X146224761Y-153357142D01*
X146272380Y-153500000D01*
X146272380Y-153738095D01*
X146272380Y-152214285D02*
X146272380Y-152785714D01*
X146272380Y-152500000D02*
X145272380Y-152500000D01*
X145415238Y-152595238D01*
X145510476Y-152690476D01*
X145558095Y-152785714D01*
G04 #@! TO.C,D2*
X146272380Y-147738095D02*
X145272380Y-147738095D01*
X145272380Y-147500000D01*
X145320000Y-147357142D01*
X145415238Y-147261904D01*
X145510476Y-147214285D01*
X145700952Y-147166666D01*
X145843809Y-147166666D01*
X146034285Y-147214285D01*
X146129523Y-147261904D01*
X146224761Y-147357142D01*
X146272380Y-147500000D01*
X146272380Y-147738095D01*
X145367619Y-146785714D02*
X145320000Y-146738095D01*
X145272380Y-146642857D01*
X145272380Y-146404761D01*
X145320000Y-146309523D01*
X145367619Y-146261904D01*
X145462857Y-146214285D01*
X145558095Y-146214285D01*
X145700952Y-146261904D01*
X146272380Y-146833333D01*
X146272380Y-146214285D01*
G04 #@! TO.C,D3*
X146443120Y-163516536D02*
X147150226Y-162809429D01*
X147318585Y-162977788D01*
X147385929Y-163112475D01*
X147385929Y-163247162D01*
X147352257Y-163348177D01*
X147251242Y-163516536D01*
X147150226Y-163617551D01*
X146981868Y-163718567D01*
X146880852Y-163752238D01*
X146746165Y-163752238D01*
X146611478Y-163684895D01*
X146443120Y-163516536D01*
X147789990Y-163449192D02*
X148227723Y-163886925D01*
X147722646Y-163920597D01*
X147823662Y-164021612D01*
X147857333Y-164122628D01*
X147857333Y-164189971D01*
X147823662Y-164290986D01*
X147655303Y-164459345D01*
X147554288Y-164493017D01*
X147486944Y-164493017D01*
X147385929Y-164459345D01*
X147183898Y-164257315D01*
X147150226Y-164156299D01*
X147150226Y-164088956D01*
G04 #@! TO.C,D4*
X146272380Y-117738095D02*
X145272380Y-117738095D01*
X145272380Y-117500000D01*
X145320000Y-117357142D01*
X145415238Y-117261904D01*
X145510476Y-117214285D01*
X145700952Y-117166666D01*
X145843809Y-117166666D01*
X146034285Y-117214285D01*
X146129523Y-117261904D01*
X146224761Y-117357142D01*
X146272380Y-117500000D01*
X146272380Y-117738095D01*
X145605714Y-116309523D02*
X146272380Y-116309523D01*
X145224761Y-116547619D02*
X145939047Y-116785714D01*
X145939047Y-116166666D01*
G04 #@! TO.C,D5*
X146272380Y-159738095D02*
X145272380Y-159738095D01*
X145272380Y-159500000D01*
X145320000Y-159357142D01*
X145415238Y-159261904D01*
X145510476Y-159214285D01*
X145700952Y-159166666D01*
X145843809Y-159166666D01*
X146034285Y-159214285D01*
X146129523Y-159261904D01*
X146224761Y-159357142D01*
X146272380Y-159500000D01*
X146272380Y-159738095D01*
X145272380Y-158261904D02*
X145272380Y-158738095D01*
X145748571Y-158785714D01*
X145700952Y-158738095D01*
X145653333Y-158642857D01*
X145653333Y-158404761D01*
X145700952Y-158309523D01*
X145748571Y-158261904D01*
X145843809Y-158214285D01*
X146081904Y-158214285D01*
X146177142Y-158261904D01*
X146224761Y-158309523D01*
X146272380Y-158404761D01*
X146272380Y-158642857D01*
X146224761Y-158738095D01*
X146177142Y-158785714D01*
G04 #@! TO.C,D6*
X146272380Y-111738095D02*
X145272380Y-111738095D01*
X145272380Y-111500000D01*
X145320000Y-111357142D01*
X145415238Y-111261904D01*
X145510476Y-111214285D01*
X145700952Y-111166666D01*
X145843809Y-111166666D01*
X146034285Y-111214285D01*
X146129523Y-111261904D01*
X146224761Y-111357142D01*
X146272380Y-111500000D01*
X146272380Y-111738095D01*
X145272380Y-110309523D02*
X145272380Y-110500000D01*
X145320000Y-110595238D01*
X145367619Y-110642857D01*
X145510476Y-110738095D01*
X145700952Y-110785714D01*
X146081904Y-110785714D01*
X146177142Y-110738095D01*
X146224761Y-110690476D01*
X146272380Y-110595238D01*
X146272380Y-110404761D01*
X146224761Y-110309523D01*
X146177142Y-110261904D01*
X146081904Y-110214285D01*
X145843809Y-110214285D01*
X145748571Y-110261904D01*
X145700952Y-110309523D01*
X145653333Y-110404761D01*
X145653333Y-110595238D01*
X145700952Y-110690476D01*
X145748571Y-110738095D01*
X145843809Y-110785714D01*
G04 #@! TO.C,D7*
X146272380Y-81738095D02*
X145272380Y-81738095D01*
X145272380Y-81500000D01*
X145320000Y-81357142D01*
X145415238Y-81261904D01*
X145510476Y-81214285D01*
X145700952Y-81166666D01*
X145843809Y-81166666D01*
X146034285Y-81214285D01*
X146129523Y-81261904D01*
X146224761Y-81357142D01*
X146272380Y-81500000D01*
X146272380Y-81738095D01*
X145272380Y-80833333D02*
X145272380Y-80166666D01*
X146272380Y-80595238D01*
G04 #@! TO.C,D8*
X183511035Y-164554859D02*
X182803928Y-163847753D01*
X182972287Y-163679394D01*
X183106974Y-163612050D01*
X183241661Y-163612050D01*
X183342676Y-163645722D01*
X183511035Y-163746737D01*
X183612050Y-163847753D01*
X183713066Y-164016111D01*
X183746737Y-164117127D01*
X183746737Y-164251814D01*
X183679394Y-164386501D01*
X183511035Y-164554859D01*
X183915096Y-163342676D02*
X183814081Y-163376348D01*
X183746737Y-163376348D01*
X183645722Y-163342676D01*
X183612050Y-163309004D01*
X183578378Y-163207989D01*
X183578378Y-163140646D01*
X183612050Y-163039630D01*
X183746737Y-162904943D01*
X183847753Y-162871272D01*
X183915096Y-162871272D01*
X184016111Y-162904943D01*
X184049783Y-162938615D01*
X184083455Y-163039630D01*
X184083455Y-163106974D01*
X184049783Y-163207989D01*
X183915096Y-163342676D01*
X183881424Y-163443691D01*
X183881424Y-163511035D01*
X183915096Y-163612050D01*
X184049783Y-163746737D01*
X184150798Y-163780409D01*
X184218142Y-163780409D01*
X184319157Y-163746737D01*
X184453844Y-163612050D01*
X184487516Y-163511035D01*
X184487516Y-163443691D01*
X184453844Y-163342676D01*
X184319157Y-163207989D01*
X184218142Y-163174317D01*
X184150798Y-163174317D01*
X184049783Y-163207989D01*
G04 #@! TO.C,D9*
X146272380Y-93738095D02*
X145272380Y-93738095D01*
X145272380Y-93500000D01*
X145320000Y-93357142D01*
X145415238Y-93261904D01*
X145510476Y-93214285D01*
X145700952Y-93166666D01*
X145843809Y-93166666D01*
X146034285Y-93214285D01*
X146129523Y-93261904D01*
X146224761Y-93357142D01*
X146272380Y-93500000D01*
X146272380Y-93738095D01*
X146272380Y-92690476D02*
X146272380Y-92500000D01*
X146224761Y-92404761D01*
X146177142Y-92357142D01*
X146034285Y-92261904D01*
X145843809Y-92214285D01*
X145462857Y-92214285D01*
X145367619Y-92261904D01*
X145320000Y-92309523D01*
X145272380Y-92404761D01*
X145272380Y-92595238D01*
X145320000Y-92690476D01*
X145367619Y-92738095D01*
X145462857Y-92785714D01*
X145700952Y-92785714D01*
X145796190Y-92738095D01*
X145843809Y-92690476D01*
X145891428Y-92595238D01*
X145891428Y-92404761D01*
X145843809Y-92309523D01*
X145796190Y-92261904D01*
X145700952Y-92214285D01*
G04 #@! TO.C,D10*
X146748185Y-77465445D02*
X146041079Y-76758338D01*
X146209437Y-76589979D01*
X146344124Y-76522636D01*
X146478811Y-76522636D01*
X146579827Y-76556308D01*
X146748185Y-76657323D01*
X146849201Y-76758338D01*
X146950216Y-76926697D01*
X146983888Y-77027712D01*
X146983888Y-77162399D01*
X146916544Y-77297086D01*
X146748185Y-77465445D01*
X147825682Y-76387949D02*
X147421621Y-76792010D01*
X147623651Y-76589979D02*
X146916544Y-75882872D01*
X146950216Y-76051231D01*
X146950216Y-76185918D01*
X146916544Y-76286934D01*
X147556308Y-75243109D02*
X147623651Y-75175766D01*
X147724666Y-75142094D01*
X147792010Y-75142094D01*
X147893025Y-75175766D01*
X148061384Y-75276781D01*
X148229743Y-75445140D01*
X148330758Y-75613498D01*
X148364430Y-75714514D01*
X148364430Y-75781857D01*
X148330758Y-75882872D01*
X148263414Y-75950216D01*
X148162399Y-75983888D01*
X148095056Y-75983888D01*
X147994040Y-75950216D01*
X147825682Y-75849201D01*
X147657323Y-75680842D01*
X147556308Y-75512483D01*
X147522636Y-75411468D01*
X147522636Y-75344124D01*
X147556308Y-75243109D01*
G04 #@! TO.C,D11*
X177273214Y-165632380D02*
X177273214Y-164632380D01*
X177511309Y-164632380D01*
X177654166Y-164680000D01*
X177749404Y-164775238D01*
X177797023Y-164870476D01*
X177844642Y-165060952D01*
X177844642Y-165203809D01*
X177797023Y-165394285D01*
X177749404Y-165489523D01*
X177654166Y-165584761D01*
X177511309Y-165632380D01*
X177273214Y-165632380D01*
X178797023Y-165632380D02*
X178225595Y-165632380D01*
X178511309Y-165632380D02*
X178511309Y-164632380D01*
X178416071Y-164775238D01*
X178320833Y-164870476D01*
X178225595Y-164918095D01*
X179749404Y-165632380D02*
X179177976Y-165632380D01*
X179463690Y-165632380D02*
X179463690Y-164632380D01*
X179368452Y-164775238D01*
X179273214Y-164870476D01*
X179177976Y-164918095D01*
G04 #@! TO.C,D12*
X146272380Y-88214285D02*
X145272380Y-88214285D01*
X145272380Y-87976190D01*
X145320000Y-87833333D01*
X145415238Y-87738095D01*
X145510476Y-87690476D01*
X145700952Y-87642857D01*
X145843809Y-87642857D01*
X146034285Y-87690476D01*
X146129523Y-87738095D01*
X146224761Y-87833333D01*
X146272380Y-87976190D01*
X146272380Y-88214285D01*
X146272380Y-86690476D02*
X146272380Y-87261904D01*
X146272380Y-86976190D02*
X145272380Y-86976190D01*
X145415238Y-87071428D01*
X145510476Y-87166666D01*
X145558095Y-87261904D01*
X145367619Y-86309523D02*
X145320000Y-86261904D01*
X145272380Y-86166666D01*
X145272380Y-85928571D01*
X145320000Y-85833333D01*
X145367619Y-85785714D01*
X145462857Y-85738095D01*
X145558095Y-85738095D01*
X145700952Y-85785714D01*
X146272380Y-86357142D01*
X146272380Y-85738095D01*
G04 #@! TO.C,D13*
X185632380Y-82176785D02*
X184632380Y-82176785D01*
X184632380Y-81938690D01*
X184680000Y-81795833D01*
X184775238Y-81700595D01*
X184870476Y-81652976D01*
X185060952Y-81605357D01*
X185203809Y-81605357D01*
X185394285Y-81652976D01*
X185489523Y-81700595D01*
X185584761Y-81795833D01*
X185632380Y-81938690D01*
X185632380Y-82176785D01*
X185632380Y-80652976D02*
X185632380Y-81224404D01*
X185632380Y-80938690D02*
X184632380Y-80938690D01*
X184775238Y-81033928D01*
X184870476Y-81129166D01*
X184918095Y-81224404D01*
X184632380Y-80319642D02*
X184632380Y-79700595D01*
X185013333Y-80033928D01*
X185013333Y-79891071D01*
X185060952Y-79795833D01*
X185108571Y-79748214D01*
X185203809Y-79700595D01*
X185441904Y-79700595D01*
X185537142Y-79748214D01*
X185584761Y-79795833D01*
X185632380Y-79891071D01*
X185632380Y-80176785D01*
X185584761Y-80272023D01*
X185537142Y-80319642D01*
G04 #@! TO.C,D14*
X177273214Y-75272380D02*
X177273214Y-74272380D01*
X177511309Y-74272380D01*
X177654166Y-74320000D01*
X177749404Y-74415238D01*
X177797023Y-74510476D01*
X177844642Y-74700952D01*
X177844642Y-74843809D01*
X177797023Y-75034285D01*
X177749404Y-75129523D01*
X177654166Y-75224761D01*
X177511309Y-75272380D01*
X177273214Y-75272380D01*
X178797023Y-75272380D02*
X178225595Y-75272380D01*
X178511309Y-75272380D02*
X178511309Y-74272380D01*
X178416071Y-74415238D01*
X178320833Y-74510476D01*
X178225595Y-74558095D01*
X179654166Y-74605714D02*
X179654166Y-75272380D01*
X179416071Y-74224761D02*
X179177976Y-74939047D01*
X179797023Y-74939047D01*
G04 #@! TO.C,D15*
X185632380Y-154214285D02*
X184632380Y-154214285D01*
X184632380Y-153976190D01*
X184680000Y-153833333D01*
X184775238Y-153738095D01*
X184870476Y-153690476D01*
X185060952Y-153642857D01*
X185203809Y-153642857D01*
X185394285Y-153690476D01*
X185489523Y-153738095D01*
X185584761Y-153833333D01*
X185632380Y-153976190D01*
X185632380Y-154214285D01*
X185632380Y-152690476D02*
X185632380Y-153261904D01*
X185632380Y-152976190D02*
X184632380Y-152976190D01*
X184775238Y-153071428D01*
X184870476Y-153166666D01*
X184918095Y-153261904D01*
X184632380Y-151785714D02*
X184632380Y-152261904D01*
X185108571Y-152309523D01*
X185060952Y-152261904D01*
X185013333Y-152166666D01*
X185013333Y-151928571D01*
X185060952Y-151833333D01*
X185108571Y-151785714D01*
X185203809Y-151738095D01*
X185441904Y-151738095D01*
X185537142Y-151785714D01*
X185584761Y-151833333D01*
X185632380Y-151928571D01*
X185632380Y-152166666D01*
X185584761Y-152261904D01*
X185537142Y-152309523D01*
G04 #@! TO.C,D16*
X146272380Y-142214285D02*
X145272380Y-142214285D01*
X145272380Y-141976190D01*
X145320000Y-141833333D01*
X145415238Y-141738095D01*
X145510476Y-141690476D01*
X145700952Y-141642857D01*
X145843809Y-141642857D01*
X146034285Y-141690476D01*
X146129523Y-141738095D01*
X146224761Y-141833333D01*
X146272380Y-141976190D01*
X146272380Y-142214285D01*
X146272380Y-140690476D02*
X146272380Y-141261904D01*
X146272380Y-140976190D02*
X145272380Y-140976190D01*
X145415238Y-141071428D01*
X145510476Y-141166666D01*
X145558095Y-141261904D01*
X145272380Y-139833333D02*
X145272380Y-140023809D01*
X145320000Y-140119047D01*
X145367619Y-140166666D01*
X145510476Y-140261904D01*
X145700952Y-140309523D01*
X146081904Y-140309523D01*
X146177142Y-140261904D01*
X146224761Y-140214285D01*
X146272380Y-140119047D01*
X146272380Y-139928571D01*
X146224761Y-139833333D01*
X146177142Y-139785714D01*
X146081904Y-139738095D01*
X145843809Y-139738095D01*
X145748571Y-139785714D01*
X145700952Y-139833333D01*
X145653333Y-139928571D01*
X145653333Y-140119047D01*
X145700952Y-140214285D01*
X145748571Y-140261904D01*
X145843809Y-140309523D01*
G04 #@! TO.C,D17*
X185632380Y-88176785D02*
X184632380Y-88176785D01*
X184632380Y-87938690D01*
X184680000Y-87795833D01*
X184775238Y-87700595D01*
X184870476Y-87652976D01*
X185060952Y-87605357D01*
X185203809Y-87605357D01*
X185394285Y-87652976D01*
X185489523Y-87700595D01*
X185584761Y-87795833D01*
X185632380Y-87938690D01*
X185632380Y-88176785D01*
X185632380Y-86652976D02*
X185632380Y-87224404D01*
X185632380Y-86938690D02*
X184632380Y-86938690D01*
X184775238Y-87033928D01*
X184870476Y-87129166D01*
X184918095Y-87224404D01*
X184632380Y-86319642D02*
X184632380Y-85652976D01*
X185632380Y-86081547D01*
G04 #@! TO.C,D18*
X182534554Y-75748185D02*
X183241661Y-75041079D01*
X183410020Y-75209437D01*
X183477363Y-75344124D01*
X183477363Y-75478811D01*
X183443691Y-75579827D01*
X183342676Y-75748185D01*
X183241661Y-75849201D01*
X183073302Y-75950216D01*
X182972287Y-75983888D01*
X182837600Y-75983888D01*
X182702913Y-75916544D01*
X182534554Y-75748185D01*
X183612050Y-76825682D02*
X183207989Y-76421621D01*
X183410020Y-76623651D02*
X184117127Y-75916544D01*
X183948768Y-75950216D01*
X183814081Y-75950216D01*
X183713066Y-75916544D01*
X184420172Y-76825682D02*
X184386501Y-76724666D01*
X184386501Y-76657323D01*
X184420172Y-76556308D01*
X184453844Y-76522636D01*
X184554859Y-76488964D01*
X184622203Y-76488964D01*
X184723218Y-76522636D01*
X184857905Y-76657323D01*
X184891577Y-76758338D01*
X184891577Y-76825682D01*
X184857905Y-76926697D01*
X184824233Y-76960369D01*
X184723218Y-76994040D01*
X184655875Y-76994040D01*
X184554859Y-76960369D01*
X184420172Y-76825682D01*
X184319157Y-76792010D01*
X184251814Y-76792010D01*
X184150798Y-76825682D01*
X184016111Y-76960369D01*
X183982440Y-77061384D01*
X183982440Y-77128727D01*
X184016111Y-77229743D01*
X184150798Y-77364430D01*
X184251814Y-77398101D01*
X184319157Y-77398101D01*
X184420172Y-77364430D01*
X184554859Y-77229743D01*
X184588531Y-77128727D01*
X184588531Y-77061384D01*
X184554859Y-76960369D01*
G04 #@! TO.C,D19*
X185632380Y-160214285D02*
X184632380Y-160214285D01*
X184632380Y-159976190D01*
X184680000Y-159833333D01*
X184775238Y-159738095D01*
X184870476Y-159690476D01*
X185060952Y-159642857D01*
X185203809Y-159642857D01*
X185394285Y-159690476D01*
X185489523Y-159738095D01*
X185584761Y-159833333D01*
X185632380Y-159976190D01*
X185632380Y-160214285D01*
X185632380Y-158690476D02*
X185632380Y-159261904D01*
X185632380Y-158976190D02*
X184632380Y-158976190D01*
X184775238Y-159071428D01*
X184870476Y-159166666D01*
X184918095Y-159261904D01*
X185632380Y-158214285D02*
X185632380Y-158023809D01*
X185584761Y-157928571D01*
X185537142Y-157880952D01*
X185394285Y-157785714D01*
X185203809Y-157738095D01*
X184822857Y-157738095D01*
X184727619Y-157785714D01*
X184680000Y-157833333D01*
X184632380Y-157928571D01*
X184632380Y-158119047D01*
X184680000Y-158214285D01*
X184727619Y-158261904D01*
X184822857Y-158309523D01*
X185060952Y-158309523D01*
X185156190Y-158261904D01*
X185203809Y-158214285D01*
X185251428Y-158119047D01*
X185251428Y-157928571D01*
X185203809Y-157833333D01*
X185156190Y-157785714D01*
X185060952Y-157738095D01*
G04 #@! TO.C,D20*
X146272380Y-136214285D02*
X145272380Y-136214285D01*
X145272380Y-135976190D01*
X145320000Y-135833333D01*
X145415238Y-135738095D01*
X145510476Y-135690476D01*
X145700952Y-135642857D01*
X145843809Y-135642857D01*
X146034285Y-135690476D01*
X146129523Y-135738095D01*
X146224761Y-135833333D01*
X146272380Y-135976190D01*
X146272380Y-136214285D01*
X145367619Y-135261904D02*
X145320000Y-135214285D01*
X145272380Y-135119047D01*
X145272380Y-134880952D01*
X145320000Y-134785714D01*
X145367619Y-134738095D01*
X145462857Y-134690476D01*
X145558095Y-134690476D01*
X145700952Y-134738095D01*
X146272380Y-135309523D01*
X146272380Y-134690476D01*
X145272380Y-134071428D02*
X145272380Y-133976190D01*
X145320000Y-133880952D01*
X145367619Y-133833333D01*
X145462857Y-133785714D01*
X145653333Y-133738095D01*
X145891428Y-133738095D01*
X146081904Y-133785714D01*
X146177142Y-133833333D01*
X146224761Y-133880952D01*
X146272380Y-133976190D01*
X146272380Y-134071428D01*
X146224761Y-134166666D01*
X146177142Y-134214285D01*
X146081904Y-134261904D01*
X145891428Y-134309523D01*
X145653333Y-134309523D01*
X145462857Y-134261904D01*
X145367619Y-134214285D01*
X145320000Y-134166666D01*
X145272380Y-134071428D01*
G04 #@! TO.C,D21*
X185632380Y-118176785D02*
X184632380Y-118176785D01*
X184632380Y-117938690D01*
X184680000Y-117795833D01*
X184775238Y-117700595D01*
X184870476Y-117652976D01*
X185060952Y-117605357D01*
X185203809Y-117605357D01*
X185394285Y-117652976D01*
X185489523Y-117700595D01*
X185584761Y-117795833D01*
X185632380Y-117938690D01*
X185632380Y-118176785D01*
X184727619Y-117224404D02*
X184680000Y-117176785D01*
X184632380Y-117081547D01*
X184632380Y-116843452D01*
X184680000Y-116748214D01*
X184727619Y-116700595D01*
X184822857Y-116652976D01*
X184918095Y-116652976D01*
X185060952Y-116700595D01*
X185632380Y-117272023D01*
X185632380Y-116652976D01*
X185632380Y-115700595D02*
X185632380Y-116272023D01*
X185632380Y-115986309D02*
X184632380Y-115986309D01*
X184775238Y-116081547D01*
X184870476Y-116176785D01*
X184918095Y-116272023D01*
G04 #@! TO.C,D22*
X185632380Y-106176785D02*
X184632380Y-106176785D01*
X184632380Y-105938690D01*
X184680000Y-105795833D01*
X184775238Y-105700595D01*
X184870476Y-105652976D01*
X185060952Y-105605357D01*
X185203809Y-105605357D01*
X185394285Y-105652976D01*
X185489523Y-105700595D01*
X185584761Y-105795833D01*
X185632380Y-105938690D01*
X185632380Y-106176785D01*
X184727619Y-105224404D02*
X184680000Y-105176785D01*
X184632380Y-105081547D01*
X184632380Y-104843452D01*
X184680000Y-104748214D01*
X184727619Y-104700595D01*
X184822857Y-104652976D01*
X184918095Y-104652976D01*
X185060952Y-104700595D01*
X185632380Y-105272023D01*
X185632380Y-104652976D01*
X184727619Y-104272023D02*
X184680000Y-104224404D01*
X184632380Y-104129166D01*
X184632380Y-103891071D01*
X184680000Y-103795833D01*
X184727619Y-103748214D01*
X184822857Y-103700595D01*
X184918095Y-103700595D01*
X185060952Y-103748214D01*
X185632380Y-104319642D01*
X185632380Y-103700595D01*
G04 #@! TO.C,D23*
X151298214Y-75272380D02*
X151298214Y-74272380D01*
X151536309Y-74272380D01*
X151679166Y-74320000D01*
X151774404Y-74415238D01*
X151822023Y-74510476D01*
X151869642Y-74700952D01*
X151869642Y-74843809D01*
X151822023Y-75034285D01*
X151774404Y-75129523D01*
X151679166Y-75224761D01*
X151536309Y-75272380D01*
X151298214Y-75272380D01*
X152250595Y-74367619D02*
X152298214Y-74320000D01*
X152393452Y-74272380D01*
X152631547Y-74272380D01*
X152726785Y-74320000D01*
X152774404Y-74367619D01*
X152822023Y-74462857D01*
X152822023Y-74558095D01*
X152774404Y-74700952D01*
X152202976Y-75272380D01*
X152822023Y-75272380D01*
X153155357Y-74272380D02*
X153774404Y-74272380D01*
X153441071Y-74653333D01*
X153583928Y-74653333D01*
X153679166Y-74700952D01*
X153726785Y-74748571D01*
X153774404Y-74843809D01*
X153774404Y-75081904D01*
X153726785Y-75177142D01*
X153679166Y-75224761D01*
X153583928Y-75272380D01*
X153298214Y-75272380D01*
X153202976Y-75224761D01*
X153155357Y-75177142D01*
G04 #@! TO.C,D24*
X157785714Y-165632380D02*
X157785714Y-164632380D01*
X158023809Y-164632380D01*
X158166666Y-164680000D01*
X158261904Y-164775238D01*
X158309523Y-164870476D01*
X158357142Y-165060952D01*
X158357142Y-165203809D01*
X158309523Y-165394285D01*
X158261904Y-165489523D01*
X158166666Y-165584761D01*
X158023809Y-165632380D01*
X157785714Y-165632380D01*
X158738095Y-164727619D02*
X158785714Y-164680000D01*
X158880952Y-164632380D01*
X159119047Y-164632380D01*
X159214285Y-164680000D01*
X159261904Y-164727619D01*
X159309523Y-164822857D01*
X159309523Y-164918095D01*
X159261904Y-165060952D01*
X158690476Y-165632380D01*
X159309523Y-165632380D01*
X160166666Y-164965714D02*
X160166666Y-165632380D01*
X159928571Y-164584761D02*
X159690476Y-165299047D01*
X160309523Y-165299047D01*
G04 #@! TO.C,D25*
X146272380Y-106214285D02*
X145272380Y-106214285D01*
X145272380Y-105976190D01*
X145320000Y-105833333D01*
X145415238Y-105738095D01*
X145510476Y-105690476D01*
X145700952Y-105642857D01*
X145843809Y-105642857D01*
X146034285Y-105690476D01*
X146129523Y-105738095D01*
X146224761Y-105833333D01*
X146272380Y-105976190D01*
X146272380Y-106214285D01*
X145367619Y-105261904D02*
X145320000Y-105214285D01*
X145272380Y-105119047D01*
X145272380Y-104880952D01*
X145320000Y-104785714D01*
X145367619Y-104738095D01*
X145462857Y-104690476D01*
X145558095Y-104690476D01*
X145700952Y-104738095D01*
X146272380Y-105309523D01*
X146272380Y-104690476D01*
X145272380Y-103785714D02*
X145272380Y-104261904D01*
X145748571Y-104309523D01*
X145700952Y-104261904D01*
X145653333Y-104166666D01*
X145653333Y-103928571D01*
X145700952Y-103833333D01*
X145748571Y-103785714D01*
X145843809Y-103738095D01*
X146081904Y-103738095D01*
X146177142Y-103785714D01*
X146224761Y-103833333D01*
X146272380Y-103928571D01*
X146272380Y-104166666D01*
X146224761Y-104261904D01*
X146177142Y-104309523D01*
G04 #@! TO.C,D26*
X185632380Y-124176785D02*
X184632380Y-124176785D01*
X184632380Y-123938690D01*
X184680000Y-123795833D01*
X184775238Y-123700595D01*
X184870476Y-123652976D01*
X185060952Y-123605357D01*
X185203809Y-123605357D01*
X185394285Y-123652976D01*
X185489523Y-123700595D01*
X185584761Y-123795833D01*
X185632380Y-123938690D01*
X185632380Y-124176785D01*
X184727619Y-123224404D02*
X184680000Y-123176785D01*
X184632380Y-123081547D01*
X184632380Y-122843452D01*
X184680000Y-122748214D01*
X184727619Y-122700595D01*
X184822857Y-122652976D01*
X184918095Y-122652976D01*
X185060952Y-122700595D01*
X185632380Y-123272023D01*
X185632380Y-122652976D01*
X184632380Y-121795833D02*
X184632380Y-121986309D01*
X184680000Y-122081547D01*
X184727619Y-122129166D01*
X184870476Y-122224404D01*
X185060952Y-122272023D01*
X185441904Y-122272023D01*
X185537142Y-122224404D01*
X185584761Y-122176785D01*
X185632380Y-122081547D01*
X185632380Y-121891071D01*
X185584761Y-121795833D01*
X185537142Y-121748214D01*
X185441904Y-121700595D01*
X185203809Y-121700595D01*
X185108571Y-121748214D01*
X185060952Y-121795833D01*
X185013333Y-121891071D01*
X185013333Y-122081547D01*
X185060952Y-122176785D01*
X185108571Y-122224404D01*
X185203809Y-122272023D01*
G04 #@! TO.C,D27*
X185632380Y-112176785D02*
X184632380Y-112176785D01*
X184632380Y-111938690D01*
X184680000Y-111795833D01*
X184775238Y-111700595D01*
X184870476Y-111652976D01*
X185060952Y-111605357D01*
X185203809Y-111605357D01*
X185394285Y-111652976D01*
X185489523Y-111700595D01*
X185584761Y-111795833D01*
X185632380Y-111938690D01*
X185632380Y-112176785D01*
X184727619Y-111224404D02*
X184680000Y-111176785D01*
X184632380Y-111081547D01*
X184632380Y-110843452D01*
X184680000Y-110748214D01*
X184727619Y-110700595D01*
X184822857Y-110652976D01*
X184918095Y-110652976D01*
X185060952Y-110700595D01*
X185632380Y-111272023D01*
X185632380Y-110652976D01*
X184632380Y-110319642D02*
X184632380Y-109652976D01*
X185632380Y-110081547D01*
G04 #@! TO.C,D28*
X157785714Y-75272380D02*
X157785714Y-74272380D01*
X158023809Y-74272380D01*
X158166666Y-74320000D01*
X158261904Y-74415238D01*
X158309523Y-74510476D01*
X158357142Y-74700952D01*
X158357142Y-74843809D01*
X158309523Y-75034285D01*
X158261904Y-75129523D01*
X158166666Y-75224761D01*
X158023809Y-75272380D01*
X157785714Y-75272380D01*
X158738095Y-74367619D02*
X158785714Y-74320000D01*
X158880952Y-74272380D01*
X159119047Y-74272380D01*
X159214285Y-74320000D01*
X159261904Y-74367619D01*
X159309523Y-74462857D01*
X159309523Y-74558095D01*
X159261904Y-74700952D01*
X158690476Y-75272380D01*
X159309523Y-75272380D01*
X159880952Y-74700952D02*
X159785714Y-74653333D01*
X159738095Y-74605714D01*
X159690476Y-74510476D01*
X159690476Y-74462857D01*
X159738095Y-74367619D01*
X159785714Y-74320000D01*
X159880952Y-74272380D01*
X160071428Y-74272380D01*
X160166666Y-74320000D01*
X160214285Y-74367619D01*
X160261904Y-74462857D01*
X160261904Y-74510476D01*
X160214285Y-74605714D01*
X160166666Y-74653333D01*
X160071428Y-74700952D01*
X159880952Y-74700952D01*
X159785714Y-74748571D01*
X159738095Y-74796190D01*
X159690476Y-74891428D01*
X159690476Y-75081904D01*
X159738095Y-75177142D01*
X159785714Y-75224761D01*
X159880952Y-75272380D01*
X160071428Y-75272380D01*
X160166666Y-75224761D01*
X160214285Y-75177142D01*
X160261904Y-75081904D01*
X160261904Y-74891428D01*
X160214285Y-74796190D01*
X160166666Y-74748571D01*
X160071428Y-74700952D01*
G04 #@! TO.C,D29*
X151298214Y-165632380D02*
X151298214Y-164632380D01*
X151536309Y-164632380D01*
X151679166Y-164680000D01*
X151774404Y-164775238D01*
X151822023Y-164870476D01*
X151869642Y-165060952D01*
X151869642Y-165203809D01*
X151822023Y-165394285D01*
X151774404Y-165489523D01*
X151679166Y-165584761D01*
X151536309Y-165632380D01*
X151298214Y-165632380D01*
X152250595Y-164727619D02*
X152298214Y-164680000D01*
X152393452Y-164632380D01*
X152631547Y-164632380D01*
X152726785Y-164680000D01*
X152774404Y-164727619D01*
X152822023Y-164822857D01*
X152822023Y-164918095D01*
X152774404Y-165060952D01*
X152202976Y-165632380D01*
X152822023Y-165632380D01*
X153298214Y-165632380D02*
X153488690Y-165632380D01*
X153583928Y-165584761D01*
X153631547Y-165537142D01*
X153726785Y-165394285D01*
X153774404Y-165203809D01*
X153774404Y-164822857D01*
X153726785Y-164727619D01*
X153679166Y-164680000D01*
X153583928Y-164632380D01*
X153393452Y-164632380D01*
X153298214Y-164680000D01*
X153250595Y-164727619D01*
X153202976Y-164822857D01*
X153202976Y-165060952D01*
X153250595Y-165156190D01*
X153298214Y-165203809D01*
X153393452Y-165251428D01*
X153583928Y-165251428D01*
X153679166Y-165203809D01*
X153726785Y-165156190D01*
X153774404Y-165060952D01*
G04 #@! TO.C,D30*
X146272380Y-100214285D02*
X145272380Y-100214285D01*
X145272380Y-99976190D01*
X145320000Y-99833333D01*
X145415238Y-99738095D01*
X145510476Y-99690476D01*
X145700952Y-99642857D01*
X145843809Y-99642857D01*
X146034285Y-99690476D01*
X146129523Y-99738095D01*
X146224761Y-99833333D01*
X146272380Y-99976190D01*
X146272380Y-100214285D01*
X145272380Y-99309523D02*
X145272380Y-98690476D01*
X145653333Y-99023809D01*
X145653333Y-98880952D01*
X145700952Y-98785714D01*
X145748571Y-98738095D01*
X145843809Y-98690476D01*
X146081904Y-98690476D01*
X146177142Y-98738095D01*
X146224761Y-98785714D01*
X146272380Y-98880952D01*
X146272380Y-99166666D01*
X146224761Y-99261904D01*
X146177142Y-99309523D01*
X145272380Y-98071428D02*
X145272380Y-97976190D01*
X145320000Y-97880952D01*
X145367619Y-97833333D01*
X145462857Y-97785714D01*
X145653333Y-97738095D01*
X145891428Y-97738095D01*
X146081904Y-97785714D01*
X146177142Y-97833333D01*
X146224761Y-97880952D01*
X146272380Y-97976190D01*
X146272380Y-98071428D01*
X146224761Y-98166666D01*
X146177142Y-98214285D01*
X146081904Y-98261904D01*
X145891428Y-98309523D01*
X145653333Y-98309523D01*
X145462857Y-98261904D01*
X145367619Y-98214285D01*
X145320000Y-98166666D01*
X145272380Y-98071428D01*
G04 #@! TO.C,D31*
X185632380Y-142176785D02*
X184632380Y-142176785D01*
X184632380Y-141938690D01*
X184680000Y-141795833D01*
X184775238Y-141700595D01*
X184870476Y-141652976D01*
X185060952Y-141605357D01*
X185203809Y-141605357D01*
X185394285Y-141652976D01*
X185489523Y-141700595D01*
X185584761Y-141795833D01*
X185632380Y-141938690D01*
X185632380Y-142176785D01*
X184632380Y-141272023D02*
X184632380Y-140652976D01*
X185013333Y-140986309D01*
X185013333Y-140843452D01*
X185060952Y-140748214D01*
X185108571Y-140700595D01*
X185203809Y-140652976D01*
X185441904Y-140652976D01*
X185537142Y-140700595D01*
X185584761Y-140748214D01*
X185632380Y-140843452D01*
X185632380Y-141129166D01*
X185584761Y-141224404D01*
X185537142Y-141272023D01*
X185632380Y-139700595D02*
X185632380Y-140272023D01*
X185632380Y-139986309D02*
X184632380Y-139986309D01*
X184775238Y-140081547D01*
X184870476Y-140176785D01*
X184918095Y-140272023D01*
G04 #@! TO.C,D32*
X185632380Y-130176785D02*
X184632380Y-130176785D01*
X184632380Y-129938690D01*
X184680000Y-129795833D01*
X184775238Y-129700595D01*
X184870476Y-129652976D01*
X185060952Y-129605357D01*
X185203809Y-129605357D01*
X185394285Y-129652976D01*
X185489523Y-129700595D01*
X185584761Y-129795833D01*
X185632380Y-129938690D01*
X185632380Y-130176785D01*
X184632380Y-129272023D02*
X184632380Y-128652976D01*
X185013333Y-128986309D01*
X185013333Y-128843452D01*
X185060952Y-128748214D01*
X185108571Y-128700595D01*
X185203809Y-128652976D01*
X185441904Y-128652976D01*
X185537142Y-128700595D01*
X185584761Y-128748214D01*
X185632380Y-128843452D01*
X185632380Y-129129166D01*
X185584761Y-129224404D01*
X185537142Y-129272023D01*
X184727619Y-128272023D02*
X184680000Y-128224404D01*
X184632380Y-128129166D01*
X184632380Y-127891071D01*
X184680000Y-127795833D01*
X184727619Y-127748214D01*
X184822857Y-127700595D01*
X184918095Y-127700595D01*
X185060952Y-127748214D01*
X185632380Y-128319642D01*
X185632380Y-127700595D01*
G04 #@! TO.C,D33*
X185632380Y-94176785D02*
X184632380Y-94176785D01*
X184632380Y-93938690D01*
X184680000Y-93795833D01*
X184775238Y-93700595D01*
X184870476Y-93652976D01*
X185060952Y-93605357D01*
X185203809Y-93605357D01*
X185394285Y-93652976D01*
X185489523Y-93700595D01*
X185584761Y-93795833D01*
X185632380Y-93938690D01*
X185632380Y-94176785D01*
X184632380Y-93272023D02*
X184632380Y-92652976D01*
X185013333Y-92986309D01*
X185013333Y-92843452D01*
X185060952Y-92748214D01*
X185108571Y-92700595D01*
X185203809Y-92652976D01*
X185441904Y-92652976D01*
X185537142Y-92700595D01*
X185584761Y-92748214D01*
X185632380Y-92843452D01*
X185632380Y-93129166D01*
X185584761Y-93224404D01*
X185537142Y-93272023D01*
X184632380Y-92319642D02*
X184632380Y-91700595D01*
X185013333Y-92033928D01*
X185013333Y-91891071D01*
X185060952Y-91795833D01*
X185108571Y-91748214D01*
X185203809Y-91700595D01*
X185441904Y-91700595D01*
X185537142Y-91748214D01*
X185584761Y-91795833D01*
X185632380Y-91891071D01*
X185632380Y-92176785D01*
X185584761Y-92272023D01*
X185537142Y-92319642D01*
G04 #@! TO.C,D34*
X164273214Y-75272380D02*
X164273214Y-74272380D01*
X164511309Y-74272380D01*
X164654166Y-74320000D01*
X164749404Y-74415238D01*
X164797023Y-74510476D01*
X164844642Y-74700952D01*
X164844642Y-74843809D01*
X164797023Y-75034285D01*
X164749404Y-75129523D01*
X164654166Y-75224761D01*
X164511309Y-75272380D01*
X164273214Y-75272380D01*
X165177976Y-74272380D02*
X165797023Y-74272380D01*
X165463690Y-74653333D01*
X165606547Y-74653333D01*
X165701785Y-74700952D01*
X165749404Y-74748571D01*
X165797023Y-74843809D01*
X165797023Y-75081904D01*
X165749404Y-75177142D01*
X165701785Y-75224761D01*
X165606547Y-75272380D01*
X165320833Y-75272380D01*
X165225595Y-75224761D01*
X165177976Y-75177142D01*
X166654166Y-74605714D02*
X166654166Y-75272380D01*
X166416071Y-74224761D02*
X166177976Y-74939047D01*
X166797023Y-74939047D01*
G04 #@! TO.C,D35*
X170785714Y-165632380D02*
X170785714Y-164632380D01*
X171023809Y-164632380D01*
X171166666Y-164680000D01*
X171261904Y-164775238D01*
X171309523Y-164870476D01*
X171357142Y-165060952D01*
X171357142Y-165203809D01*
X171309523Y-165394285D01*
X171261904Y-165489523D01*
X171166666Y-165584761D01*
X171023809Y-165632380D01*
X170785714Y-165632380D01*
X171690476Y-164632380D02*
X172309523Y-164632380D01*
X171976190Y-165013333D01*
X172119047Y-165013333D01*
X172214285Y-165060952D01*
X172261904Y-165108571D01*
X172309523Y-165203809D01*
X172309523Y-165441904D01*
X172261904Y-165537142D01*
X172214285Y-165584761D01*
X172119047Y-165632380D01*
X171833333Y-165632380D01*
X171738095Y-165584761D01*
X171690476Y-165537142D01*
X173214285Y-164632380D02*
X172738095Y-164632380D01*
X172690476Y-165108571D01*
X172738095Y-165060952D01*
X172833333Y-165013333D01*
X173071428Y-165013333D01*
X173166666Y-165060952D01*
X173214285Y-165108571D01*
X173261904Y-165203809D01*
X173261904Y-165441904D01*
X173214285Y-165537142D01*
X173166666Y-165584761D01*
X173071428Y-165632380D01*
X172833333Y-165632380D01*
X172738095Y-165584761D01*
X172690476Y-165537142D01*
G04 #@! TO.C,D36*
X146272380Y-130214285D02*
X145272380Y-130214285D01*
X145272380Y-129976190D01*
X145320000Y-129833333D01*
X145415238Y-129738095D01*
X145510476Y-129690476D01*
X145700952Y-129642857D01*
X145843809Y-129642857D01*
X146034285Y-129690476D01*
X146129523Y-129738095D01*
X146224761Y-129833333D01*
X146272380Y-129976190D01*
X146272380Y-130214285D01*
X145272380Y-129309523D02*
X145272380Y-128690476D01*
X145653333Y-129023809D01*
X145653333Y-128880952D01*
X145700952Y-128785714D01*
X145748571Y-128738095D01*
X145843809Y-128690476D01*
X146081904Y-128690476D01*
X146177142Y-128738095D01*
X146224761Y-128785714D01*
X146272380Y-128880952D01*
X146272380Y-129166666D01*
X146224761Y-129261904D01*
X146177142Y-129309523D01*
X145272380Y-127833333D02*
X145272380Y-128023809D01*
X145320000Y-128119047D01*
X145367619Y-128166666D01*
X145510476Y-128261904D01*
X145700952Y-128309523D01*
X146081904Y-128309523D01*
X146177142Y-128261904D01*
X146224761Y-128214285D01*
X146272380Y-128119047D01*
X146272380Y-127928571D01*
X146224761Y-127833333D01*
X146177142Y-127785714D01*
X146081904Y-127738095D01*
X145843809Y-127738095D01*
X145748571Y-127785714D01*
X145700952Y-127833333D01*
X145653333Y-127928571D01*
X145653333Y-128119047D01*
X145700952Y-128214285D01*
X145748571Y-128261904D01*
X145843809Y-128309523D01*
G04 #@! TO.C,D37*
X185632380Y-148176785D02*
X184632380Y-148176785D01*
X184632380Y-147938690D01*
X184680000Y-147795833D01*
X184775238Y-147700595D01*
X184870476Y-147652976D01*
X185060952Y-147605357D01*
X185203809Y-147605357D01*
X185394285Y-147652976D01*
X185489523Y-147700595D01*
X185584761Y-147795833D01*
X185632380Y-147938690D01*
X185632380Y-148176785D01*
X184632380Y-147272023D02*
X184632380Y-146652976D01*
X185013333Y-146986309D01*
X185013333Y-146843452D01*
X185060952Y-146748214D01*
X185108571Y-146700595D01*
X185203809Y-146652976D01*
X185441904Y-146652976D01*
X185537142Y-146700595D01*
X185584761Y-146748214D01*
X185632380Y-146843452D01*
X185632380Y-147129166D01*
X185584761Y-147224404D01*
X185537142Y-147272023D01*
X184632380Y-146319642D02*
X184632380Y-145652976D01*
X185632380Y-146081547D01*
G04 #@! TO.C,D38*
X185632380Y-136176785D02*
X184632380Y-136176785D01*
X184632380Y-135938690D01*
X184680000Y-135795833D01*
X184775238Y-135700595D01*
X184870476Y-135652976D01*
X185060952Y-135605357D01*
X185203809Y-135605357D01*
X185394285Y-135652976D01*
X185489523Y-135700595D01*
X185584761Y-135795833D01*
X185632380Y-135938690D01*
X185632380Y-136176785D01*
X184632380Y-135272023D02*
X184632380Y-134652976D01*
X185013333Y-134986309D01*
X185013333Y-134843452D01*
X185060952Y-134748214D01*
X185108571Y-134700595D01*
X185203809Y-134652976D01*
X185441904Y-134652976D01*
X185537142Y-134700595D01*
X185584761Y-134748214D01*
X185632380Y-134843452D01*
X185632380Y-135129166D01*
X185584761Y-135224404D01*
X185537142Y-135272023D01*
X185060952Y-134081547D02*
X185013333Y-134176785D01*
X184965714Y-134224404D01*
X184870476Y-134272023D01*
X184822857Y-134272023D01*
X184727619Y-134224404D01*
X184680000Y-134176785D01*
X184632380Y-134081547D01*
X184632380Y-133891071D01*
X184680000Y-133795833D01*
X184727619Y-133748214D01*
X184822857Y-133700595D01*
X184870476Y-133700595D01*
X184965714Y-133748214D01*
X185013333Y-133795833D01*
X185060952Y-133891071D01*
X185060952Y-134081547D01*
X185108571Y-134176785D01*
X185156190Y-134224404D01*
X185251428Y-134272023D01*
X185441904Y-134272023D01*
X185537142Y-134224404D01*
X185584761Y-134176785D01*
X185632380Y-134081547D01*
X185632380Y-133891071D01*
X185584761Y-133795833D01*
X185537142Y-133748214D01*
X185441904Y-133700595D01*
X185251428Y-133700595D01*
X185156190Y-133748214D01*
X185108571Y-133795833D01*
X185060952Y-133891071D01*
G04 #@! TO.C,D39*
X185632380Y-100176785D02*
X184632380Y-100176785D01*
X184632380Y-99938690D01*
X184680000Y-99795833D01*
X184775238Y-99700595D01*
X184870476Y-99652976D01*
X185060952Y-99605357D01*
X185203809Y-99605357D01*
X185394285Y-99652976D01*
X185489523Y-99700595D01*
X185584761Y-99795833D01*
X185632380Y-99938690D01*
X185632380Y-100176785D01*
X184632380Y-99272023D02*
X184632380Y-98652976D01*
X185013333Y-98986309D01*
X185013333Y-98843452D01*
X185060952Y-98748214D01*
X185108571Y-98700595D01*
X185203809Y-98652976D01*
X185441904Y-98652976D01*
X185537142Y-98700595D01*
X185584761Y-98748214D01*
X185632380Y-98843452D01*
X185632380Y-99129166D01*
X185584761Y-99224404D01*
X185537142Y-99272023D01*
X185632380Y-98176785D02*
X185632380Y-97986309D01*
X185584761Y-97891071D01*
X185537142Y-97843452D01*
X185394285Y-97748214D01*
X185203809Y-97700595D01*
X184822857Y-97700595D01*
X184727619Y-97748214D01*
X184680000Y-97795833D01*
X184632380Y-97891071D01*
X184632380Y-98081547D01*
X184680000Y-98176785D01*
X184727619Y-98224404D01*
X184822857Y-98272023D01*
X185060952Y-98272023D01*
X185156190Y-98224404D01*
X185203809Y-98176785D01*
X185251428Y-98081547D01*
X185251428Y-97891071D01*
X185203809Y-97795833D01*
X185156190Y-97748214D01*
X185060952Y-97700595D01*
G04 #@! TO.C,D40*
X170785714Y-75272380D02*
X170785714Y-74272380D01*
X171023809Y-74272380D01*
X171166666Y-74320000D01*
X171261904Y-74415238D01*
X171309523Y-74510476D01*
X171357142Y-74700952D01*
X171357142Y-74843809D01*
X171309523Y-75034285D01*
X171261904Y-75129523D01*
X171166666Y-75224761D01*
X171023809Y-75272380D01*
X170785714Y-75272380D01*
X172214285Y-74605714D02*
X172214285Y-75272380D01*
X171976190Y-74224761D02*
X171738095Y-74939047D01*
X172357142Y-74939047D01*
X172928571Y-74272380D02*
X173023809Y-74272380D01*
X173119047Y-74320000D01*
X173166666Y-74367619D01*
X173214285Y-74462857D01*
X173261904Y-74653333D01*
X173261904Y-74891428D01*
X173214285Y-75081904D01*
X173166666Y-75177142D01*
X173119047Y-75224761D01*
X173023809Y-75272380D01*
X172928571Y-75272380D01*
X172833333Y-75224761D01*
X172785714Y-75177142D01*
X172738095Y-75081904D01*
X172690476Y-74891428D01*
X172690476Y-74653333D01*
X172738095Y-74462857D01*
X172785714Y-74367619D01*
X172833333Y-74320000D01*
X172928571Y-74272380D01*
G04 #@! TO.C,D41*
X164273214Y-165632380D02*
X164273214Y-164632380D01*
X164511309Y-164632380D01*
X164654166Y-164680000D01*
X164749404Y-164775238D01*
X164797023Y-164870476D01*
X164844642Y-165060952D01*
X164844642Y-165203809D01*
X164797023Y-165394285D01*
X164749404Y-165489523D01*
X164654166Y-165584761D01*
X164511309Y-165632380D01*
X164273214Y-165632380D01*
X165701785Y-164965714D02*
X165701785Y-165632380D01*
X165463690Y-164584761D02*
X165225595Y-165299047D01*
X165844642Y-165299047D01*
X166749404Y-165632380D02*
X166177976Y-165632380D01*
X166463690Y-165632380D02*
X166463690Y-164632380D01*
X166368452Y-164775238D01*
X166273214Y-164870476D01*
X166177976Y-164918095D01*
G04 #@! TO.C,D42*
X146272380Y-124214285D02*
X145272380Y-124214285D01*
X145272380Y-123976190D01*
X145320000Y-123833333D01*
X145415238Y-123738095D01*
X145510476Y-123690476D01*
X145700952Y-123642857D01*
X145843809Y-123642857D01*
X146034285Y-123690476D01*
X146129523Y-123738095D01*
X146224761Y-123833333D01*
X146272380Y-123976190D01*
X146272380Y-124214285D01*
X145605714Y-122785714D02*
X146272380Y-122785714D01*
X145224761Y-123023809D02*
X145939047Y-123261904D01*
X145939047Y-122642857D01*
X145367619Y-122309523D02*
X145320000Y-122261904D01*
X145272380Y-122166666D01*
X145272380Y-121928571D01*
X145320000Y-121833333D01*
X145367619Y-121785714D01*
X145462857Y-121738095D01*
X145558095Y-121738095D01*
X145700952Y-121785714D01*
X146272380Y-122357142D01*
X146272380Y-121738095D01*
G04 #@! TO.C,Q3*
X164404761Y-141097619D02*
X164309523Y-141050000D01*
X164214285Y-140954761D01*
X164071428Y-140811904D01*
X163976190Y-140764285D01*
X163880952Y-140764285D01*
X163928571Y-141002380D02*
X163833333Y-140954761D01*
X163738095Y-140859523D01*
X163690476Y-140669047D01*
X163690476Y-140335714D01*
X163738095Y-140145238D01*
X163833333Y-140050000D01*
X163928571Y-140002380D01*
X164119047Y-140002380D01*
X164214285Y-140050000D01*
X164309523Y-140145238D01*
X164357142Y-140335714D01*
X164357142Y-140669047D01*
X164309523Y-140859523D01*
X164214285Y-140954761D01*
X164119047Y-141002380D01*
X163928571Y-141002380D01*
X164690476Y-140002380D02*
X165309523Y-140002380D01*
X164976190Y-140383333D01*
X165119047Y-140383333D01*
X165214285Y-140430952D01*
X165261904Y-140478571D01*
X165309523Y-140573809D01*
X165309523Y-140811904D01*
X165261904Y-140907142D01*
X165214285Y-140954761D01*
X165119047Y-141002380D01*
X164833333Y-141002380D01*
X164738095Y-140954761D01*
X164690476Y-140907142D01*
G04 #@! TO.C,R2*
X182333333Y-141126380D02*
X182000000Y-140650190D01*
X181761904Y-141126380D02*
X181761904Y-140126380D01*
X182142857Y-140126380D01*
X182238095Y-140174000D01*
X182285714Y-140221619D01*
X182333333Y-140316857D01*
X182333333Y-140459714D01*
X182285714Y-140554952D01*
X182238095Y-140602571D01*
X182142857Y-140650190D01*
X181761904Y-140650190D01*
X182714285Y-140221619D02*
X182761904Y-140174000D01*
X182857142Y-140126380D01*
X183095238Y-140126380D01*
X183190476Y-140174000D01*
X183238095Y-140221619D01*
X183285714Y-140316857D01*
X183285714Y-140412095D01*
X183238095Y-140554952D01*
X182666666Y-141126380D01*
X183285714Y-141126380D01*
G04 #@! TO.C,R3*
X182345833Y-150772380D02*
X182012500Y-150296190D01*
X181774404Y-150772380D02*
X181774404Y-149772380D01*
X182155357Y-149772380D01*
X182250595Y-149820000D01*
X182298214Y-149867619D01*
X182345833Y-149962857D01*
X182345833Y-150105714D01*
X182298214Y-150200952D01*
X182250595Y-150248571D01*
X182155357Y-150296190D01*
X181774404Y-150296190D01*
X182679166Y-149772380D02*
X183298214Y-149772380D01*
X182964880Y-150153333D01*
X183107738Y-150153333D01*
X183202976Y-150200952D01*
X183250595Y-150248571D01*
X183298214Y-150343809D01*
X183298214Y-150581904D01*
X183250595Y-150677142D01*
X183202976Y-150724761D01*
X183107738Y-150772380D01*
X182822023Y-150772380D01*
X182726785Y-150724761D01*
X182679166Y-150677142D01*
G04 #@! TO.C,R4*
X182333333Y-147772380D02*
X182000000Y-147296190D01*
X181761904Y-147772380D02*
X181761904Y-146772380D01*
X182142857Y-146772380D01*
X182238095Y-146820000D01*
X182285714Y-146867619D01*
X182333333Y-146962857D01*
X182333333Y-147105714D01*
X182285714Y-147200952D01*
X182238095Y-147248571D01*
X182142857Y-147296190D01*
X181761904Y-147296190D01*
X183190476Y-147105714D02*
X183190476Y-147772380D01*
X182952380Y-146724761D02*
X182714285Y-147439047D01*
X183333333Y-147439047D01*
G04 #@! TO.C,R5*
X182320833Y-162772380D02*
X181987500Y-162296190D01*
X181749404Y-162772380D02*
X181749404Y-161772380D01*
X182130357Y-161772380D01*
X182225595Y-161820000D01*
X182273214Y-161867619D01*
X182320833Y-161962857D01*
X182320833Y-162105714D01*
X182273214Y-162200952D01*
X182225595Y-162248571D01*
X182130357Y-162296190D01*
X181749404Y-162296190D01*
X183225595Y-161772380D02*
X182749404Y-161772380D01*
X182701785Y-162248571D01*
X182749404Y-162200952D01*
X182844642Y-162153333D01*
X183082738Y-162153333D01*
X183177976Y-162200952D01*
X183225595Y-162248571D01*
X183273214Y-162343809D01*
X183273214Y-162581904D01*
X183225595Y-162677142D01*
X183177976Y-162724761D01*
X183082738Y-162772380D01*
X182844642Y-162772380D01*
X182749404Y-162724761D01*
X182701785Y-162677142D01*
G04 #@! TO.C,R6*
X182333333Y-159772380D02*
X182000000Y-159296190D01*
X181761904Y-159772380D02*
X181761904Y-158772380D01*
X182142857Y-158772380D01*
X182238095Y-158820000D01*
X182285714Y-158867619D01*
X182333333Y-158962857D01*
X182333333Y-159105714D01*
X182285714Y-159200952D01*
X182238095Y-159248571D01*
X182142857Y-159296190D01*
X181761904Y-159296190D01*
X183190476Y-158772380D02*
X183000000Y-158772380D01*
X182904761Y-158820000D01*
X182857142Y-158867619D01*
X182761904Y-159010476D01*
X182714285Y-159200952D01*
X182714285Y-159581904D01*
X182761904Y-159677142D01*
X182809523Y-159724761D01*
X182904761Y-159772380D01*
X183095238Y-159772380D01*
X183190476Y-159724761D01*
X183238095Y-159677142D01*
X183285714Y-159581904D01*
X183285714Y-159343809D01*
X183238095Y-159248571D01*
X183190476Y-159200952D01*
X183095238Y-159153333D01*
X182904761Y-159153333D01*
X182809523Y-159200952D01*
X182761904Y-159248571D01*
X182714285Y-159343809D01*
G04 #@! TO.C,R7*
X182333333Y-156772380D02*
X182000000Y-156296190D01*
X181761904Y-156772380D02*
X181761904Y-155772380D01*
X182142857Y-155772380D01*
X182238095Y-155820000D01*
X182285714Y-155867619D01*
X182333333Y-155962857D01*
X182333333Y-156105714D01*
X182285714Y-156200952D01*
X182238095Y-156248571D01*
X182142857Y-156296190D01*
X181761904Y-156296190D01*
X182666666Y-155772380D02*
X183333333Y-155772380D01*
X182904761Y-156772380D01*
G04 #@! TO.C,R8*
X182333333Y-153772380D02*
X182000000Y-153296190D01*
X181761904Y-153772380D02*
X181761904Y-152772380D01*
X182142857Y-152772380D01*
X182238095Y-152820000D01*
X182285714Y-152867619D01*
X182333333Y-152962857D01*
X182333333Y-153105714D01*
X182285714Y-153200952D01*
X182238095Y-153248571D01*
X182142857Y-153296190D01*
X181761904Y-153296190D01*
X182904761Y-153200952D02*
X182809523Y-153153333D01*
X182761904Y-153105714D01*
X182714285Y-153010476D01*
X182714285Y-152962857D01*
X182761904Y-152867619D01*
X182809523Y-152820000D01*
X182904761Y-152772380D01*
X183095238Y-152772380D01*
X183190476Y-152820000D01*
X183238095Y-152867619D01*
X183285714Y-152962857D01*
X183285714Y-153010476D01*
X183238095Y-153105714D01*
X183190476Y-153153333D01*
X183095238Y-153200952D01*
X182904761Y-153200952D01*
X182809523Y-153248571D01*
X182761904Y-153296190D01*
X182714285Y-153391428D01*
X182714285Y-153581904D01*
X182761904Y-153677142D01*
X182809523Y-153724761D01*
X182904761Y-153772380D01*
X183095238Y-153772380D01*
X183190476Y-153724761D01*
X183238095Y-153677142D01*
X183285714Y-153581904D01*
X183285714Y-153391428D01*
X183238095Y-153296190D01*
X183190476Y-153248571D01*
X183095238Y-153200952D01*
G04 #@! TO.C,R9*
X148345833Y-153272380D02*
X148012500Y-152796190D01*
X147774404Y-153272380D02*
X147774404Y-152272380D01*
X148155357Y-152272380D01*
X148250595Y-152320000D01*
X148298214Y-152367619D01*
X148345833Y-152462857D01*
X148345833Y-152605714D01*
X148298214Y-152700952D01*
X148250595Y-152748571D01*
X148155357Y-152796190D01*
X147774404Y-152796190D01*
X148822023Y-153272380D02*
X149012500Y-153272380D01*
X149107738Y-153224761D01*
X149155357Y-153177142D01*
X149250595Y-153034285D01*
X149298214Y-152843809D01*
X149298214Y-152462857D01*
X149250595Y-152367619D01*
X149202976Y-152320000D01*
X149107738Y-152272380D01*
X148917261Y-152272380D01*
X148822023Y-152320000D01*
X148774404Y-152367619D01*
X148726785Y-152462857D01*
X148726785Y-152700952D01*
X148774404Y-152796190D01*
X148822023Y-152843809D01*
X148917261Y-152891428D01*
X149107738Y-152891428D01*
X149202976Y-152843809D01*
X149250595Y-152796190D01*
X149298214Y-152700952D01*
G04 #@! TO.C,R10*
X147857142Y-162272380D02*
X147523809Y-161796190D01*
X147285714Y-162272380D02*
X147285714Y-161272380D01*
X147666666Y-161272380D01*
X147761904Y-161320000D01*
X147809523Y-161367619D01*
X147857142Y-161462857D01*
X147857142Y-161605714D01*
X147809523Y-161700952D01*
X147761904Y-161748571D01*
X147666666Y-161796190D01*
X147285714Y-161796190D01*
X148809523Y-162272380D02*
X148238095Y-162272380D01*
X148523809Y-162272380D02*
X148523809Y-161272380D01*
X148428571Y-161415238D01*
X148333333Y-161510476D01*
X148238095Y-161558095D01*
X149428571Y-161272380D02*
X149523809Y-161272380D01*
X149619047Y-161320000D01*
X149666666Y-161367619D01*
X149714285Y-161462857D01*
X149761904Y-161653333D01*
X149761904Y-161891428D01*
X149714285Y-162081904D01*
X149666666Y-162177142D01*
X149619047Y-162224761D01*
X149523809Y-162272380D01*
X149428571Y-162272380D01*
X149333333Y-162224761D01*
X149285714Y-162177142D01*
X149238095Y-162081904D01*
X149190476Y-161891428D01*
X149190476Y-161653333D01*
X149238095Y-161462857D01*
X149285714Y-161367619D01*
X149333333Y-161320000D01*
X149428571Y-161272380D01*
G04 #@! TO.C,R11*
X147857142Y-147272380D02*
X147523809Y-146796190D01*
X147285714Y-147272380D02*
X147285714Y-146272380D01*
X147666666Y-146272380D01*
X147761904Y-146320000D01*
X147809523Y-146367619D01*
X147857142Y-146462857D01*
X147857142Y-146605714D01*
X147809523Y-146700952D01*
X147761904Y-146748571D01*
X147666666Y-146796190D01*
X147285714Y-146796190D01*
X148809523Y-147272380D02*
X148238095Y-147272380D01*
X148523809Y-147272380D02*
X148523809Y-146272380D01*
X148428571Y-146415238D01*
X148333333Y-146510476D01*
X148238095Y-146558095D01*
X149761904Y-147272380D02*
X149190476Y-147272380D01*
X149476190Y-147272380D02*
X149476190Y-146272380D01*
X149380952Y-146415238D01*
X149285714Y-146510476D01*
X149190476Y-146558095D01*
G04 #@! TO.C,R12*
X147857142Y-159272380D02*
X147523809Y-158796190D01*
X147285714Y-159272380D02*
X147285714Y-158272380D01*
X147666666Y-158272380D01*
X147761904Y-158320000D01*
X147809523Y-158367619D01*
X147857142Y-158462857D01*
X147857142Y-158605714D01*
X147809523Y-158700952D01*
X147761904Y-158748571D01*
X147666666Y-158796190D01*
X147285714Y-158796190D01*
X148809523Y-159272380D02*
X148238095Y-159272380D01*
X148523809Y-159272380D02*
X148523809Y-158272380D01*
X148428571Y-158415238D01*
X148333333Y-158510476D01*
X148238095Y-158558095D01*
X149190476Y-158367619D02*
X149238095Y-158320000D01*
X149333333Y-158272380D01*
X149571428Y-158272380D01*
X149666666Y-158320000D01*
X149714285Y-158367619D01*
X149761904Y-158462857D01*
X149761904Y-158558095D01*
X149714285Y-158700952D01*
X149142857Y-159272380D01*
X149761904Y-159272380D01*
G04 #@! TO.C,R13*
X147857142Y-144272380D02*
X147523809Y-143796190D01*
X147285714Y-144272380D02*
X147285714Y-143272380D01*
X147666666Y-143272380D01*
X147761904Y-143320000D01*
X147809523Y-143367619D01*
X147857142Y-143462857D01*
X147857142Y-143605714D01*
X147809523Y-143700952D01*
X147761904Y-143748571D01*
X147666666Y-143796190D01*
X147285714Y-143796190D01*
X148809523Y-144272380D02*
X148238095Y-144272380D01*
X148523809Y-144272380D02*
X148523809Y-143272380D01*
X148428571Y-143415238D01*
X148333333Y-143510476D01*
X148238095Y-143558095D01*
X149142857Y-143272380D02*
X149761904Y-143272380D01*
X149428571Y-143653333D01*
X149571428Y-143653333D01*
X149666666Y-143700952D01*
X149714285Y-143748571D01*
X149761904Y-143843809D01*
X149761904Y-144081904D01*
X149714285Y-144177142D01*
X149666666Y-144224761D01*
X149571428Y-144272380D01*
X149285714Y-144272380D01*
X149190476Y-144224761D01*
X149142857Y-144177142D01*
G04 #@! TO.C,R14*
X147857142Y-156272380D02*
X147523809Y-155796190D01*
X147285714Y-156272380D02*
X147285714Y-155272380D01*
X147666666Y-155272380D01*
X147761904Y-155320000D01*
X147809523Y-155367619D01*
X147857142Y-155462857D01*
X147857142Y-155605714D01*
X147809523Y-155700952D01*
X147761904Y-155748571D01*
X147666666Y-155796190D01*
X147285714Y-155796190D01*
X148809523Y-156272380D02*
X148238095Y-156272380D01*
X148523809Y-156272380D02*
X148523809Y-155272380D01*
X148428571Y-155415238D01*
X148333333Y-155510476D01*
X148238095Y-155558095D01*
X149666666Y-155605714D02*
X149666666Y-156272380D01*
X149428571Y-155224761D02*
X149190476Y-155939047D01*
X149809523Y-155939047D01*
G04 #@! TO.C,R15*
X147857142Y-150272380D02*
X147523809Y-149796190D01*
X147285714Y-150272380D02*
X147285714Y-149272380D01*
X147666666Y-149272380D01*
X147761904Y-149320000D01*
X147809523Y-149367619D01*
X147857142Y-149462857D01*
X147857142Y-149605714D01*
X147809523Y-149700952D01*
X147761904Y-149748571D01*
X147666666Y-149796190D01*
X147285714Y-149796190D01*
X148809523Y-150272380D02*
X148238095Y-150272380D01*
X148523809Y-150272380D02*
X148523809Y-149272380D01*
X148428571Y-149415238D01*
X148333333Y-149510476D01*
X148238095Y-149558095D01*
X149714285Y-149272380D02*
X149238095Y-149272380D01*
X149190476Y-149748571D01*
X149238095Y-149700952D01*
X149333333Y-149653333D01*
X149571428Y-149653333D01*
X149666666Y-149700952D01*
X149714285Y-149748571D01*
X149761904Y-149843809D01*
X149761904Y-150081904D01*
X149714285Y-150177142D01*
X149666666Y-150224761D01*
X149571428Y-150272380D01*
X149333333Y-150272380D01*
X149238095Y-150224761D01*
X149190476Y-150177142D01*
G04 #@! TO.C,R16*
X168369642Y-137632380D02*
X168036309Y-137156190D01*
X167798214Y-137632380D02*
X167798214Y-136632380D01*
X168179166Y-136632380D01*
X168274404Y-136680000D01*
X168322023Y-136727619D01*
X168369642Y-136822857D01*
X168369642Y-136965714D01*
X168322023Y-137060952D01*
X168274404Y-137108571D01*
X168179166Y-137156190D01*
X167798214Y-137156190D01*
X169322023Y-137632380D02*
X168750595Y-137632380D01*
X169036309Y-137632380D02*
X169036309Y-136632380D01*
X168941071Y-136775238D01*
X168845833Y-136870476D01*
X168750595Y-136918095D01*
X170179166Y-136632380D02*
X169988690Y-136632380D01*
X169893452Y-136680000D01*
X169845833Y-136727619D01*
X169750595Y-136870476D01*
X169702976Y-137060952D01*
X169702976Y-137441904D01*
X169750595Y-137537142D01*
X169798214Y-137584761D01*
X169893452Y-137632380D01*
X170083928Y-137632380D01*
X170179166Y-137584761D01*
X170226785Y-137537142D01*
X170274404Y-137441904D01*
X170274404Y-137203809D01*
X170226785Y-137108571D01*
X170179166Y-137060952D01*
X170083928Y-137013333D01*
X169893452Y-137013333D01*
X169798214Y-137060952D01*
X169750595Y-137108571D01*
X169702976Y-137203809D01*
G04 #@! TO.C,R17*
X159357142Y-137632380D02*
X159023809Y-137156190D01*
X158785714Y-137632380D02*
X158785714Y-136632380D01*
X159166666Y-136632380D01*
X159261904Y-136680000D01*
X159309523Y-136727619D01*
X159357142Y-136822857D01*
X159357142Y-136965714D01*
X159309523Y-137060952D01*
X159261904Y-137108571D01*
X159166666Y-137156190D01*
X158785714Y-137156190D01*
X160309523Y-137632380D02*
X159738095Y-137632380D01*
X160023809Y-137632380D02*
X160023809Y-136632380D01*
X159928571Y-136775238D01*
X159833333Y-136870476D01*
X159738095Y-136918095D01*
X160642857Y-136632380D02*
X161309523Y-136632380D01*
X160880952Y-137632380D01*
G04 #@! TO.C,U2*
X149952380Y-80561904D02*
X150761904Y-80561904D01*
X150857142Y-80514285D01*
X150904761Y-80466666D01*
X150952380Y-80371428D01*
X150952380Y-80180952D01*
X150904761Y-80085714D01*
X150857142Y-80038095D01*
X150761904Y-79990476D01*
X149952380Y-79990476D01*
X150047619Y-79561904D02*
X150000000Y-79514285D01*
X149952380Y-79419047D01*
X149952380Y-79180952D01*
X150000000Y-79085714D01*
X150047619Y-79038095D01*
X150142857Y-78990476D01*
X150238095Y-78990476D01*
X150380952Y-79038095D01*
X150952380Y-79609523D01*
X150952380Y-78990476D01*
G04 #@! TO.C,U8*
X158352380Y-119861904D02*
X159161904Y-119861904D01*
X159257142Y-119814285D01*
X159304761Y-119766666D01*
X159352380Y-119671428D01*
X159352380Y-119480952D01*
X159304761Y-119385714D01*
X159257142Y-119338095D01*
X159161904Y-119290476D01*
X158352380Y-119290476D01*
X158780952Y-118671428D02*
X158733333Y-118766666D01*
X158685714Y-118814285D01*
X158590476Y-118861904D01*
X158542857Y-118861904D01*
X158447619Y-118814285D01*
X158400000Y-118766666D01*
X158352380Y-118671428D01*
X158352380Y-118480952D01*
X158400000Y-118385714D01*
X158447619Y-118338095D01*
X158542857Y-118290476D01*
X158590476Y-118290476D01*
X158685714Y-118338095D01*
X158733333Y-118385714D01*
X158780952Y-118480952D01*
X158780952Y-118671428D01*
X158828571Y-118766666D01*
X158876190Y-118814285D01*
X158971428Y-118861904D01*
X159161904Y-118861904D01*
X159257142Y-118814285D01*
X159304761Y-118766666D01*
X159352380Y-118671428D01*
X159352380Y-118480952D01*
X159304761Y-118385714D01*
X159257142Y-118338095D01*
X159161904Y-118290476D01*
X158971428Y-118290476D01*
X158876190Y-118338095D01*
X158828571Y-118385714D01*
X158780952Y-118480952D01*
G04 #@! TO.C,REF\002A\002A*
X138666666Y-145952380D02*
X138333333Y-145476190D01*
X138095238Y-145952380D02*
X138095238Y-144952380D01*
X138476190Y-144952380D01*
X138571428Y-145000000D01*
X138619047Y-145047619D01*
X138666666Y-145142857D01*
X138666666Y-145285714D01*
X138619047Y-145380952D01*
X138571428Y-145428571D01*
X138476190Y-145476190D01*
X138095238Y-145476190D01*
X139095238Y-145428571D02*
X139428571Y-145428571D01*
X139571428Y-145952380D02*
X139095238Y-145952380D01*
X139095238Y-144952380D01*
X139571428Y-144952380D01*
X140333333Y-145428571D02*
X140000000Y-145428571D01*
X140000000Y-145952380D02*
X140000000Y-144952380D01*
X140476190Y-144952380D01*
X141000000Y-144952380D02*
X141000000Y-145190476D01*
X140761904Y-145095238D02*
X141000000Y-145190476D01*
X141238095Y-145095238D01*
X140857142Y-145380952D02*
X141000000Y-145190476D01*
X141142857Y-145380952D01*
X141761904Y-144952380D02*
X141761904Y-145190476D01*
X141523809Y-145095238D02*
X141761904Y-145190476D01*
X142000000Y-145095238D01*
X141619047Y-145380952D02*
X141761904Y-145190476D01*
X141904761Y-145380952D01*
X138666666Y-95952380D02*
X138333333Y-95476190D01*
X138095238Y-95952380D02*
X138095238Y-94952380D01*
X138476190Y-94952380D01*
X138571428Y-95000000D01*
X138619047Y-95047619D01*
X138666666Y-95142857D01*
X138666666Y-95285714D01*
X138619047Y-95380952D01*
X138571428Y-95428571D01*
X138476190Y-95476190D01*
X138095238Y-95476190D01*
X139095238Y-95428571D02*
X139428571Y-95428571D01*
X139571428Y-95952380D02*
X139095238Y-95952380D01*
X139095238Y-94952380D01*
X139571428Y-94952380D01*
X140333333Y-95428571D02*
X140000000Y-95428571D01*
X140000000Y-95952380D02*
X140000000Y-94952380D01*
X140476190Y-94952380D01*
X141000000Y-94952380D02*
X141000000Y-95190476D01*
X140761904Y-95095238D02*
X141000000Y-95190476D01*
X141238095Y-95095238D01*
X140857142Y-95380952D02*
X141000000Y-95190476D01*
X141142857Y-95380952D01*
X141761904Y-94952380D02*
X141761904Y-95190476D01*
X141523809Y-95095238D02*
X141761904Y-95190476D01*
X142000000Y-95095238D01*
X141619047Y-95380952D02*
X141761904Y-95190476D01*
X141904761Y-95380952D01*
G04 #@! TD*
M02*
